<?xml version="1.0" encoding="UTF-8"?>
<svg version="1.1" xmlns="http://www.w3.org/2000/svg" width="3000" height="615">
<path d="M0 0 C990 0 1980 0 3000 0 C3000 202.95 3000 405.9 3000 615 C2010 615 1020 615 0 615 C0 412.05 0 209.1 0 0 Z " fill="#FEFEFE" transform="translate(0,0)"/>
<path d="M0 0 C24.42 0 48.84 0 74 0 C74 121.44 74 242.88 74 368 C52.55 368 31.1 368 9 368 C6.03 353.15 6.03 353.15 3 338 C2.34 336.35 1.68 334.7 1 333 C0.443125 333.721875 -0.11375 334.44375 -0.6875 335.1875 C-13.04837998 350.22100267 -29.49811961 361.15182408 -48 367 C-49.21816406 367.39316406 -50.43632813 367.78632813 -51.69140625 368.19140625 C-70.9835182 373.72323672 -95.73883862 373.24221299 -115 368 C-115.71188477 367.80664062 -116.42376953 367.61328125 -117.15722656 367.4140625 C-148.97661115 358.49196764 -173.73219497 337.64896699 -190 309 C-209.69693526 271.59522885 -212.46043532 223.71631304 -200.53564453 183.57226562 C-193.87076992 162.48484252 -183.53934987 144.69496568 -168 129 C-167.39800781 128.33742187 -166.79601563 127.67484375 -166.17578125 126.9921875 C-148.43155177 107.77299687 -118.70169994 96.09755685 -93.06103516 94.85791016 C-61.33678587 93.92302951 -33.57762915 99.7347198 -9 121 C-6.49766887 123.55254513 -4.20278836 126.18777353 -2 129 C-1.67 129.33 -1.34 129.66 -1 130 C-0.67 87.1 -0.34 44.2 0 0 Z " fill="#023720" transform="translate(1682,0)"/>
<path d="M0 0 C1.6854895 -0.00821777 1.6854895 -0.00821777 3.4050293 -0.01660156 C27.3336406 0.18575456 49.54954016 7.59622997 66.80859375 24.65625 C71.6312985 29.79613095 75.4662175 35.17948353 79.02734375 41.2578125 C79.49269531 41.93585938 79.95804688 42.61390625 80.4375 43.3125 C81.0975 43.3125 81.7575 43.3125 82.4375 43.3125 C83.72538243 41.84105732 84.94320327 40.3079285 86.125 38.75 C101.58121523 19.06337166 122.47357331 8.19285843 146.4375 2.3125 C147.51902344 2.04566406 148.60054687 1.77882813 149.71484375 1.50390625 C175.79841536 -3.57276205 205.36587245 0.21484796 228.18359375 14.04296875 C233.79353482 17.95578479 238.63835862 22.45596978 243.4375 27.3125 C244.43716797 28.29669922 244.43716797 28.29669922 245.45703125 29.30078125 C262.01953581 46.76057725 268.38636504 73.16055495 271.4375 96.3125 C271.52700141 96.98138937 271.61650282 97.65027874 271.70871639 98.33943748 C272.66169121 106.50085279 272.57071812 114.66674151 272.55102539 122.86962891 C272.55074288 124.52625527 272.55090251 126.18288176 272.5514679 127.83950806 C272.55175336 132.30985881 272.54589729 136.78018242 272.53889394 141.25052691 C272.53261854 145.93234651 272.5320533 150.61416683 272.53086853 155.29598999 C272.52776752 164.14965475 272.51957078 173.00330708 272.50951904 181.85696638 C272.49622316 193.8294237 272.49084805 205.80188445 272.48501682 217.77434731 C272.47563002 236.6204075 272.45570289 255.46644148 272.4375 274.3125 C248.0175 274.3125 223.5975 274.3125 198.4375 274.3125 C198.40011719 262.5871875 198.36273437 250.861875 198.32421875 238.78125 C198.29392806 231.33462379 198.2628932 223.88801287 198.22851562 216.44140625 C198.17413756 204.63266417 198.12272003 192.82396451 198.09106445 181.01513672 C198.06799042 172.4128084 198.03448858 163.8105925 197.98879844 155.20835352 C197.96499226 150.65938849 197.94618135 146.11053394 197.93988609 141.56150818 C197.93377761 137.26703005 197.91357381 132.9728341 197.88322449 128.67846107 C197.87453553 127.11457095 197.87070234 125.55064381 197.87249184 123.98673058 C197.88677337 105.72256732 195.88841604 85.98080458 182.4375 72.3125 C171.21529108 62.64712931 158.02137747 61.20687366 143.77441406 62.08935547 C132.3696417 63.1783611 121.74648998 68.57300235 113.75 76.75 C110.70160365 80.54029522 108.42389551 84.69860968 106.1875 89 C105.85790283 89.62253662 105.52830566 90.24507324 105.1887207 90.88647461 C99.57079724 102.29334556 98.99086424 114.3640233 99.00512695 126.84301758 C98.99608899 128.46068561 98.98575686 130.07834684 98.97424316 131.69599915 C98.94688564 136.04634884 98.93741785 140.39656786 98.93138909 144.74699235 C98.92194956 149.30873083 98.89574206 153.8703738 98.87138367 158.43205261 C98.82786749 167.05184698 98.79922943 175.67162265 98.77606028 184.29149312 C98.7438458 195.95251337 98.68839741 207.6134223 98.63431454 219.2743578 C98.54983369 237.6203719 98.49617856 255.96634318 98.4375 274.3125 C73.6875 274.3125 48.9375 274.3125 23.4375 274.3125 C23.39882813 256.29140625 23.39882813 256.29140625 23.359375 237.90625 C23.33419704 230.27732763 23.30801847 222.64843022 23.27734375 215.01953125 C23.22888247 202.92106319 23.18440794 190.82267814 23.16650391 178.72412109 C23.15344271 169.91082066 23.12636483 161.09769008 23.08288693 152.28448534 C23.0603721 147.62370435 23.04458328 142.96313206 23.04561615 138.30229187 C23.04636871 133.90269063 23.02818201 129.50354898 22.99633217 125.10406685 C22.98791146 123.50147669 22.98602901 121.89883449 22.99169731 120.29623222 C23.04172806 103.95673444 20.758683 85.65558953 8.9375 73.3125 C-2.77814327 62.77353706 -16.12092897 61.54152664 -31.25830078 62.13769531 C-42.50806738 62.99114232 -53.09375318 69.38906579 -60.8125 77.375 C-73.96480333 93.22798164 -75.69017981 112.05335389 -75.76782227 131.83813477 C-75.77741638 133.39609528 -75.78742733 134.95405328 -75.79782104 136.51200867 C-75.82471016 140.71793693 -75.84580566 144.92387622 -75.86582303 149.12984204 C-75.88778198 153.53408618 -75.91512191 157.93829691 -75.94187927 162.34251404 C-75.99167281 170.67203149 -76.03666078 179.00156762 -76.07990164 187.33112139 C-76.13865114 198.59426888 -76.20486585 209.85737236 -76.27065182 221.12048054 C-76.37401768 238.85112398 -76.46744552 256.58180554 -76.5625 274.3125 C-100.9825 274.3125 -125.4025 274.3125 -150.5625 274.3125 C-150.5625 184.8825 -150.5625 95.4525 -150.5625 3.3125 C-129.1125 3.3125 -107.6625 3.3125 -85.5625 3.3125 C-83.9125 11.8925 -82.2625 20.4725 -80.5625 29.3125 C-79.5725 32.2825 -79.5725 32.2825 -78.5625 35.3125 C-77.94375 34.4875 -77.325 33.6625 -76.6875 32.8125 C-75.635625 31.575 -75.635625 31.575 -74.5625 30.3125 C-73.9025 30.3125 -73.2425 30.3125 -72.5625 30.3125 C-72.5625 29.6525 -72.5625 28.9925 -72.5625 28.3125 C-71.9025 28.3125 -71.2425 28.3125 -70.5625 28.3125 C-70.0675 26.8275 -70.0675 26.8275 -69.5625 25.3125 C-57.42272715 14.25312765 -43.49435201 7.08583337 -27.5625 3.3125 C-26.55960938 3.01472656 -25.55671875 2.71695313 -24.5234375 2.41015625 C-16.35468542 0.21087684 -8.42593413 0.02982429 0 0 Z " fill="#023721" transform="translate(882.5625,94.6875)"/>
<path d="M0 0 C14.19 0 28.38 0 43 0 C43 121.44 43 242.88 43 368 C30.46 368 17.92 368 5 368 C3.125 352 3.125 352 2.54736328 347 C2.38875534 345.66661795 2.22976305 344.33328155 2.0703125 343 C1.95610962 341.99259766 1.95610962 341.99259766 1.83959961 340.96484375 C1.25953164 336.17192396 0.24084169 331.65429265 -1 327 C-1.63164062 327.79921875 -2.26328125 328.5984375 -2.9140625 329.421875 C-20.50480221 351.20311388 -44.612558 367.09938948 -72.85351562 370.71435547 C-108.79209051 373.97693559 -144.83004195 368.64652696 -173.8125 345.625 C-175.56306209 344.10767148 -177.29228996 342.56540087 -179 341 C-179.91265625 340.16855469 -180.8253125 339.33710938 -181.765625 338.48046875 C-202.7597498 318.45395026 -213.73316159 292.10516648 -219 264 C-219.3403125 262.25783203 -219.3403125 262.25783203 -219.6875 260.48046875 C-225.9974402 222.13881823 -218.36021068 180.2265471 -195.81542969 148.32373047 C-175.59110336 120.31649222 -146.79106314 103.84921327 -113 98 C-111.59512329 97.73981079 -111.59512329 97.73981079 -110.16186523 97.47436523 C-81.37109715 93.15497195 -47.58169865 98.70967488 -23.625 115.9375 C-22.39881194 116.93681626 -21.19137831 117.95942907 -20 119 C-19.20335938 119.67804688 -18.40671875 120.35609375 -17.5859375 121.0546875 C-4.0738941 132.8522118 -4.0738941 132.8522118 -1 139 C-0.67 93.13 -0.34 47.26 0 0 Z " fill="#023721" transform="translate(2957,0)"/>
<path d="M0 0 C8.87447193 8.1011777 17.59679202 16.20403464 23.82421875 26.578125 C24.16759277 27.13661133 24.5109668 27.69509766 24.86474609 28.27050781 C46.66650265 63.98044427 50.86957353 106.01945222 41.82421875 146.578125 C40.48342535 152.03956522 38.78327786 157.3037351 36.82421875 162.578125 C36.27314453 164.09986328 36.27314453 164.09986328 35.7109375 165.65234375 C30.61768685 178.76177584 23.24550133 192.06134444 13.82421875 202.578125 C13.16421875 202.578125 12.50421875 202.578125 11.82421875 202.578125 C11.49357422 203.40763672 11.49357422 203.40763672 11.15625 204.25390625 C9.41546417 207.2913478 7.0842711 209.4451631 4.51171875 211.765625 C3.71266113 212.48745972 3.71266113 212.48745972 2.89746094 213.22387695 C-18.34133866 232.02660734 -47.83465316 244.52269667 -76.37109375 244.81640625 C-77.15223038 244.82624542 -77.933367 244.83608459 -78.73817444 244.84622192 C-111.56660568 245.1746385 -111.56660568 245.1746385 -126.17578125 240.578125 C-126.95824219 240.33674805 -127.74070312 240.09537109 -128.546875 239.84667969 C-145.28055573 234.52536922 -160.59774584 226.74914504 -174.17578125 215.578125 C-175.29726562 214.66740234 -175.29726562 214.66740234 -176.44140625 213.73828125 C-181.18436365 209.74659382 -185.26554155 205.3804663 -189.17578125 200.578125 C-189.85253906 199.77375 -190.52929688 198.969375 -191.2265625 198.140625 C-206.64938553 178.85524772 -215.78263643 154.90436326 -219.17578125 130.578125 C-219.26786865 129.92658447 -219.35995605 129.27504395 -219.45483398 128.60375977 C-224.39626183 89.84929104 -215.86189671 50.14975102 -192.4375 18.6875 C-179.58356501 2.10829343 -163.25033976 -9.94820479 -144.17578125 -18.421875 C-143.13292969 -18.89238281 -142.09007813 -19.36289063 -141.015625 -19.84765625 C-134.33952072 -22.63008423 -127.50119237 -24.4688887 -120.48828125 -26.171875 C-119.62114502 -26.38287842 -118.75400879 -26.59388184 -117.8605957 -26.8112793 C-77.98298478 -36.03768562 -31.38480613 -26.83424381 0 0 Z " fill="#033721" transform="translate(2404.17578125,126.421875)"/>
<path d="M0 0 C1.10214844 0.98613281 1.10214844 0.98613281 2.2265625 1.9921875 C3.48339844 3.07113281 3.48339844 3.07113281 4.765625 4.171875 C29.92722769 26.14076678 42.90700074 56.0593054 46.2265625 88.9921875 C46.97500482 101.71021722 46.51021974 113.43207269 44.2265625 125.9921875 C-20.4534375 125.9921875 -85.1334375 125.9921875 -151.7734375 125.9921875 C-150.4347779 138.8089038 -150.4347779 138.8089038 -147.0859375 150.8046875 C-146.6983728 151.8570459 -146.6983728 151.8570459 -146.30297852 152.93066406 C-143.06890555 161.33751762 -138.60772942 169.01218207 -131.7734375 174.9921875 C-131.29777344 175.45882812 -130.82210938 175.92546875 -130.33203125 176.40625 C-117.01908222 188.91721415 -99.82469924 190.77358177 -82.38671875 190.33984375 C-68.40844895 189.68494244 -53.9016773 184.77063568 -43.5859375 175.03515625 C-37.56257635 168.24589358 -34.65686816 161.64247947 -31.7734375 152.9921875 C-7.6834375 152.9921875 16.4065625 152.9921875 41.2265625 152.9921875 C40.5151758 159.3946678 39.69697709 164.65503226 37.6640625 170.6171875 C37.40157715 171.390625 37.1390918 172.1640625 36.86865234 172.9609375 C32.63483673 184.95224347 26.672428 195.43789973 18.2265625 204.9921875 C17.47761719 205.88421875 16.72867187 206.77625 15.95703125 207.6953125 C-3.84863601 230.60461421 -34.76765432 244.46364983 -64.7734375 246.9921875 C-67.77271606 247.13602403 -70.76707808 247.17878462 -73.76953125 247.1953125 C-74.60194839 247.20101257 -75.43436554 247.20671265 -76.29200745 247.21258545 C-78.04581459 247.22196919 -79.79963884 247.2285428 -81.5534668 247.23242188 C-84.17334719 247.24204936 -86.79241486 247.27310411 -89.41210938 247.3046875 C-100.82910974 247.37594114 -111.59205831 246.26295883 -122.7734375 243.9921875 C-123.507901 243.84718307 -124.2423645 243.70217865 -124.99908447 243.55278015 C-148.12477725 238.96631514 -170.31449189 229.05136342 -187.7734375 212.9921875 C-188.55412598 212.27506592 -188.55412598 212.27506592 -189.35058594 211.54345703 C-202.03071822 199.75948659 -210.60477914 186.67290385 -217.7734375 170.9921875 C-218.20100342 170.07614746 -218.20100342 170.07614746 -218.63720703 169.14160156 C-225.79211051 153.59920945 -228.88402587 136.08263115 -228.9765625 119.0234375 C-228.98226257 118.18486206 -228.98796265 117.34628662 -228.99383545 116.4822998 C-229.00322973 114.71412392 -229.00979708 112.94593097 -229.01367188 111.17773438 C-229.02331085 108.52701624 -229.05436002 105.87709716 -229.0859375 103.2265625 C-229.15238811 92.42786572 -228.20144584 82.52654917 -225.7734375 71.9921875 C-225.54019775 70.91541748 -225.30695801 69.83864746 -225.06665039 68.72924805 C-217.95152397 36.57782432 -198.35036572 8.81793536 -170.7734375 -9.0078125 C-122.01087683 -39.43660649 -44.61372817 -38.17463338 0 0 Z " fill="#023720" transform="translate(1409.7734375,124.0078125)"/>
<path d="M0 0 C14.85 0 29.7 0 45 0 C49.85328681 15.00106831 54.65906963 29.99428232 59.13964844 45.10986328 C60.92890678 51.1204309 62.74567757 57.12271972 64.5625 63.125 C64.77124756 63.8150412 64.97999512 64.5050824 65.19506836 65.21603394 C69.15620996 78.30167949 73.20692227 91.35895296 77.26589966 104.41452026 C81.73387337 118.79518802 86.07929868 133.20895692 90.31030273 147.66113281 C92.68329943 155.74155569 95.21134395 163.7454432 97.90625 171.72436523 C99.20253206 175.6065564 100.37245241 179.50316432 101.5 183.4375 C103.53112152 190.46210078 105.68030158 197.44264667 107.88671875 204.4140625 C108.97838745 207.93038485 110.00243327 211.45613279 111 215 C113.17603015 211.73595477 114.19846512 208.56661026 115.3203125 204.859375 C115.54003723 204.14882965 115.75976196 203.4382843 115.98614502 202.70620728 C116.457723 201.18108507 116.92734457 199.65535682 117.39520264 198.12908936 C120.86724644 186.81046466 124.40766687 175.5316099 128.375 164.375 C130.52115874 158.32946756 132.57032026 152.29947849 134.3125 146.125 C136.70268291 137.65928347 139.51358089 129.33693436 142.3125 121 C147.86758223 104.44005087 153.26822386 87.83869412 158.43359375 71.15234375 C159.28849983 68.39305445 160.14402573 65.63395811 161 62.875 C161.21144653 62.19298523 161.42289307 61.51097046 161.64074707 60.80828857 C164.66774947 51.06166541 167.88234922 41.39763651 171.30151367 31.78076172 C173.55383581 25.40932791 175.57371076 19.00255392 177.36645508 12.48657227 C178.6020449 8.05775677 180.15300158 4.30966297 182 0 C195.2 0 208.4 0 222 0 C236.12197813 43.90651381 236.12197813 43.90651381 241.97729492 64.18164062 C244.41377427 72.53996205 247.0637551 80.83398464 249.67196655 89.13989258 C252.4902568 98.1181693 255.24495583 107.10843881 257.859375 116.1484375 C259.16123831 120.60303385 260.5848166 125.01788269 262 129.4375 C264.20588577 136.32992922 266.24718556 143.24850462 268.08789062 150.24780273 C269.48861969 155.47209231 271.18141065 160.57631855 272.91256714 165.69984436 C274.71148033 171.05869959 276.39432547 176.44864842 278.04296875 181.85546875 C278.30042374 182.69915009 278.55787872 183.54283142 278.82313538 184.41207886 C279.88387719 187.89373236 280.9417853 191.37623383 281.99682617 194.85961914 C282.77997431 197.44251334 283.56745235 200.02405638 284.35546875 202.60546875 C284.71018501 203.7835334 284.71018501 203.7835334 285.07206726 204.98539734 C286.14497179 208.49256997 287.30169687 211.7527918 289 215 C291.83310327 206.23724448 294.66434498 197.47388871 297.49407959 188.71004486 C297.9556797 187.28045477 298.41730885 185.85087405 298.87896729 184.4213028 C304.89946504 165.77755109 310.88206993 147.12301994 316.76815796 128.43630981 C321.01261242 114.97357691 325.4216946 101.57020914 329.95703125 88.20263672 C332.7899791 79.8246763 335.39305264 71.40540543 337.85644531 62.91162109 C339.3520098 57.76486451 340.97532861 52.66168807 342.625 47.5625 C342.94984375 46.5526001 343.2746875 45.5427002 343.609375 44.50219727 C344.73682758 41.00056967 345.86813787 37.50020472 347 34 C347.47887631 32.51791501 347.95771567 31.03581807 348.43652344 29.55371094 C351.61998919 19.70105778 354.80958389 9.85040974 358 0 C372.52 0 387.04 0 402 0 C400.23086693 5.89711023 398.46417772 11.72534825 396.50390625 17.55078125 C396.02942569 18.96572755 395.55498067 20.38068577 395.08056641 21.7956543 C394.71043427 22.89676041 394.71043427 22.89676041 394.33282471 24.02011108 C390.09593906 36.628547 385.92970499 49.2572625 381.85519409 61.91906738 C376.81008839 77.59227327 371.56078215 93.18792536 366.21582031 108.76123047 C362.38401315 119.92815486 358.59951362 131.10932395 354.875 142.3125 C354.63104492 143.04622833 354.38708984 143.77995667 354.13574219 144.53591919 C352.91215643 148.21716 351.68970521 151.89877629 350.46777344 155.58056641 C348.23568252 162.30419596 345.99337702 169.02442162 343.75201416 175.7449646 C342.50094086 179.49650909 341.25050197 183.24826503 340 187 C339.50000305 188.50000102 339.00000305 190.00000102 338.5 191.5 C338.2525 192.2425 338.005 192.985 337.75 193.75 C329.5 218.5 321.25 243.25 313 268 C297.16 268 281.32 268 265 268 C259.4375 250.8125 259.4375 250.8125 257.73217773 245.53833008 C255.05879102 237.28158252 252.35115138 229.03767855 249.59375 220.80859375 C245.63852084 208.99132557 241.84814838 197.12246486 238.0625 185.25 C237.39139892 183.14839826 236.72017518 181.04683568 236.04882812 178.9453125 C233.3314494 170.43771533 230.61493996 161.92984484 227.90332031 153.42041016 C224.22190745 141.87786429 220.49018445 130.35733154 216.625 118.875 C211.2867928 102.95814688 206.11884393 86.98861236 201 71 C196.55176963 83.25218981 192.3719222 95.59328374 188.1875 107.9375 C187.05564119 111.27281938 185.92342508 114.60801733 184.79118347 117.94320679 C184.01632636 120.22573587 183.24159781 122.5083086 182.46699524 124.79092407 C179.87723472 132.42126437 177.28089999 140.04933788 174.6796875 147.67578125 C167.06827796 169.99437141 159.50484459 192.32625055 152.10229492 214.71508789 C148.73892983 224.85344832 145.26885957 234.95557328 141.8125 245.0625 C140.85093002 247.87548331 139.88948689 250.68850992 138.92814636 253.50157166 C138.33399627 255.24003963 137.73969312 256.97845531 137.1452179 258.71681213 C136.87791367 259.49870407 136.61060944 260.28059601 136.33520508 261.08618164 C135.98357048 262.1144381 135.98357048 262.1144381 135.62483215 263.16346741 C135.07704175 264.77355568 134.53781582 266.38655254 134 268 C118.16 268 102.32 268 86 268 C73.24640109 231.110558 73.24640109 231.110558 67.8125 213.625 C63.2630594 198.99207659 58.63071932 184.38716234 53.94784546 169.79632568 C53.16129848 167.34456593 52.37580321 164.89246847 51.59146118 162.44000244 C47.65890415 150.14554168 43.65847989 137.89334888 39.33068848 125.73199463 C37.28875797 119.94902538 35.53369918 114.14290752 33.90429688 108.22900391 C32.34590995 102.6644182 30.53897558 97.18142775 28.75 91.6875 C28.33016459 90.39205956 27.91049353 89.09656584 27.4909668 87.80102539 C24.68623525 79.14929398 21.85956133 70.50469866 19.03515625 61.859375 C18.51473251 60.26625237 18.51473251 60.26625237 17.98379517 58.64094543 C16.25689138 53.35535381 14.5286831 48.07019547 12.79785156 42.78588867 C10.85773845 36.85968743 8.92686262 30.9305212 7 25 C6.66305115 23.96562805 6.32610229 22.9312561 5.97894287 21.86553955 C4.98505669 18.80902715 3.99747751 15.7505482 3.01171875 12.69140625 C2.70796829 11.75957016 2.40421783 10.82773407 2.09126282 9.86766052 C1.81582138 9.00842484 1.54037994 8.14918915 1.2565918 7.26391602 C1.01305466 6.51030289 0.76951752 5.75668976 0.51860046 4.98023987 C0 3 0 3 0 0 Z " fill="#033721" transform="translate(1776,100)"/>
<path d="M0 0 C1.88162842 -0.01546875 1.88162842 -0.01546875 3.80126953 -0.03125 C26.7712194 0.18502258 46.56657799 8.6524812 63.25 24.25 C84.75351062 47.26655081 90.77284546 76.71323445 90.078125 107.25488281 C89.77282633 114.16438542 88.55687394 120.7286651 86.9375 127.4375 C86.67066406 128.61957031 86.40382813 129.80164063 86.12890625 131.01953125 C80.51371725 153.25567969 66.75360407 173.2926083 47.19189453 185.43481445 C25.99424581 198.04341317 0.79257565 200.76464704 -23.05419922 194.98535156 C-44.16012788 189.2277897 -62.04779208 175.45978207 -73.140625 156.60498047 C-78.54444644 146.97452875 -82.17782681 137.08172047 -85.0625 126.4375 C-85.32981934 125.48230469 -85.32981934 125.48230469 -85.60253906 124.5078125 C-93.10776295 96.53253967 -86.79507176 65.05352367 -73.06787109 40.15722656 C-70.78199604 36.24714791 -68.03627353 32.83609832 -65.0625 29.4375 C-64.54429687 28.7775 -64.02609375 28.1175 -63.4921875 27.4375 C-47.86537222 8.11158352 -23.97781384 0.16405102 0 0 Z " fill="#FDFEFE" transform="translate(2316.0625,135.5625)"/>
<path d="M0 0 C1.03253906 0.36222656 2.06507813 0.72445312 3.12890625 1.09765625 C25.25541607 9.43395305 39.41778096 26.31197827 49.47265625 47.03515625 C61.85262333 75.16456156 61.5464175 109.69978909 51.25 138.4375 C46.2728728 151.22632572 38.60194816 161.38386876 29 171 C28.34386719 171.66773438 27.68773438 172.33546875 27.01171875 173.0234375 C9.5028789 189.59497329 -13.74017235 193.57775673 -36.87109375 193.26953125 C-59.43506124 192.56342898 -79.70940025 181.50781835 -95.1015625 165.3125 C-113.47747007 145.00548251 -118.44201342 118.81252527 -118.4375 92.3125 C-118.43889984 91.52174072 -118.44029968 90.73098145 -118.44174194 89.91625977 C-118.42385456 77.61098217 -117.42136212 66.59080842 -113 55 C-112.61585938 53.91074219 -112.23171875 52.82148438 -111.8359375 51.69921875 C-103.20930506 29.0763153 -87.77672012 12.28631394 -65.90039062 1.84130859 C-46.9474727 -6.54920466 -19.39115519 -7.61171471 0 0 Z " fill="#FDFEFE" transform="translate(2899,140)"/>
<path d="M0 0 C3.18183142 2.63065724 4.2663351 5.64309006 5.7578125 9.4375 C6.01773987 10.09231857 6.27766724 10.74713715 6.54547119 11.42179871 C7.41267522 13.61170384 8.26872067 15.80580258 9.125 18 C9.74226682 19.56449897 10.36028557 21.12870145 10.97900391 22.69262695 C12.30344586 26.04422577 13.62324288 29.39760147 14.93945312 32.75244141 C16.99801093 37.99848694 19.06787716 43.24001602 21.140625 48.48046875 C21.48679367 49.35575729 21.83296234 50.23104584 22.18962097 51.13285828 C22.89497135 52.91631147 23.60034971 54.69975359 24.30575562 56.48318481 C25.38663542 59.21692812 26.46651127 61.95106615 27.54614258 64.68530273 C31.95471543 75.84783367 36.3847942 87.00147384 40.84472656 98.14358521 C41.81045894 100.55739845 42.77450325 102.97188045 43.73828125 105.38647461 C47.1252966 113.8645549 50.5376282 122.33157116 53.98692322 130.78453064 C55.83666819 135.32215934 57.67688296 139.86362499 59.51620483 144.40548706 C60.41213135 146.61070379 61.3124456 148.81414368 62.21743774 151.01565552 C63.48696497 154.10494003 64.74098969 157.20012991 65.9921875 160.296875 C66.36851822 161.20157028 66.74484894 162.10626556 67.13258362 163.03837585 C74.36292227 181.10332887 74.43060853 201.16455451 66.87207031 219.04003906 C60.72854468 232.84749253 51.03940578 244.24740457 38 252 C37.2575 252.44730469 36.515 252.89460937 35.75 253.35546875 C18.96327829 262.57115212 0.57237575 264.43622342 -18 260 C-38.54160536 253.64074133 -53.27282062 241.20812271 -63.8515625 222.7734375 C-72.1589573 206.28141728 -73.43435033 187.07964496 -67.86425781 169.52832031 C-64.38564155 159.35189374 -60.12899675 149.44578855 -56.03192139 139.50671387 C-52.85175948 131.78155567 -49.69664298 124.04608662 -46.53936768 116.31155396 C-45.63595655 114.09854544 -44.73210514 111.88571662 -43.82781982 109.67306519 C-31.12082318 78.56675064 -18.76848453 47.31813505 -6.39112854 16.07957458 C-5.96735664 15.01004044 -5.96735664 15.01004044 -5.53502369 13.91889954 C-4.77968715 12.01233761 -4.02451121 10.10571206 -3.26934814 8.19908142 C-2.18417952 5.4641794 -1.09450705 2.73117548 0 0 Z " fill="#023720" transform="translate(402,353)"/>
<path d="M0 0 C0.66 0 1.32 0 2 0 C7.96197044 14.55748331 13.86356222 29.13683853 19.6875 43.75 C24.1373979 54.91507639 28.65550465 66.04874795 33.24569702 77.15682983 C40.80945745 95.47323267 48.18497544 113.86430972 55.51699829 132.27444458 C56.75043446 135.37142591 57.98617932 138.46746959 59.22396851 141.56271362 C60.69801835 145.24948323 62.16676566 148.93832297 63.63158607 152.62876892 C64.17776134 154.0025683 64.72563029 155.37569573 65.27532005 156.74809265 C72.82745872 175.61472122 76.14087572 196.60853515 68 216 C67.56429687 217.04027344 67.12859375 218.08054687 66.6796875 219.15234375 C63.39819829 226.26223704 59.19187556 232.16532079 54 238 C53.39542969 238.69867187 52.79085937 239.39734375 52.16796875 240.1171875 C41.19422848 251.9919296 23.75308687 260.17454147 7.5859375 261.50390625 C3.69441985 261.64315426 -0.12418128 261.37942225 -4 261 C-5.83691406 260.83564453 -5.83691406 260.83564453 -7.7109375 260.66796875 C-26.99264751 258.43028657 -43.06044904 248.93720581 -55.390625 234.12890625 C-61.000219 226.63905945 -65.069901 218.87079422 -68 210 C-68.35191406 208.99324219 -68.70382813 207.98648438 -69.06640625 206.94921875 C-70.45665523 201.98771823 -70.32933304 196.99224297 -70.3125 191.875 C-70.32861328 190.91851563 -70.34472656 189.96203125 -70.36132812 188.9765625 C-70.37014959 175.77965722 -66.14739421 164.06768292 -61.21484375 152 C-60.63986115 150.57282662 -60.06575077 149.14530157 -59.4924469 147.717453 C-57.96699352 143.9247252 -56.43013081 140.13672258 -54.89096069 136.34954453 C-53.28358503 132.38860444 -51.68711408 128.42327529 -50.08984375 124.45825195 C-47.86027352 118.92600868 -45.62767962 113.39500771 -43.39053535 107.86582279 C-40.18934912 99.95371411 -37.00546197 92.03501647 -33.84765625 84.10546875 C-33.47281097 83.16429199 -33.0979657 82.22311523 -32.71176147 81.25341797 C-31.98964698 79.43987104 -31.2676087 77.62629377 -30.5456543 75.81268311 C-22.90340892 56.62632916 -15.1120659 37.50143364 -7.28125 18.39135742 C-6.86851334 17.38337601 -6.45577667 16.37539459 -6.03053284 15.33686829 C-5.25567017 13.44496729 -4.47994826 11.55341791 -3.70323181 9.66227722 C-3.36022537 8.82481461 -3.01721893 7.98735199 -2.66381836 7.12451172 C-2.36503281 6.39642303 -2.06624725 5.66833435 -1.75840759 4.91818237 C-1.11826306 3.29911371 -0.55056047 1.65168142 0 0 Z " fill="#023720" transform="translate(182,354)"/>
<path d="M0 0 C12.16885154 9.22674008 20.1840643 20.97066162 25.73046875 35.0703125 C26.05144531 35.86179688 26.37242187 36.65328125 26.703125 37.46875 C28.82412773 43.72324178 29.03748833 49.90176132 29.10546875 56.4453125 C29.11940674 57.29464355 29.13334473 58.14397461 29.14770508 59.01904297 C29.05991316 71.04311539 25.32960732 81.86374214 20.78009033 92.86117554 C19.87889959 95.03976028 18.989716 97.22294545 18.10302734 99.4074707 C17.10552255 101.8641844 16.10707541 104.32048566 15.10516357 106.77540588 C10.77325753 117.39122623 6.53130065 128.04301511 2.27987671 138.69125366 C-0.09342192 144.63372903 -2.47073736 150.57459699 -4.84765625 156.515625 C-5.77540975 158.83495329 -6.70314447 161.15428909 -7.63085938 163.47363281 C-12.62695313 175.96386719 -12.62695313 175.96386719 -13.73867798 178.7431488 C-14.44962327 180.52053216 -15.16054103 182.29792653 -15.87142944 184.07533264 C-17.52316947 188.20502515 -19.17534081 192.33454377 -20.82861328 196.46362305 C-23.53324202 203.21968328 -26.23521862 209.97669417 -28.91744995 216.74168396 C-30.02494743 219.53456094 -31.13481651 222.32649274 -32.24481201 225.11837769 C-32.9882081 226.99139263 -33.72783022 228.86590413 -34.46728516 230.74047852 C-36.82557387 236.67034128 -39.30475352 242.41783908 -42.26953125 248.0703125 C-44.50763594 245.83220781 -45.1351378 244.20592489 -46.2578125 241.265625 C-46.63486328 240.28851563 -47.01191406 239.31140625 -47.40039062 238.3046875 C-47.79033203 237.27859375 -48.18027344 236.2525 -48.58203125 235.1953125 C-51.68522832 227.09633821 -54.90916913 219.06592821 -58.26953125 211.0703125 C-60.17589795 206.49675457 -62.07506606 201.92027411 -63.96899414 197.34155273 C-64.53049136 195.98585859 -65.09325023 194.63068607 -65.6574707 193.27612305 C-69.89669559 183.09520858 -73.92365527 172.83795697 -77.88671875 162.546875 C-82.18349562 151.38950097 -86.56172489 140.26823892 -91.0234375 129.17578125 C-91.30368082 128.47851362 -91.58392414 127.78124599 -91.87265968 127.06284904 C-94.44182751 120.67098062 -97.01511881 114.28078036 -99.59399414 107.89282227 C-101.03155093 104.33132081 -102.46479201 100.76810729 -103.89542961 97.20382118 C-104.42997558 95.87448938 -104.9661192 94.54579865 -105.50403023 93.21782494 C-114.59877135 70.76270877 -117.58622019 51.04965443 -108.26953125 28.0703125 C-105.77470411 23.0442132 -102.67428065 18.52743899 -99.26953125 14.0703125 C-98.56054688 13.1215625 -97.8515625 12.1728125 -97.12109375 11.1953125 C-96.51007813 10.4940625 -95.8990625 9.7928125 -95.26953125 9.0703125 C-94.60953125 9.0703125 -93.94953125 9.0703125 -93.26953125 9.0703125 C-93.06328125 8.50183594 -92.85703125 7.93335937 -92.64453125 7.34765625 C-90.78247887 4.26363199 -88.21036664 2.59071247 -85.26953125 0.6328125 C-84.68284668 0.23811768 -84.09616211 -0.15657715 -83.49169922 -0.56323242 C-57.66796259 -17.66064236 -25.83092896 -17.22061931 0 0 Z " fill="#023720" transform="translate(445.26953125,12.9296875)"/>
<path d="M0 0 C0.99 0.35191406 1.98 0.70382813 3 1.06640625 C20.48091274 7.82242227 33.90292313 19.2923965 42.375 36 C42.69645996 36.62753174 43.01791992 37.25506348 43.34912109 37.90161133 C47.90279848 47.31567178 49.49642208 56.47317496 49.375 66.875 C49.38660156 67.86113281 49.39820313 68.84726563 49.41015625 69.86328125 C49.36123238 82.40409952 45.8136561 93.28183153 40.875 104.6875 C39.7920046 107.23883269 38.71697705 109.79351512 37.640625 112.34765625 C37.35317413 113.0268512 37.06572327 113.70604614 36.76956177 114.40582275 C32.95378556 123.43758851 29.29566782 132.53355504 25.625 141.625 C24.88681921 143.45117959 24.14861926 145.27735143 23.41040039 147.10351562 C17.59961811 161.48532416 11.8293559 175.88315449 6.0791626 190.28927612 C3.15901008 197.60435522 0.23406057 204.91751363 -2.69140625 212.23046875 C-2.94033316 212.85272779 -3.18926006 213.47498684 -3.44573021 214.11610222 C-4.70976955 217.27587027 -5.97384856 220.43562245 -7.23794556 223.59536743 C-9.65367253 229.63379059 -12.06899858 235.67237412 -14.484375 241.7109375 C-15.31477696 243.78694729 -16.14518047 245.86295646 -16.97558594 247.93896484 C-17.31974548 248.79936371 -17.66390503 249.65976257 -18.01849365 250.54623413 C-19.50924683 254.27311707 -19.50924683 254.27311707 -21 258 C-21.66 258 -22.32 258 -23 258 C-40.37076823 214.57307943 -57.74153646 171.14615885 -75.11230469 127.71923828 C-75.46023071 126.84946854 -75.80815674 125.97969879 -76.16662598 125.08357239 C-76.82552582 123.43623347 -77.48430512 121.78884634 -78.14294434 120.1414032 C-79.82113628 115.94421433 -81.50213348 111.74817255 -83.18652344 107.5534668 C-83.54884064 106.65021164 -83.91115784 105.74695648 -84.28445435 104.81632996 C-84.97217581 103.10198256 -85.66065537 101.38793898 -86.35006714 99.67427063 C-94.51032496 79.32124014 -96.27434529 59.41108088 -87.6796875 38.83984375 C-84.39527042 31.74155437 -80.18840926 25.82807615 -75 20 C-74.43410156 19.36320312 -73.86820313 18.72640625 -73.28515625 18.0703125 C-65.90038972 10.25114794 -56.98972003 4.84220001 -47 1 C-45.98679688 0.60554687 -44.97359375 0.21109375 -43.9296875 -0.1953125 C-30.12481311 -4.86220857 -13.73785177 -4.97198414 0 0 Z " fill="#023720" transform="translate(205,3)"/>
<path d="M0 0 C15.28357595 12.08370881 26.63131871 28.20840817 29.1484375 47.9296875 C30.66125606 70.7890112 26.40330951 89.73189976 11.2265625 107.66015625 C-1.70929724 121.78747676 -19.5239253 130.85244392 -38.7421875 132.203125 C-58.46788624 132.85437032 -76.73918247 126.93411753 -91.8515625 113.9296875 C-92.49351562 113.38183594 -93.13546875 112.83398438 -93.796875 112.26953125 C-107.09941218 99.98424692 -115.38581258 82.20962335 -116.2109375 64.19140625 C-116.44005916 54.19240636 -116.41244787 44.4050048 -112.8515625 34.9296875 C-112.41650391 33.76179688 -112.41650391 33.76179688 -111.97265625 32.5703125 C-104.62776104 14.7458806 -91.15806534 0.37188401 -73.8515625 -8.0703125 C-49.16752884 -18.09800384 -21.83015565 -15.84929109 0 0 Z " fill="#023720" transform="translate(556.8515625,248.0703125)"/>
<path d="M0 0 C1.03511719 0.31710938 2.07023437 0.63421875 3.13671875 0.9609375 C20.5771637 6.89363409 35.07843223 19.93675941 43.6640625 36.140625 C48.99303815 47.21859409 51.51138261 57.14033441 51.375 69.4375 C51.38660156 70.47970703 51.39820313 71.52191406 51.41015625 72.59570312 C51.37096155 83.13254597 49.19512649 92.77438947 44.3125 102.125 C43.79248413 103.14001587 43.79248413 103.14001587 43.26196289 104.17553711 C40.16624167 110.03108018 36.47356833 115.10817122 32 120 C31.44828125 120.63164062 30.8965625 121.26328125 30.328125 121.9140625 C17.89906816 135.34928109 -1.6987123 142.77187606 -19.77758789 143.4753418 C-40.02334662 143.69382899 -59.13214539 135.56028135 -73.57763672 121.47509766 C-88.27623843 106.23154264 -94.81050651 87.19522802 -94.52099609 66.31982422 C-94.22895695 58.34142148 -93.06110025 51.43410061 -90 44 C-89.525625 42.845 -89.05125 41.69 -88.5625 40.5 C-79.72543541 21.12643532 -63.79791961 7.63678023 -44.1328125 -0.1328125 C-30.13410956 -4.62460815 -13.89499636 -4.57586226 0 0 Z " fill="#023720" transform="translate(314,237)"/>
<path d="M0 0 C5.98703823 4.32770928 11.09531247 8.94760787 15.56640625 14.82421875 C16.1490625 15.56027344 16.73171875 16.29632813 17.33203125 17.0546875 C28.28780605 31.65444826 33.1041254 49.68328875 31.56640625 67.82421875 C28.27476654 88.45659809 18.69903706 107.03097254 1.76733398 119.6081543 C-4.55400872 124.05880908 -11.12798077 127.33758775 -18.43359375 129.82421875 C-19.14636475 130.08243408 -19.85913574 130.34064941 -20.59350586 130.60668945 C-27.32608533 132.87601506 -33.54571011 133.33015341 -40.62109375 133.26171875 C-41.72026123 133.25414551 -42.81942871 133.24657227 -43.9519043 133.23876953 C-61.19248259 132.89114142 -76.41809261 127.29872249 -89.43359375 115.82421875 C-90.17222656 115.1796875 -90.91085938 114.53515625 -91.671875 113.87109375 C-102.11170814 104.13446181 -108.49821814 92.44921667 -112.43359375 78.82421875 C-112.67851563 78.00953125 -112.9234375 77.19484375 -113.17578125 76.35546875 C-117.40525417 59.43757707 -114.32667739 40.81310729 -106.12890625 25.6328125 C-95.13916193 7.4263006 -80.05274482 -5.12864643 -59.3684082 -10.7355957 C-39.34754394 -15.63151808 -17.1460194 -11.3088636 0 0 Z " fill="#023720" transform="translate(114.43359375,246.17578125)"/>
<path d="M0 0 C11.08430092 9.25954079 17.20970336 20.99364962 21.80859375 34.55859375 C22.15921875 35.57050781 22.50984375 36.58242187 22.87109375 37.625 C30.01415976 59.97684407 26.71967338 88.38201655 16.43359375 109.36328125 C15.0019899 111.86080753 13.4665514 114.2058729 11.80859375 116.55859375 C11.2465625 117.38875 10.68453125 118.21890625 10.10546875 119.07421875 C1.00143938 131.54444385 -12.7102789 138.84073884 -27.59765625 142.0234375 C-44.32252278 144.51398828 -61.3971658 142.10902954 -75.796875 132.890625 C-78.03562401 131.20674666 -80.11870334 129.44213737 -82.19140625 127.55859375 C-82.86558594 126.9759375 -83.53976562 126.39328125 -84.234375 125.79296875 C-99.67377208 111.5779726 -105.20419146 91.23308501 -106.33544922 70.97973633 C-106.93806713 54.4982927 -105.4864783 38.58695773 -98.19140625 23.55859375 C-97.79566406 22.69363281 -97.39992188 21.82867187 -96.9921875 20.9375 C-88.94108076 4.67380301 -75.20382142 -5.68819848 -58.19140625 -11.44140625 C-38.14080901 -17.06142767 -16.32535096 -12.85165965 0 0 Z " fill="#FDFEFD" transform="translate(1657.19140625,168.44140625)"/>
<path d="M0 0 C14.19 0 28.38 0 43 0 C43 121.44 43 242.88 43 368 C28.81 368 14.62 368 0 368 C0 246.56 0 125.12 0 0 Z " fill="#013620" transform="translate(2654,0)"/>
<path d="M0 0 C12.54 0 25.08 0 38 0 C38.34933594 2.73152344 38.69867187 5.46304688 39.05859375 8.27734375 C39.398472 10.91183626 39.73981312 13.54613535 40.08129883 16.18041992 C40.31850946 18.01648547 40.55419003 19.85274935 40.78833008 21.68920898 C41.12442896 24.32328627 41.46595824 26.95660981 41.80859375 29.58984375 C41.91280136 30.41588608 42.01700897 31.24192841 42.12437439 32.09300232 C42.30942404 35.86067726 42.30942404 35.86067726 44 39 C44.43570313 38.35933594 44.87140625 37.71867187 45.3203125 37.05859375 C58.98661832 17.20991149 76.48946241 6.50356848 100.11328125 1.31640625 C111.95622696 -0.78033017 124.02447754 -0.12876906 136 0 C136 13.86 136 27.72 136 42 C121.4375 42.3125 121.4375 42.3125 116.94702148 42.38793945 C104.84635668 42.71602001 92.53403985 43.78893909 81.6875 49.625 C81.02435791 49.97127441 80.36121582 50.31754883 79.67797852 50.67431641 C63.6966767 59.36805124 54.06437739 74.79751228 48.7421875 91.83984375 C45.08302533 104.9721702 43.70084282 117.80439453 43.68115234 131.42895508 C43.67182908 132.92839585 43.66165695 134.42783155 43.65071106 135.92726135 C43.62366683 139.95527801 43.60833858 143.98326022 43.59528303 148.01134324 C43.57953915 152.23674309 43.55278551 156.46207371 43.5272522 160.68742371 C43.48066206 168.66972352 43.44382299 176.65203664 43.41057932 184.63440198 C43.37221736 193.73009944 43.32284458 202.82572703 43.27259517 211.92136538 C43.16956965 230.61419817 43.0816677 249.30706086 43 268 C28.81 268 14.62 268 0 268 C0 179.56 0 91.12 0 0 Z " fill="#023720" transform="translate(2489,100)"/>
<path d="M0 0 C1.44802002 0.00737183 1.44802002 0.00737183 2.92529297 0.01489258 C21.79012291 0.32221437 40.07889304 6.58301017 53.5 20.25 C67.98086299 37.01367419 69.3125 55.06388134 69.3125 77.3125 C34.6625 77.3125 0.0125 77.3125 -35.6875 77.3125 C-31.38486914 97.62448963 -31.38486914 97.62448963 -17.6875 112.3125 C-7.02829602 117.87572838 4.47044607 119.24180859 16.16015625 116.12890625 C23.3922727 113.38568967 30.28238807 109.06701781 34.3125 102.3125 C35.3025 99.6725 36.2925 97.0325 37.3125 94.3125 C47.2125 94.3125 57.1125 94.3125 67.3125 94.3125 C63.28156356 110.43624575 56.94189117 122.39057506 43.00390625 131.7109375 C38.61470663 134.32279794 34.03241876 136.37668079 29.3125 138.3125 C28.50425781 138.66699219 27.69601562 139.02148438 26.86328125 139.38671875 C20.15740549 141.82055115 13.22950955 141.49582819 6.1875 141.5 C5.12273437 141.51224609 4.05796875 141.52449219 2.9609375 141.53710938 C-16.27982066 141.57213503 -33.39267887 135.76565438 -47.59765625 122.484375 C-62.47798905 107.01995438 -66.10954564 87.69201174 -66.05444336 66.97021484 C-65.68700829 49.30163108 -59.80930063 31.39686353 -47.2265625 18.5546875 C-33.54180677 6.46999551 -18.31183284 -0.11077647 0 0 Z " fill="#033721" transform="translate(1673.6875,472.6875)"/>
<path d="M0 0 C11.89080112 10.8746457 16.50292636 25.28074642 18.41796875 40.8828125 C18.54850177 43.81083636 18.54485887 46.73329177 18.53149414 49.66381836 C18.53164017 50.51340118 18.53178619 51.36298401 18.53193665 52.23831177 C18.53124429 55.02478661 18.52348382 57.8111932 18.515625 60.59765625 C18.51375841 62.53821272 18.51233564 64.47876967 18.51133728 66.41932678 C18.50753108 71.51068437 18.49771707 76.60201313 18.4866333 81.69335938 C18.47637831 86.89517833 18.47183092 92.09700196 18.46679688 97.29882812 C18.45609302 107.49350424 18.43851167 117.68815146 18.41796875 127.8828125 C8.51796875 127.8828125 -1.38203125 127.8828125 -11.58203125 127.8828125 C-11.59137695 125.31016602 -11.60072266 122.73751953 -11.61035156 120.08691406 C-11.64424757 111.54926083 -11.69986615 103.0118461 -11.76593399 94.47438431 C-11.80530016 89.30240941 -11.83754169 84.130602 -11.85302734 78.95849609 C-11.86826573 73.9591664 -11.90283761 68.96029753 -11.95034027 63.96117401 C-11.96508037 62.06202977 -11.97306799 60.16281972 -11.9739151 58.26361847 C-11.98543729 45.37414534 -12.24526171 33.00997619 -20.88671875 22.56640625 C-27.83847352 15.66270508 -35.80818229 13.84301169 -45.33203125 13.4453125 C-53.73988113 13.57161067 -61.1309456 16.11874778 -67.95703125 21.0703125 C-77.03857829 30.80054147 -80.68428088 42.71938563 -80.78735352 55.79418945 C-80.80220291 56.96571312 -80.80220291 56.96571312 -80.81735229 58.16090393 C-80.84882692 60.73093684 -80.87366895 63.3009882 -80.8984375 65.87109375 C-80.91901916 67.65757211 -80.94001595 69.44404572 -80.96141052 71.23051453 C-81.016506 75.92400263 -81.06597034 80.61753377 -81.11425781 85.31109619 C-81.16456447 90.10392063 -81.22020263 94.89668285 -81.27539062 99.68945312 C-81.38281897 109.08718833 -81.48380484 118.48497661 -81.58203125 127.8828125 C-91.15203125 127.8828125 -100.72203125 127.8828125 -110.58203125 127.8828125 C-110.58203125 82.3428125 -110.58203125 36.8028125 -110.58203125 -10.1171875 C-102.00203125 -10.1171875 -93.42203125 -10.1171875 -84.58203125 -10.1171875 C-82.33203125 1.1328125 -82.33203125 1.1328125 -82.58203125 6.8828125 C-81.98390625 6.2228125 -81.38578125 5.5628125 -80.76953125 4.8828125 C-59.59536488 -16.17138692 -23.42619058 -19.20876746 0 0 Z " fill="#043721" transform="translate(910.58203125,485.1171875)"/>
<path d="M0 0 C9.57 0 19.14 0 29 0 C29 45.87 29 91.74 29 139 C20.42 139 11.84 139 3 139 C2.01 133.72 1.02 128.44 0 123 C-0.969375 123.86625 -1.93875 124.7325 -2.9375 125.625 C-10.40686536 131.97171526 -17.65022368 136.01113708 -27 139 C-27.99 139.33 -28.98 139.66 -30 140 C-34.14083388 140.28891392 -38.28773159 140.2779378 -42.4375 140.3125 C-43.56349609 140.34150391 -44.68949219 140.37050781 -45.84960938 140.40039062 C-59.39325458 140.50163697 -71.75072296 136.04910884 -81.75 126.75 C-88.66132927 119.31828829 -92.28160555 110.66265663 -95 101 C-95.34304169 99.80991333 -95.68608337 98.61982666 -96.03952026 97.39367676 C-97.18074483 92.77905116 -97.26798963 88.3805975 -97.22705078 83.64648438 C-97.22734283 82.74798767 -97.22763489 81.84949097 -97.22793579 80.92376709 C-97.22655239 77.98032674 -97.2110381 75.03714564 -97.1953125 72.09375 C-97.19157885 70.04252257 -97.18873354 67.99129334 -97.18673706 65.94006348 C-97.17912834 60.56098441 -97.15950369 55.18201463 -97.1373291 49.80297852 C-97.11681103 44.30616738 -97.10772262 38.80933846 -97.09765625 33.3125 C-97.07625508 22.54161111 -97.04109557 11.77083177 -97 1 C-87.43 1 -77.86 1 -68 1 C-67.9906543 3.50682373 -67.98130859 6.01364746 -67.97167969 8.59643555 C-67.93775948 16.92254137 -67.88212786 25.24840326 -67.81609726 33.57431316 C-67.77675772 38.61734416 -67.74450333 43.66020406 -67.72900391 48.70336914 C-67.71374771 53.57951506 -67.67914521 58.4551902 -67.63169098 63.33112526 C-67.61696898 65.18199358 -67.60896432 67.03292915 -67.60811615 68.88385582 C-67.59559209 82.52295848 -67.33151785 96.43148055 -57.21484375 106.8359375 C-49.80203503 113.83454303 -42.62950957 114.41306814 -32.66015625 114.24609375 C-24.38032613 113.68939226 -17.98285327 110.78047346 -12 105 C-0.56685633 91.45449723 -0.85592273 75.25163333 -0.68359375 58.49609375 C-0.66298947 56.80501335 -0.64199217 55.1139377 -0.62062073 53.42286682 C-0.56575841 48.99905268 -0.51619302 44.57519487 -0.46777344 40.15130615 C-0.41729458 35.62622244 -0.36174706 31.10120117 -0.30664062 26.57617188 C-0.19949828 17.71749957 -0.0984273 8.85877343 0 0 Z " fill="#033721" transform="translate(1456,474)"/>
<path d="M0 0 C1.1034375 -0.00773437 2.206875 -0.01546875 3.34375 -0.0234375 C13.84259906 0.00120769 23.83304467 0.99128998 33.4375 5.4375 C34.11675537 5.74647217 34.79601074 6.05544434 35.49584961 6.3737793 C46.19391785 11.41154808 54.15736664 18.39031937 58.5703125 29.60546875 C60.23282802 34.74996609 61.25 38.80004493 61.25 44.25 C52.01 44.25 42.77 44.25 33.25 44.25 C31.93 41.28 30.61 38.31 29.25 35.25 C25.47940385 28.86899113 18.27184408 25.98635326 11.375 23.9375 C1.03638561 21.76972602 -8.85897502 23.0863014 -18.125 28.0625 C-21.71643786 31.05536488 -24.26075115 33.70316251 -25.16796875 38.42578125 C-25.42935922 42.62922254 -24.95089466 44.88838961 -22.875 48.625 C-16.26899343 55.27303963 -4.25664737 55.16929888 4.56643677 56.3269043 C37.9576235 60.7585557 37.9576235 60.7585557 50.25 69.25 C51.301875 69.971875 52.35375 70.69375 53.4375 71.4375 C60.91219803 78.91219803 63.48957692 86.47438959 63.5625 96.75 C63.5419258 109.59629918 61.10167244 117.39589582 51.9609375 126.8046875 C38.8138342 138.663602 22.8149946 141.64956091 5.6875 141.625 C5.02114532 141.62412384 4.35479065 141.62324768 3.66824341 141.62234497 C-15.06450407 141.54100959 -31.75753067 137.79833318 -45.81640625 124.41015625 C-53.81343619 115.47610058 -56.75 106.06293594 -56.75 94.25 C-47.51 94.25 -38.27 94.25 -28.75 94.25 C-27.76 97.22 -26.77 100.19 -25.75 103.25 C-22.09896417 110.4116472 -15.61503582 114.45709927 -8.1875 117.125 C3.86953246 120.28503347 16.83145121 119.0231693 27.6875 112.9375 C31.22098198 110.53901526 32.94459569 108.41097624 34.25 104.25 C34.99501401 98.93911442 34.4744151 94.68357076 31.25 90.25 C25.51324227 86.32437901 19.18364663 85.21574423 12.4375 84.1875 C11.43283691 84.0225 10.42817383 83.8575 9.39306641 83.6875 C4.59518378 82.9056565 -0.20988819 82.17809503 -5.01953125 81.47265625 C-22.28885722 78.92189411 -39.04828115 75.66032056 -50.2890625 61.28125 C-55.86550401 52.43371151 -55.14857686 39.98784967 -53.0859375 30.05078125 C-52.18673738 27.56038788 -51.15802339 25.48946747 -49.75 23.25 C-49.02103516 22.08984375 -49.02103516 22.08984375 -48.27734375 20.90625 C-40.47716796 9.84217086 -28.06758789 3.73410546 -15.11962891 0.63598633 C-10.11356504 -0.17944608 -5.05844087 -0.03496618 0 0 Z " fill="#043722" transform="translate(1012.75,472.75)"/>
<path d="M0 0 C6.87235424 5.62283529 12.00152238 12.23766402 12.97344208 21.34338379 C13.34308027 27.57799622 13.25962448 33.82002379 13.2109375 40.0625 C13.20855033 42.08365766 13.20764833 44.10481756 13.2081604 46.12597656 C13.2050455 50.3421028 13.18857155 54.55788581 13.16162109 58.77392578 C13.12746815 64.18573615 13.11999816 69.59717342 13.12151146 75.00907898 C13.12096889 79.17311176 13.11002278 83.33706254 13.09550858 87.50106812 C13.08913593 89.49782695 13.08520059 91.49459507 13.08372116 93.49136353 C13.07940299 96.27044705 13.06193944 99.04912756 13.04052734 101.828125 C13.04143372 102.6561412 13.04234009 103.48415741 13.04327393 104.33726501 C12.97897256 110.02102744 12.97897256 110.02102744 10.75 112.25 C7.96591187 112.49050903 7.96591187 112.49050903 4.37255859 112.47705078 C3.71877731 112.47734283 3.06499603 112.47763489 2.3914032 112.47793579 C0.22694704 112.47654065 -1.93716636 112.4609712 -4.1015625 112.4453125 C-5.60085868 112.44158302 -7.1001573 112.43873574 -8.59945679 112.43673706 C-12.54836743 112.42909548 -16.49713129 112.4094426 -20.44598389 112.3873291 C-24.47438572 112.3668819 -28.50281124 112.35773776 -32.53125 112.34765625 C-40.43756741 112.32619711 -48.34376545 112.29205495 -56.25 112.25 C-55.92 111.26 -55.59 110.27 -55.25 109.25 C-55.18433258 106.62489973 -55.17598809 104.028562 -55.21582031 101.40478516 C-55.22370575 100.60592896 -55.23159119 99.80707275 -55.23971558 98.98400879 C-55.2569214 97.24721934 -55.27613144 95.51044886 -55.29709625 93.77370071 C-55.33916122 90.06641411 -55.36264396 86.35908514 -55.38712692 82.65164757 C-55.43278019 75.75240769 -55.48526691 68.85344522 -55.57226562 61.95458984 C-55.63209593 57.15300698 -55.66675061 52.3517891 -55.68544769 47.54987717 C-55.69710289 45.7295865 -55.71777524 43.90932809 -55.74808502 42.08925247 C-55.97432831 28.13693006 -54.67011007 16.34861327 -45.2734375 5.1875 C-32.79804753 -6.75804716 -14.9283251 -8.0383289 0 0 Z " fill="#FEFEFE" transform="translate(885.25,502.75)"/>
<path d="M0 0 C9.57 0 19.14 0 29 0 C29 12.87 29 25.74 29 39 C39.89 39 50.78 39 62 39 C62 47.25 62 55.5 62 64 C51.11 64 40.22 64 29 64 C29.04035089 74.19694788 29.09745768 84.39342644 29.18390274 94.5900898 C29.22337818 99.32504774 29.25556632 104.05981968 29.27099609 108.79492188 C29.28616227 113.36631362 29.320607 117.93719404 29.36830902 122.508358 C29.38312324 124.25057399 29.39104104 125.99286299 29.39188385 127.73514175 C29.3942552 130.17961105 29.42134639 132.62266919 29.45410156 135.06689453 C29.4490712 135.78403122 29.44404083 136.50116791 29.43885803 137.24003601 C29.54248881 142.25268247 30.85203192 145.13568241 34 149 C36.89924366 150.44962183 39.52300355 150.22126481 42.7578125 150.31640625 C43.75238968 150.3475779 43.75238968 150.3475779 44.76705933 150.37937927 C46.88626694 150.44479231 49.005599 150.50372105 51.125 150.5625 C52.56121081 150.60569309 53.99740902 150.64930764 55.43359375 150.69335938 C58.95560344 150.80125909 62.47770688 150.90039243 66 151 C66 159.58 66 168.16 66 177 C61.07422044 177.04625145 56.14921345 177.08597239 51.22338867 177.10986328 C49.55246407 177.11983703 47.88155653 177.1334209 46.21069336 177.15087891 C19.23543823 177.42539512 19.23543823 177.42539512 9.09375 168.28125 C-1.23085587 157.60665749 -0.54889763 144.76573678 -0.390625 130.89453125 C-0.38315191 128.95969735 -0.37746403 127.02485581 -0.37347412 125.0900116 C-0.35830182 120.03138832 -0.31909369 114.97323448 -0.2746582 109.91479492 C-0.2335229 104.73948514 -0.21542433 99.5640985 -0.1953125 94.38867188 C-0.15259015 84.2588766 -0.08231032 74.12955103 0 64 C-7.92 64 -15.84 64 -24 64 C-24 55.75 -24 47.5 -24 39 C-16.08 39 -8.16 39 0 39 C0 26.13 0 13.26 0 0 Z " fill="#023721" transform="translate(1115,436)"/>
<path d="M0 0 C9.57 0 19.14 0 29 0 C29 12.87 29 25.74 29 39 C39.89 39 50.78 39 62 39 C62 47.25 62 55.5 62 64 C51.11 64 40.22 64 29 64 C29.06296349 74.06650508 29.1384121 84.13270548 29.23571491 94.19893837 C29.28040231 98.87333063 29.31966204 103.54763606 29.34643555 108.22216797 C29.37248479 112.73513922 29.41289867 117.24777604 29.46318626 121.76054001 C29.47984402 123.48043018 29.4913651 125.20037819 29.49761391 126.92033768 C29.50726699 129.3334771 29.53533972 131.74576308 29.56762695 134.15869141 C29.56619186 134.86647736 29.56475677 135.57426331 29.5632782 136.30349731 C29.65019326 140.91020523 30.54296924 144.10107438 33 148 C36.63256018 150.42170679 38.52578695 150.3044503 42.85546875 150.4140625 C43.51710526 150.43342865 44.17874176 150.4527948 44.86042786 150.4727478 C46.96932164 150.53242687 49.07827037 150.57888087 51.1875 150.625 C52.61916415 150.66319066 54.05080559 150.70224303 55.48242188 150.7421875 C58.98816165 150.83973852 62.49366577 150.91939462 66 151 C66 159.58 66 168.16 66 177 C60.66463196 177.09252083 55.33211729 177.1719428 49.99658203 177.21972656 C48.18691506 177.23967311 46.37731111 177.26684053 44.56787109 177.30175781 C19.09560157 177.78050694 19.09560157 177.78050694 9.5 168.875 C2.41713926 161.97404259 0.17842531 153.80211655 -0.12025452 144.08950806 C-0.12312648 142.59564317 -0.12055625 141.10176126 -0.11352539 139.60791016 C-0.11367142 138.78773407 -0.11381744 137.96755798 -0.1139679 137.12252808 C-0.11327462 134.42801208 -0.10550972 131.73356633 -0.09765625 129.0390625 C-0.09578999 127.16433754 -0.09436707 125.2896121 -0.09336853 123.41488647 C-0.08955973 118.49284507 -0.07974346 113.57083341 -0.06866455 108.64880371 C-0.05841519 103.62134198 -0.05386337 98.59387543 -0.04882812 93.56640625 C-0.03811968 83.71092236 -0.02053617 73.85546831 0 64 C-7.92 64 -15.84 64 -24 64 C-24 55.75 -24 47.5 -24 39 C-16.08 39 -8.16 39 0 39 C0 26.13 0 13.26 0 0 Z " fill="#023620" transform="translate(1274,436)"/>
<path d="M0 0 C9.57 0 19.14 0 29 0 C29 12.87 29 25.74 29 39 C39.89 39 50.78 39 62 39 C62 47.25 62 55.5 62 64 C51.11 64 40.22 64 29 64 C29.06300005 73.91885269 29.13847977 83.83739743 29.23571491 93.75597477 C29.28037451 98.36195679 29.3196403 102.96785127 29.34643555 107.57397461 C29.37251261 112.02211377 29.412946 116.46991522 29.46318626 120.91784477 C29.47982526 122.61178818 29.49135798 124.30578997 29.49761391 125.99980354 C29.50728752 128.37921376 29.53538437 130.75776578 29.56762695 133.13696289 C29.56619186 133.83180283 29.56475677 134.52664276 29.5632782 135.24253845 C29.65865405 140.24414018 30.6913923 143.64332264 33 148 C36.63256018 150.42170679 38.52578695 150.3044503 42.85546875 150.4140625 C43.51710526 150.43342865 44.17874176 150.4527948 44.86042786 150.4727478 C46.96932164 150.53242687 49.07827037 150.57888087 51.1875 150.625 C52.61916415 150.66319066 54.05080559 150.70224303 55.48242188 150.7421875 C58.98816165 150.83973852 62.49366577 150.91939462 66 151 C66 159.58 66 168.16 66 177 C60.89519517 177.04615092 55.79112725 177.08590361 50.6862793 177.10986328 C48.95318129 177.11986161 47.2200999 177.13346473 45.48706055 177.15087891 C42.98221716 177.17540084 40.47759864 177.18654496 37.97265625 177.1953125 C37.20977798 177.20563507 36.44689972 177.21595764 35.66090393 177.22659302 C26.31409508 177.22850083 16.90817454 175.47561959 9.828125 169.01953125 C1.59012217 160.28544431 -0.16912128 151.4204006 -0.11352539 139.60791016 C-0.11367142 138.78773407 -0.11381744 137.96755798 -0.1139679 137.12252808 C-0.11327462 134.42801208 -0.10550972 131.73356633 -0.09765625 129.0390625 C-0.09578999 127.16433754 -0.09436707 125.2896121 -0.09336853 123.41488647 C-0.08955973 118.49284507 -0.07974346 113.57083341 -0.06866455 108.64880371 C-0.05841519 103.62134198 -0.05386337 98.59387543 -0.04882812 93.56640625 C-0.03811968 83.71092236 -0.02053617 73.85546831 0 64 C-7.92 64 -15.84 64 -24 64 C-24 55.75 -24 47.5 -24 39 C-16.08 39 -8.16 39 0 39 C0 26.13 0 13.26 0 0 Z " fill="#023620" transform="translate(1529,436)"/>
<path d="M0 0 C10.23 0 20.46 0 31 0 C31 62.37 31 124.74 31 189 C20.77 189 10.54 189 0 189 C0 126.63 0 64.26 0 0 Z " fill="#023721" transform="translate(732,424)"/>
<path d="M0 0 C10.03469771 8.12915407 16.91011543 20.59897129 19.3046875 33.19140625 C19.3046875 35.17140625 19.3046875 37.15140625 19.3046875 39.19140625 C-20.9553125 39.19140625 -61.2153125 39.19140625 -102.6953125 39.19140625 C-100.85758817 24.48961164 -94.60875532 9.6347224 -82.6953125 0.19140625 C-57.29679801 -17.80915167 -25.68607827 -17.23573078 0 0 Z " fill="#FAFBFB" transform="translate(1361.6953125,162.80859375)"/>
<path d="M0 0 C9.57 0 19.14 0 29 0 C29 45.87 29 91.74 29 139 C19.43 139 9.86 139 0 139 C0 93.13 0 47.26 0 0 Z " fill="#053822" transform="translate(1202,474)"/>
<path d="M0 0 C2.19140625 1.12109375 2.19140625 1.12109375 4.1875 2.375 C4.89777344 2.79910156 5.60804687 3.22320312 6.33984375 3.66015625 C14.28713864 8.97315227 19.16378638 17.09076996 21.1875 26.375 C21.1875 27.695 21.1875 29.015 21.1875 30.375 C-3.5625 30.375 -28.3125 30.375 -53.8125 30.375 C-51.40760863 18.35054314 -47.93600491 10.48983709 -37.8125 3.375 C-27.10031291 -2.91050512 -11.79439509 -4.46925978 0 0 Z " fill="#F6F9F8" transform="translate(1692.8125,498.625)"/>
<path d="M0 0 C3.88109735 3.15823222 6.39204862 6.36108958 7 11.4140625 C7.19607329 17.24466301 6.27634729 21.68293376 2.76171875 26.43359375 C-3.37517921 31.31806355 -8.61857669 32.07650632 -16.23828125 31.43359375 C-22.22328306 29.40095163 -25.37508948 25.48245301 -28.61328125 20.18359375 C-29.75541726 15.15819532 -29.48602319 10.02061081 -27.2265625 5.3359375 C-24.37081695 1.09285814 -21.24503469 -1.42591356 -16.42578125 -3.25390625 C-9.60053907 -4.22894085 -5.68766654 -3.94449173 0 0 Z " fill="#063823" transform="translate(1227.23828125,422.56640625)"/>
<path d="M0 0 C12.54 0 25.08 0 38 0 C37.67 1.32 37.34 2.64 37 4 C37 3.01 37 2.02 37 1 C25.78 1 14.56 1 3 1 C2.16653443 8.10507251 2.16653443 8.10507251 1.8613348 15.13671207 C1.85586036 16.05334757 1.85038591 16.96998306 1.84474558 17.91439539 C1.84376747 18.89204448 1.84278936 19.86969357 1.84178162 20.87696838 C1.83684364 21.93821472 1.83190566 22.99946105 1.82681805 24.09286636 C1.81152383 27.63035017 1.80310441 31.16781594 1.79467773 34.70532227 C1.78509286 37.24849098 1.77508242 39.79165811 1.76467896 42.33482361 C1.74327444 47.80058321 1.72481755 53.26633999 1.70907402 58.73211861 C1.68630672 66.63459597 1.65817364 74.53704716 1.62875474 82.43950223 C1.58116262 95.26247232 1.5378759 108.08545315 1.49731445 120.90844727 C1.45791678 133.3606042 1.4164804 145.81275161 1.37231445 158.26489258 C1.36959018 159.03317293 1.36686591 159.80145327 1.36405908 160.59301484 C1.3503789 164.44746964 1.33665877 168.30192429 1.32291877 172.15637887 C1.20908573 204.10423289 1.10224743 236.05210672 1 268 C0.67 268 0.34 268 0 268 C0 179.56 0 91.12 0 0 Z " fill="#17372A" transform="translate(2489,100)"/>
<path d="M0 0 C0.66 0.33 1.32 0.66 2 1 C2.47597366 3.70599842 2.84093629 6.33595404 3.125 9.0625 C3.21136719 9.82111328 3.29773437 10.57972656 3.38671875 11.36132812 C3.59939517 13.23996986 3.80075459 15.11988636 4 17 C5.65 17 7.3 17 9 17 C9 17.66 9 18.32 9 19 C-10.47 19 -29.94 19 -50 19 C-50 18.67 -50 18.34 -50 18 C-49.42668945 17.9906543 -48.85337891 17.98130859 -48.26269531 17.97167969 C-31.02002774 17.6189416 -15.72009183 15.86712516 -2.875 3.125 C-1.90588252 2.09335881 -0.94307807 1.05549797 0 0 Z " fill="#F9FBFA" transform="translate(1455,596)"/>
<path d="M0 0 C0.99 0.33 1.98 0.66 3 1 C2.67 1.86625 2.34 2.7325 2 3.625 C0.85795584 6.89272706 0.85795584 6.89272706 1 10 C1 13.41212372 0.07633345 15.77099964 -1 19 C-2.03486158 26.50274643 -2.30715418 33.99840345 -2.5625 41.5625 C-2.60568359 42.76197266 -2.64886719 43.96144531 -2.69335938 45.19726562 C-2.79856802 48.13141793 -2.90070883 51.0656425 -3 54 C-3.33 54 -3.66 54 -4 54 C-4.40585698 35.9820314 -4.62602308 17.57390006 0 0 Z " fill="#395C4E" transform="translate(2740,195)"/>
<path d="M0 0 C-0.98242188 1.97119141 -0.98242188 1.97119141 -3 4 C-5.89002469 4.38056837 -8.39387975 4.51383481 -11.28125 4.4609375 C-12.0911438 4.46002106 -12.9010376 4.45910461 -13.73547363 4.4581604 C-15.44691838 4.45212141 -17.15835241 4.43636631 -18.86962891 4.41162109 C-21.49030469 4.37513498 -24.10956562 4.37060156 -26.73046875 4.37109375 C-28.39324139 4.36126161 -30.05600445 4.34960418 -31.71875 4.3359375 C-32.89540222 4.33259903 -32.89540222 4.33259903 -34.0958252 4.32919312 C-37.91167682 4.26257398 -39.75132592 4.16578272 -43 2 C-41.74509766 2.01571045 -41.74509766 2.01571045 -40.46484375 2.03173828 C-37.3263452 2.06606018 -34.18794313 2.09101493 -31.04931641 2.10986328 C-29.03671881 2.12472879 -27.02420812 2.150157 -25.01171875 2.17578125 C-17.95929011 2.21122059 -6.00519029 -2.0017301 0 0 Z " fill="#C9DBD3" transform="translate(1706,611)"/>
<path d="M0 0 C1.98 0 3.96 0 6 0 C5.2884375 0.556875 5.2884375 0.556875 4.5625 1.125 C0.23994966 6.3120604 1.94820488 15.72862354 2.0390625 22.125 C2.08575509 27.52577658 1.80088023 32.65662723 1 38 C0.67 38 0.34 38 0 38 C0 25.46 0 12.92 0 0 Z " fill="#0C3022" transform="translate(1529,436)"/>
<path d="M0 0 C1.15837626 4.05431692 0.83691257 6.21812119 -1 10 C-3.64 8.02 -6.28 6.04 -9 4 C-7.68 3.34 -6.36 2.68 -5 2 C-2 0 -2 0 0 0 Z " fill="#0E3C29" transform="translate(2238,337)"/>
<path d="M0 0 C0 0.66 0 1.32 0 2 C-4.01535068 3.90079664 -7.18996591 4.23570807 -11.61328125 4.1953125 C-12.86044922 4.18886719 -14.10761719 4.18242188 -15.39257812 4.17578125 C-16.68615234 4.15902344 -17.97972656 4.14226563 -19.3125 4.125 C-20.62541016 4.11597656 -21.93832031 4.10695313 -23.29101562 4.09765625 C-26.52752913 4.07411797 -29.76367149 4.0412352 -33 4 C-33 3.67 -33 3.34 -33 3 C-32.38068604 2.98018066 -31.76137207 2.96036133 -31.12329102 2.93994141 C-28.26932611 2.84364769 -25.41599143 2.73439903 -22.5625 2.625 C-21.58861328 2.5940625 -20.61472656 2.563125 -19.61132812 2.53125 C-14.1490785 2.31202928 -9.06089057 1.76414679 -3.75756836 0.41552734 C-2 0 -2 0 0 0 Z " fill="#C2D6CE" transform="translate(1044,611)"/>
<path d="M0 0 C0 0.99 0 1.98 0 3 C-0.66 3 -1.32 3 -2 3 C-2.35964844 3.89138672 -2.35964844 3.89138672 -2.7265625 4.80078125 C-4.26136177 7.45137018 -5.81345082 8.53227968 -8.375 10.1875 C-9.14585938 10.69667969 -9.91671875 11.20585938 -10.7109375 11.73046875 C-12.84686971 12.91507279 -14.61440116 13.54793447 -17 14 C-13.46843481 10.31118515 -9.81465908 7.22617756 -5.6875 4.1875 C-5.13771484 3.78080078 -4.58792969 3.37410156 -4.02148438 2.95507812 C-2.68374453 1.96631389 -1.34226377 0.98261415 0 0 Z " fill="#173E2E" transform="translate(1239,115)"/>
<path d="M0 0 C1 3 1 3 0.28515625 4.796875 C-4.00002532 11.64221297 -9.5689905 16.23045398 -16 21 C-16.66 20.67 -17.32 20.34 -18 20 C-17.20335937 19.31035156 -16.40671875 18.62070312 -15.5859375 17.91015625 C-9.39644806 12.45486429 -4.09531685 7.27457598 0 0 Z " fill="#E1F0EB" transform="translate(463,581)"/>
<path d="M0 0 C-0.99 1.485 -0.99 1.485 -2 3 C-4.79736328 3.34057617 -4.79736328 3.34057617 -8.3203125 3.29296875 C-9.57714844 3.28330078 -10.83398438 3.27363281 -12.12890625 3.26367188 C-13.44761719 3.23853516 -14.76632812 3.21339844 -16.125 3.1875 C-17.46482903 3.17245483 -18.80467404 3.15876613 -20.14453125 3.14648438 C-23.43008842 3.11102872 -26.71484582 3.06160849 -30 3 C-30 2.67 -30 2.34 -30 2 C-29.37955811 1.97494385 -28.75911621 1.9498877 -28.11987305 1.92407227 C-25.30887603 1.80803279 -22.49820759 1.68534241 -19.6875 1.5625 C-18.22280273 1.50352539 -18.22280273 1.50352539 -16.72851562 1.44335938 C-15.79072266 1.40146484 -14.85292969 1.35957031 -13.88671875 1.31640625 C-12.59060669 1.26141968 -12.59060669 1.26141968 -11.26831055 1.20532227 C-7.34282995 0.84999677 -4.05002877 -0.09000064 0 0 Z " fill="#C3D7CF" transform="translate(1435,612)"/>
<path d="M0 0 C0 3.79867527 -1.11131336 4.68564922 -3.5 7.5625 C-6.18349125 10.42470422 -6.18349125 10.42470422 -7 14 C-8.98 14.99 -8.98 14.99 -11 16 C-9.66534338 12.22959506 -7.99723337 9.42875097 -5.5 6.3125 C-4.8915625 5.54550781 -4.283125 4.77851563 -3.65625 3.98828125 C-2 2 -2 2 0 0 Z M-12 16 C-11.67 17.32 -11.34 18.64 -11 20 C-12.98 20.99 -12.98 20.99 -15 22 C-14.01 20.02 -13.02 18.04 -12 16 Z " fill="#DCECE6" transform="translate(2807,160)"/>
<path d="M0 0 C0.495 1.98 0.495 1.98 1 4 C-9.89 4 -20.78 4 -32 4 C-32 3.34 -32 2.68 -32 2 C-31.10168457 2.01047363 -30.20336914 2.02094727 -29.27783203 2.03173828 C-25.94935553 2.0657947 -22.62106378 2.09088618 -19.29248047 2.10986328 C-17.85104453 2.11992963 -16.40962905 2.1335838 -14.96826172 2.15087891 C-12.89806066 2.17510012 -10.82812924 2.18647641 -8.7578125 2.1953125 C-7.5114502 2.20578613 -6.26508789 2.21625977 -4.98095703 2.22705078 C-1.88228369 2.31652492 -1.88228369 2.31652492 0 0 Z " fill="#0B3122" transform="translate(1176,496)"/>
<path d="M0 0 C0.66 0 1.32 0 2 0 C2 0.66 2 1.32 2 2 C2.66 2 3.32 2 4 2 C3.01 4.97 2.02 7.94 1 11 C-0.32 11 -1.64 11 -3 11 C-2.34 10.67 -1.68 10.34 -1 10 C-1.309375 8.9171875 -1.309375 8.9171875 -1.625 7.8125 C-2.05952211 4.55358415 -1.41680669 2.91695496 0 0 Z " fill="#0D3B29" transform="translate(228,138)"/>
<path d="M0 0 C2.64 0 5.28 0 8 0 C8 0.33 8 0.66 8 1 C6.35 1 4.7 1 3 1 C2.82984375 1.59167969 2.6596875 2.18335938 2.484375 2.79296875 C0.99889662 7.63657645 -0.46859353 11.22504826 -4 15 C-4.66 14.67 -5.32 14.34 -6 14 C-5.73445313 13.49210937 -5.46890625 12.98421875 -5.1953125 12.4609375 C-3.10022511 8.37781098 -1.32380814 4.4126938 0 0 Z " fill="#173C2C" transform="translate(1378,277)"/>
<path d="M0 0 C0.64324219 0.06058594 1.28648437 0.12117188 1.94921875 0.18359375 C9.29416058 0.86465112 16.64413091 1.45035636 24 2 C24 2.66 24 3.32 24 4 C16.08 3.67 8.16 3.34 0 3 C0 2.01 0 1.02 0 0 Z " fill="#0D3122" transform="translate(2297,331)"/>
<path d="M0 0 C0.33 0.66 0.66 1.32 1 2 C1.99 2.33 2.98 2.66 4 3 C7 4 7 4 8 6 C8.66 6 9.32 6 10 6 C10.66 7.65 11.32 9.3 12 11 C7.86218946 11 6.79080004 9.28490393 3.8125 6.5 C2.91144531 5.6646875 2.01039063 4.829375 1.08203125 3.96875 C0.39496094 3.3190625 -0.29210938 2.669375 -1 2 C-0.67 1.34 -0.34 0.68 0 0 Z " fill="#103828" transform="translate(2371,151)"/>
<path d="M0 0 C-5.77874846 3.25711277 -10.37822074 4.69343615 -17 5 C-12.52983658 0.91854644 -5.91668869 -1.99015892 0 0 Z " fill="#274B3C" transform="translate(999,475)"/>
<path d="M0 0 C2.06723714 3.10085571 2.24497423 3.72931681 2.1953125 7.23046875 C2.18886719 8.03291016 2.18242187 8.83535156 2.17578125 9.66210938 C2.15902344 10.49548828 2.14226562 11.32886719 2.125 12.1875 C2.11597656 13.03248047 2.10695313 13.87746094 2.09765625 14.74804688 C2.07410703 16.83215243 2.03823647 18.91611217 2 21 C-0.13933495 17.16597619 -0.07698554 14.38817579 0 10 C-0.2784375 8.700625 -0.2784375 8.700625 -0.5625 7.375 C-1.06631547 4.64000173 -0.68736906 2.67310189 0 0 Z " fill="#183D2F" transform="translate(363,291)"/>
<path d="M0 0 C0.66 0.33 1.32 0.66 2 1 C0.35 6.28 -1.3 11.56 -3 17 C-3.33 17 -3.66 17 -4 17 C-4.05447047 15.58376784 -4.09300508 14.16691809 -4.125 12.75 C-4.14820313 11.96109375 -4.17140625 11.1721875 -4.1953125 10.359375 C-3.9828378 7.79268059 -3.28654105 6.2083933 -2 4 C-1.34 4 -0.68 4 0 4 C0 2.68 0 1.36 0 0 Z " fill="#153B2B" transform="translate(1448,285)"/>
<path d="M0 0 C-5.84930509 3.24961394 -11.4753767 3.12793379 -18 3 C-18 2.67 -18 2.34 -18 2 C-15.75256955 1.46818825 -13.50192898 0.94992874 -11.25 0.4375 C-9.99703125 0.14746094 -8.7440625 -0.14257812 -7.453125 -0.44140625 C-4.40526252 -0.93444283 -2.82358172 -1.07666879 0 0 Z " fill="#294C3E" transform="translate(2346,330)"/>
<path d="M0 0 C1 3 1 3 1 6 C-0.50323933 8.55550687 -1.34974589 9.77705573 -4.1875 10.75 C-5.0846875 10.87375 -5.0846875 10.87375 -6 11 C-4.74194623 6.49197399 -3.09592835 3.5087188 0 0 Z " fill="#18412F" transform="translate(967,491)"/>
<path d="M0 0 C1.31602523 0.61754259 2.62773556 1.24428742 3.9375 1.875 C4.66839844 2.22304688 5.39929687 2.57109375 6.15234375 2.9296875 C8 4 8 4 9 6 C6.69 6.33 4.38 6.66 2 7 C1.34 4.69 0.68 2.38 0 0 Z " fill="#123D2A" transform="translate(1049,480)"/>
<path d="M0 0 C1.03125 0.61875 2.0625 1.2375 3.125 1.875 C6.31472483 3.70698045 9.45888021 4.9635747 13 6 C13 6.66 13 7.32 13 8 C9.2397015 7.41892368 6.46964968 6.34800504 3.1875 4.4375 C2.39730469 3.98246094 1.60710937 3.52742187 0.79296875 3.05859375 C0.20128906 2.70925781 -0.39039063 2.35992188 -1 2 C-0.67 1.34 -0.34 0.68 0 0 Z " fill="#183E2E" transform="translate(365,602)"/>
<path d="M0 0 C1.32 1.65 2.64 3.3 4 5 C3.38125 5.226875 2.7625 5.45375 2.125 5.6875 C-0.61410209 7.37929835 -1.05024472 8.99244161 -2 12 C-2.66 12 -3.32 12 -4 12 C-2.66666667 8 -1.33333333 4 0 0 Z " fill="#1D4635" transform="translate(171,381)"/>
<path d="M0 0 C2.00720923 0.28674418 4.0085944 0.61866701 6 1 C2.83433427 3.11044382 0.48802585 3.75552077 -3.1875 4.625 C-4.27417969 4.88539063 -5.36085938 5.14578125 -6.48046875 5.4140625 C-7.31191406 5.60742188 -8.14335938 5.80078125 -9 6 C-9 5.34 -9 4.68 -9 4 C-8.43410156 3.79503906 -7.86820313 3.59007812 -7.28515625 3.37890625 C-6.55167969 3.10949219 -5.81820313 2.84007812 -5.0625 2.5625 C-4.33160156 2.29566406 -3.60070313 2.02882813 -2.84765625 1.75390625 C-1.01694322 1.14613052 -1.01694322 1.14613052 0 0 Z " fill="#133A2A" transform="translate(1373,361)"/>
<path d="M0 0 C0.33 1.32 0.66 2.64 1 4 C-3.455 7.465 -3.455 7.465 -8 11 C-8.66 10.67 -9.32 10.34 -10 10 C-6.7 6.7 -3.4 3.4 0 0 Z " fill="#224737" transform="translate(980,121)"/>
<path d="M0 0 C0.66 0 1.32 0 2 0 C0.91103333 5.75762166 -0.29336293 11.39247819 -2 17 C-2.33 17 -2.66 17 -3 17 C-3.16823707 12.6258362 -3.09451417 9.81940818 -1 6 C-0.61709538 4.00889599 -0.27395385 2.00899487 0 0 Z " fill="#24473A" transform="translate(252,80)"/>
<path d="M0 0 C3.63 0 7.26 0 11 0 C11 0.33 11 0.66 11 1 C6.05 2.32 1.1 3.64 -4 5 C-4 4.34 -4 3.68 -4 3 C-2.68 2.67 -1.36 2.34 0 2 C0 1.34 0 0.68 0 0 Z " fill="#E2F0EA" transform="translate(161,0)"/>
<path d="M0 0 C5.44877223 0.48433531 5.44877223 0.48433531 7.9375 2.8125 C9.21639673 5.44552268 8.823968 6.28942941 8 9 C6.66368764 7.6905332 5.33102075 6.37734515 4 5.0625 C3.2575 4.33160156 2.515 3.60070312 1.75 2.84765625 C0 1 0 1 0 0 Z " fill="#0F3A29" transform="translate(1120,599)"/>
<path d="M0 0 C0.99 0.33 1.98 0.66 3 1 C1.68 3.64 0.36 6.28 -1 9 C-3.1385485 6.8614515 -3.42655063 5.86724686 -4 3 C-3.01 3 -2.02 3 -1 3 C-0.67 2.01 -0.34 1.02 0 0 Z " fill="#13382A" transform="translate(404,252)"/>
<path d="M0 0 C0 0.33 0 0.66 0 1 C-1.03125 1.103125 -2.0625 1.20625 -3.125 1.3125 C-6.95083945 1.99127797 -9.63370025 3.11158795 -13 5 C-14.32 4.01 -15.64 3.02 -17 2 C-11.19233704 0.4943096 -6.0018137 -0.21824777 0 0 Z " fill="#315746" transform="translate(400,0)"/>
<path d="M0 0 C-1.38290829 1.98793067 -2.56167198 2.88705658 -4.91015625 3.4921875 C-7.0625 3.8125 -7.0625 3.8125 -11 4 C-11.66 3.34 -12.32 2.68 -13 2 C-4.57142857 -0.28571429 -4.57142857 -0.28571429 0 0 Z " fill="#1F4333" transform="translate(863,474)"/>
<path d="M0 0 C0.99 0 1.98 0 3 0 C2.40716379 3.39192363 1.23256811 5.2107757 -1.0625 7.75 C-1.61035156 8.36359375 -2.15820312 8.9771875 -2.72265625 9.609375 C-3.14417969 10.06828125 -3.56570313 10.5271875 -4 11 C-4.66 10.67 -5.32 10.34 -6 10 C-5.07615834 8.32572385 -4.13549431 6.66071997 -3.1875 5 C-2.66542969 4.071875 -2.14335938 3.14375 -1.60546875 2.1875 C-0.81076172 1.1046875 -0.81076172 1.1046875 0 0 Z " fill="#113928" transform="translate(1674,275)"/>
<path d="M0 0 C0 3 0 3 -1 5 C-0.67 5.99 -0.34 6.98 0 8 C-1.98 8.99 -1.98 8.99 -4 10 C-4.66 8.68 -5.32 7.36 -6 6 C-4.02 4.02 -2.04 2.04 0 0 Z " fill="#123F2C" transform="translate(24,252)"/>
<path d="M0 0 C0 3 0 3 -1.6796875 5.04296875 C-2.76636719 6.10451172 -2.76636719 6.10451172 -3.875 7.1875 C-4.95394531 8.26064453 -4.95394531 8.26064453 -6.0546875 9.35546875 C-8 11 -8 11 -10 11 C-9.67 10.01 -9.34 9.02 -9 8 C-8.34 8 -7.68 8 -7 8 C-6.773125 7.4225 -6.54625 6.845 -6.3125 6.25 C-4.66961977 3.4336339 -2.60466773 1.91922886 0 0 Z " fill="#274C3C" transform="translate(359,14)"/>
<path d="M0 0 C0.99 0.66 1.98 1.32 3 2 C3 2.66 3 3.32 3 4 C2.34 4 1.68 4 1 4 C-0.07525194 6.65228812 -1.09456151 9.28368454 -2 12 C-2.66 12 -3.32 12 -4 12 C-2.66666667 8 -1.33333333 4 0 0 Z " fill="#194131" transform="translate(139,461)"/>
<path d="M0 0 C3.37462715 0.54723683 5.08235 1.0549 8 3 C7.67 4.65 7.34 6.3 7 8 C4.35247996 5.42215154 2.05567935 3.08351902 0 0 Z " fill="#133D2C" transform="translate(1064,165)"/>
<path d="M0 0 C5.99725275 2.10714286 5.99725275 2.10714286 8 5 C7.6875 7.1875 7.6875 7.1875 7 9 C4.61327331 6.03716687 2.2646629 3.05729491 0 0 Z " fill="#133D2C" transform="translate(2933,163)"/>
<path d="M0 0 C2.97 1.98 2.97 1.98 6 4 C5.34 4.66 4.68 5.32 4 6 C3.34 6 2.68 6 2 6 C1.34 6.66 0.68 7.32 0 8 C-0.66 7.34 -1.32 6.68 -2 6 C-1.67 5.38125 -1.34 4.7625 -1 4.125 C0.14193235 2.08981656 0.14193235 2.08981656 0 0 Z " fill="#113D2A" transform="translate(940,112)"/>
<path d="M0 0 C0.33 0 0.66 0 1 0 C0.91276622 1.77174819 0.80458345 3.54247377 0.6875 5.3125 C0.62949219 6.29863281 0.57148438 7.28476563 0.51171875 8.30078125 C-0.04622813 11.24384457 -0.68540132 12.18182999 -3 14 C-2.48594831 9.03083364 -1.76615118 4.70973649 0 0 Z " fill="#D0E2DC" transform="translate(2538,188)"/>
<path d="M0 0 C0.99 0.66 1.98 1.32 3 2 C1.68 5.63 0.36 9.26 -1 13 C-2.16619714 8.33521145 -1.76990451 5.6964175 -1 1 C-0.67 0.67 -0.34 0.34 0 0 Z " fill="#163D2D" transform="translate(2538,181)"/>
<path d="M0 0 C0.33 0.99 0.66 1.98 1 3 C-0.43359375 5.48046875 -0.43359375 5.48046875 -2.4375 8.1875 C-3.09621094 9.08855469 -3.75492188 9.98960937 -4.43359375 10.91796875 C-5.20896484 11.94857422 -5.20896484 11.94857422 -6 13 C-6.66 12.67 -7.32 12.34 -8 12 C-5.36 8.04 -2.72 4.08 0 0 Z " fill="#1E4333" transform="translate(1501,144)"/>
<path d="M0 0 C0.33 0.66 0.66 1.32 1 2 C-0.07749442 2.82022749 -1.16229508 3.63086169 -2.25 4.4375 C-3.15492187 5.11619141 -3.15492187 5.11619141 -4.078125 5.80859375 C-6.06292756 7.03900997 -7.71987655 7.56112668 -10 8 C-10.33 7.34 -10.66 6.68 -11 6 C-7.37 4.02 -3.74 2.04 0 0 Z " fill="#1F4334" transform="translate(1653,300)"/>
<path d="M0 0 C0 4.07746885 -1.52068051 5.83198065 -4 9 C-6.140625 9.6796875 -6.140625 9.6796875 -8 10 C-7.04367001 8.70684939 -6.08486149 7.41553147 -5.125 6.125 C-4.59132813 5.40570313 -4.05765625 4.68640625 -3.5078125 3.9453125 C-2 2 -2 2 0 0 Z " fill="#D2E2DE" transform="translate(2258,157)"/>
<path d="M0 0 C0.66 0 1.32 0 2 0 C2 0.66 2 1.32 2 2 C2.66 2 3.32 2 4 2 C4.625 4.8125 4.625 4.8125 5 8 C4.01 9.485 4.01 9.485 3 11 C2.01 7.37 1.02 3.74 0 0 Z " fill="#1A3E2E" transform="translate(1793,154)"/>
<path d="M0 0 C-1.77444972 2.24606427 -2.58352485 2.95081002 -5.48046875 3.29296875 C-6.82044922 3.24076172 -6.82044922 3.24076172 -8.1875 3.1875 C-9.53908203 3.14689453 -9.53908203 3.14689453 -10.91796875 3.10546875 C-11.60503906 3.07066406 -12.29210937 3.03585937 -13 3 C-13 2.67 -13 2.34 -13 2 C-11.21089097 1.47044766 -9.41860852 0.9516063 -7.625 0.4375 C-6.62726563 0.14746094 -5.62953125 -0.14257812 -4.6015625 -0.44140625 C-2 -1 -2 -1 0 0 Z " fill="#DEEDE8" transform="translate(426,612)"/>
<path d="M0 0 C0.66 0.33 1.32 0.66 2 1 C1.71890887 2.64767247 1.42481474 4.29313145 1.125 5.9375 C0.96257812 6.85402344 0.80015625 7.77054688 0.6328125 8.71484375 C0.42398437 9.46894531 0.21515625 10.22304688 0 11 C-0.99 11.495 -0.99 11.495 -2 12 C-1.85831863 10.56208484 -1.71148957 9.1246763 -1.5625 7.6875 C-1.48128906 6.88699219 -1.40007812 6.08648438 -1.31640625 5.26171875 C-1 3 -1 3 0 0 Z " fill="#294B3D" transform="translate(1611,518)"/>
<path d="M0 0 C0.99 1.32 1.98 2.64 3 4 C1 6 -1 8 -3 10 C-3.33 9.34 -3.66 8.68 -4 8 C-3.22265625 6.0546875 -3.22265625 6.0546875 -2.0625 3.875 C-1.49208984 2.78832031 -1.49208984 2.78832031 -0.91015625 1.6796875 C-0.60980469 1.12539063 -0.30945312 0.57109375 0 0 Z " fill="#1C4635" transform="translate(2948,281)"/>
<path d="M0 0 C0.66 0 1.32 0 2 0 C1.30058404 3.14737182 0.23921302 6.02588876 -1 9 C-1.99 8.67 -2.98 8.34 -4 8 C-2.68 5.36 -1.36 2.72 0 0 Z " fill="#143C2B" transform="translate(2756,156)"/>
<path d="M0 0 C0.66 0.33 1.32 0.66 2 1 C1.34 4.63 0.68 8.26 0 12 C-0.99 11.67 -1.98 11.34 -3 11 C-2.01 7.37 -1.02 3.74 0 0 Z " fill="#274A3C" transform="translate(1957,101)"/>
<path d="M0 0 C0 0.33 0 0.66 0 1 C-5.445 2.485 -5.445 2.485 -11 4 C-11 3.01 -11 2.02 -11 1 C-3.375 -1.125 -3.375 -1.125 0 0 Z " fill="#1A3F2F" transform="translate(1573,99)"/>
<path d="M0 0 C0.99 0 1.98 0 3 0 C3.433125 1.2065625 3.433125 1.2065625 3.875 2.4375 C4.73262568 5.1326468 4.73262568 5.1326468 7 6 C6.67 7.32 6.34 8.64 6 10 C4.99421411 8.71283353 3.99553202 7.42011342 3 6.125 C2.443125 5.40570312 1.88625 4.68640625 1.3125 3.9453125 C0 2 0 2 0 0 Z " fill="#193E2F" transform="translate(122,580)"/>
<path d="M0 0 C0.33 0.66 0.66 1.32 1 2 C0.34 2 -0.32 2 -1 2 C-1 2.66 -1 3.32 -1 4 C-2.98 4.99 -4.96 5.98 -7 7 C-7.99 6.34 -8.98 5.68 -10 5 C-6.7 3.35 -3.4 1.7 0 0 Z " fill="#DBEBE6" transform="translate(2389,352)"/>
<path d="M0 0 C0.33 0.99 0.66 1.98 1 3 C-0.09283577 4.03295436 -1.19970579 5.05107835 -2.3125 6.0625 C-2.92738281 6.63097656 -3.54226563 7.19945312 -4.17578125 7.78515625 C-4.77777344 8.18605469 -5.37976562 8.58695312 -6 9 C-6.99 8.67 -7.98 8.34 -9 8 C-6.03 5.36 -3.06 2.72 0 0 Z " fill="#E7F5F1" transform="translate(1423,334)"/>
<path d="M0 0 C0.66 0 1.32 0 2 0 C1.82374165 2.37948772 1.30280227 3.70225849 -0.40234375 5.37890625 C-1.90649092 6.62115486 -3.45129851 7.81376056 -5 9 C-5.66 8.67 -6.32 8.34 -7 8 C-5.88200014 6.66079162 -4.75538103 5.32877444 -3.625 4 C-2.68527344 2.88625 -2.68527344 2.88625 -1.7265625 1.75 C-1.15679688 1.1725 -0.58703125 0.595 0 0 Z " fill="#1B4333" transform="translate(2938,299)"/>
<path d="M0 0 C2.64752004 2.57784846 4.94432065 4.91648098 7 8 C4.08482708 6.92598892 2.22189824 6.22189824 0 4 C0 2.68 0 1.36 0 0 Z " fill="#193D2E" transform="translate(345,257)"/>
<path d="M0 0 C0 3.16880694 -0.2058242 4.43689172 -2 7 C-4.625 7.75 -4.625 7.75 -7 8 C-6.02133662 6.85373678 -5.04205413 5.70800212 -4.0625 4.5625 C-3.51722656 3.92441406 -2.97195312 3.28632813 -2.41015625 2.62890625 C-1.63204305 1.73008851 -0.84063472 0.84063472 0 0 Z " fill="#153E2E" transform="translate(2223,133)"/>
<path d="M0 0 C1.258125 0.12375 2.51625 0.2475 3.8125 0.375 C4.87404297 0.47941406 4.87404297 0.47941406 5.95703125 0.5859375 C8 1 8 1 11 3 C9.54257537 3.08096803 8.08387193 3.13917774 6.625 3.1875 C5.81289062 3.22230469 5.00078125 3.25710938 4.1640625 3.29296875 C3.44992187 3.19628906 2.73578125 3.09960938 2 3 C1.34 2.01 0.68 1.02 0 0 Z " fill="#F3FCFA" transform="translate(1655,612)"/>
<path d="M0 0 C1.485 0.99 1.485 0.99 3 2 C3.6875 5.625 3.6875 5.625 4 9 C1.47411298 6.63707344 0.11179163 5.33537489 -1 2 C-0.67 1.34 -0.34 0.68 0 0 Z " fill="#153D2C" transform="translate(961,584)"/>
<path d="M0 0 C0.66 0 1.32 0 2 0 C1.67 2.31 1.34 4.62 1 7 C-0.32 7.33 -1.64 7.66 -3 8 C-2.01 5.36 -1.02 2.72 0 0 Z " fill="#163D2E" transform="translate(130,484)"/>
<path d="M0 0 C0.99 0 1.98 0 3 0 C4.0625 1.875 4.0625 1.875 5 4 C4.67 4.66 4.34 5.32 4 6 C2.68 5.34 1.36 4.68 0 4 C0 2.68 0 1.36 0 0 Z " fill="#0E3B28" transform="translate(241,355)"/>
<path d="M0 0 C1.39864092 3.17872935 0.89282517 4.30111022 -0.3125 7.6875 C-2 11 -2 11 -4 12 C-2.66666667 8 -1.33333333 4 0 0 Z " fill="#335345" transform="translate(2197,169)"/>
<path d="M0 0 C0.66 0.33 1.32 0.66 2 1 C2 2.98 2 4.96 2 7 C1.34 7 0.68 7 0 7 C-0.33 7.99 -0.66 8.98 -1 10 C-2.46726798 6.18510326 -1.43336419 3.70988378 0 0 Z " fill="#244739" transform="translate(1946,135)"/>
<path d="M0 0 C2.31 1.98 4.62 3.96 7 6 C6.34 6.66 5.68 7.32 5 8 C2.5 6.25 2.5 6.25 0 4 C0 2.68 0 1.36 0 0 Z " fill="#0E3928" transform="translate(2412,135)"/>
<path d="M0 0 C0 3 0 3 -2 6 C-5.125 6.1875 -5.125 6.1875 -8 6 C-5.33333333 4 -2.66666667 2 0 0 Z " fill="#254637" transform="translate(1044,583)"/>
<path d="M0 0 C2.31 1.98 4.62 3.96 7 6 C6.67 6.66 6.34 7.32 6 8 C4.68 7.34 3.36 6.68 2 6 C2 5.34 2 4.68 2 4 C1.34 4 0.68 4 0 4 C0 2.68 0 1.36 0 0 Z " fill="#163B2B" transform="translate(1144,580)"/>
<path d="M0 0 C2.47859908 2.2008849 3.61210366 4.06372969 4.6875 7.1875 C4.93886719 7.90292969 5.19023438 8.61835938 5.44921875 9.35546875 C5.63097656 9.89816406 5.81273437 10.44085938 6 11 C5.34 11 4.68 11 4 11 C3.32880451 9.5437455 2.66318193 8.08492133 2 6.625 C1.62875 5.81289063 1.2575 5.00078125 0.875 4.1640625 C0 2 0 2 0 0 Z " fill="#294B3D" transform="translate(918,495)"/>
<path d="M0 0 C2.31 0.66 4.62 1.32 7 2 C6.01 3.485 6.01 3.485 5 5 C3.68 4.67 2.36 4.34 1 4 C0.67 2.68 0.34 1.36 0 0 Z " fill="#103A29" transform="translate(2284,327)"/>
<path d="M0 0 C0.598125 0.309375 1.19625 0.61875 1.8125 0.9375 C4.08956772 2.10209704 4.08956772 2.10209704 7 3 C6.67 4.65 6.34 6.3 6 8 C3.33264727 5.51047079 1.44253657 3.36591866 0 0 Z " fill="#184130" transform="translate(2206,314)"/>
<path d="M0 0 C2.45823172 3.68734758 3.01242616 6.69699971 4 11 C3.34 11 2.68 11 2 11 C0.19769832 7.17010894 -0.19622241 4.21878192 0 0 Z " fill="#294E3F" transform="translate(2060,305)"/>
<path d="M0 0 C0.33 0 0.66 0 1 0 C0.9129995 1.62600941 0.8048219 3.25089678 0.6875 4.875 C0.62949219 5.77992188 0.57148437 6.68484375 0.51171875 7.6171875 C0 10 0 10 -3 12 C-2.40075776 7.80530429 -1.42500059 3.99000166 0 0 Z " fill="#D1E1DB" transform="translate(1947,255)"/>
<path d="M0 0 C0.66 0.33 1.32 0.66 2 1 C0.515 6.445 0.515 6.445 -1 12 C-2.24142712 7.03429151 -1.37261666 4.84452938 0 0 Z " fill="#DDEDE6" transform="translate(1921,207)"/>
<path d="M0 0 C0.99 0.66 1.98 1.32 3 2 C1.02 4.97 1.02 4.97 -1 8 C-1.66 7.67 -2.32 7.34 -3 7 C-2.01 4.69 -1.02 2.38 0 0 Z " fill="#1D4132" transform="translate(2751,165)"/>
<path d="M0 0 C1.65 0.33 3.3 0.66 5 1 C0.25 5.875 0.25 5.875 -2 7 C-1.42415568 4.61435923 -0.77772405 2.33317216 0 0 Z " fill="#143C2A" transform="translate(2557,153)"/>
<path d="M0 0 C0.99 0.33 1.98 0.66 3 1 C0.03 4.96 0.03 4.96 -3 9 C-3.33 8.01 -3.66 7.02 -4 6 C-2.0625 2.8125 -2.0625 2.8125 0 0 Z " fill="#DFEFEA" transform="translate(1205,144)"/>
<path d="M0 0 C1.98 0.99 3.96 1.98 6 3 C5.67 3.66 5.34 4.32 5 5 C3.35 5 1.7 5 0 5 C0 3.35 0 1.7 0 0 Z " fill="#0F3B28" transform="translate(1105,106)"/>
<path d="M0 0 C-0.33 0.99 -0.66 1.98 -1 3 C-4.63 2.67 -8.26 2.34 -12 2 C-12 1.67 -12 1.34 -12 1 C-7.93631321 0.22596442 -4.13574827 -0.0984702 0 0 Z " fill="#345749" transform="translate(2300,98)"/>
<path d="M0 0 C2.18975773 3.28463659 2.99806563 6.20696275 4 10 C2 8.9375 2 8.9375 0 7 C-0.25 3.3125 -0.25 3.3125 0 0 Z " fill="#214534" transform="translate(460,496)"/>
<path d="M0 0 C3 2 3 2 3.51171875 3.9453125 C3.67447917 5.96354167 3.83723958 7.98177083 4 10 C1.7448078 7.7448078 1.02276532 5.9952413 0 3 C0 2.01 0 1.02 0 0 Z " fill="#EAF8F4" transform="translate(225,455)"/>
<path d="M0 0 C3.63 0.33 7.26 0.66 11 1 C11 1.33 11 1.66 11 2 C7.37 2.33 3.74 2.66 0 3 C0 2.01 0 1.02 0 0 Z " fill="#395D4D" transform="translate(2297,331)"/>
<path d="M0 0 C0.66 0 1.32 0 2 0 C0.7508258 3.45925163 -0.67527795 6.14693203 -3 9 C-3 5.85331714 -2.47264871 4.68541824 -1 2 C-0.67 1.34 -0.34 0.68 0 0 Z " fill="#1D4233" transform="translate(1438,310)"/>
<path d="M0 0 C0.66 0.33 1.32 0.66 2 1 C-0.475 5.455 -0.475 5.455 -3 10 C-4.05609899 6.83170302 -4.13055309 6.01480825 -3 3 C-1.4375 1.25 -1.4375 1.25 0 0 Z " fill="#1E4032" transform="translate(2432,304)"/>
<path d="M0 0 C0 3 0 3 -1.25 4.75 C-1.8275 5.1625 -2.405 5.575 -3 6 C-4.32 5.67 -5.64 5.34 -7 5 C-4.69 3.35 -2.38 1.7 0 0 Z " fill="#1E4233" transform="translate(1661,294)"/>
<path d="M0 0 C2.46278801 2.46278801 2.99771255 4.70676982 4 8 C3.01 7.67 2.02 7.34 1 7 C1 6.34 1 5.68 1 5 C0.34 5 -0.32 5 -1 5 C-0.67 3.35 -0.34 1.7 0 0 Z " fill="#1A4131" transform="translate(1557,270)"/>
<path d="M0 0 C0.99 0.33 1.98 0.66 3 1 C2.39816251 3.02045442 1.72693904 5.02111039 1 7 C0.01 7.495 0.01 7.495 -1 8 C-0.67 5.36 -0.34 2.72 0 0 Z " fill="#2D4D40" transform="translate(2740,195)"/>
<path d="M0 0 C0.99 0.495 0.99 0.495 2 1 C2.6328125 3.06640625 2.6328125 3.06640625 3.125 5.5625 C3.29257813 6.38878906 3.46015625 7.21507812 3.6328125 8.06640625 C3.75398438 8.70449219 3.87515625 9.34257812 4 10 C3.34 10 2.68 10 2 10 C0.39644899 6.49223216 -0.22036864 3.85645121 0 0 Z " fill="#294C3D" transform="translate(2009,140)"/>
<path d="M0 0 C1.32 0.99 2.64 1.98 4 3 C2.68 4.32 1.36 5.64 0 7 C-1.125 2.25 -1.125 2.25 0 0 Z " fill="#CEE1D9" transform="translate(2532,133)"/>
<path d="M0 0 C0.66 0.33 1.32 0.66 2 1 C2.3125 3.3125 2.3125 3.3125 2 6 C-0.5 7.8125 -0.5 7.8125 -3 9 C-2.01 6.03 -1.02 3.06 0 0 Z " fill="#E7F4EF" transform="translate(237,127)"/>
<path d="M0 0 C0.66 0.33 1.32 0.66 2 1 C1 4 1 4 -0.875 5.1875 C-3 6 -3 6 -6 6 C-4.02 4.02 -2.04 2.04 0 0 Z " fill="#D0E3DA" transform="translate(1455,596)"/>
<path d="M0 0 C0.99 0.33 1.98 0.66 3 1 C-0.465 3.97 -0.465 3.97 -4 7 C-4 6.01 -4 5.02 -4 4 C-3.34 4 -2.68 4 -2 4 C-1.34 2.68 -0.68 1.36 0 0 Z " fill="#1F4133" transform="translate(452,592)"/>
<path d="M0 0 C0.99 0 1.98 0 3 0 C3.66 1.32 4.32 2.64 5 4 C4.34 4.66 3.68 5.32 3 6 C1.68 4.35 0.36 2.7 -1 1 C-0.67 0.67 -0.34 0.34 0 0 Z " fill="#0F3928" transform="translate(130,589)"/>
<path d="M0 0 C0.99 0 1.98 0 3 0 C3 2.64 3 5.28 3 8 C2.34 8 1.68 8 1 8 C0.67 5.36 0.34 2.72 0 0 Z " fill="#0F3826" transform="translate(1361,571)"/>
<path d="M0 0 C0.33 0 0.66 0 1 0 C1.25 3.25 1.25 3.25 1 7 C-0.32 8.32 -1.64 9.64 -3 11 C-2.01 7.37 -1.02 3.74 0 0 Z " fill="#DFEDE9" transform="translate(251,564)"/>
<path d="M0 0 C1.98 0 3.96 0 6 0 C6 0.99 6 1.98 6 3 C4.68 3.33 3.36 3.66 2 4 C1.34 2.68 0.68 1.36 0 0 Z " fill="#113B2B" transform="translate(1025,531)"/>
<path d="M0 0 C1.9451 2.91765 2.45276317 4.62537285 3 8 C1.68 7.67 0.36 7.34 -1 7 C-0.67 4.69 -0.34 2.38 0 0 Z " fill="#264A39" transform="translate(1738,512)"/>
<path d="M0 0 C0.66 1.32 1.32 2.64 2 4 C0.625 7.25 0.625 7.25 -1 10 C-1.66 10 -2.32 10 -3 10 C-2.01 6.7 -1.02 3.4 0 0 Z " fill="#294C3D" transform="translate(150,433)"/>
<path d="M0 0 C0.66 0.99 1.32 1.98 2 3 C1.01 4.98 0.02 6.96 -1 9 C-1.66 9 -2.32 9 -3 9 C-2.01 6.03 -1.02 3.06 0 0 Z " fill="#325446" transform="translate(157,416)"/>
<path d="M0 0 C0.33 0.99 0.66 1.98 1 3 C-0.40445835 5.2636564 -2.1967913 7.0208685 -4 9 C-4.33 8.01 -4.66 7.02 -5 6 C-3.6875 3.8125 -3.6875 3.8125 -2 2 C-1.34 2 -0.68 2 0 2 C0 1.34 0 0.68 0 0 Z " fill="#1D4233" transform="translate(2953,327)"/>
<path d="M0 0 C0.99 0.66 1.98 1.32 3 2 C-1.75 6 -1.75 6 -4 6 C-4 5.01 -4 4.02 -4 3 C-2 1.3125 -2 1.3125 0 0 Z " fill="#16402E" transform="translate(2370,315)"/>
<path d="M0 0 C0.66 0.33 1.32 0.66 2 1 C0.02 3.31 -1.96 5.62 -4 8 C-4.66 7.67 -5.32 7.34 -6 7 C-4.02 4.69 -2.04 2.38 0 0 Z " fill="#173D2E" transform="translate(237,260)"/>
<path d="M0 0 C0 0.66 0 1.32 0 2 C-2.8125 4.1875 -2.8125 4.1875 -6 6 C-6.99 5.67 -7.98 5.34 -9 5 C-7.87926138 4.16094435 -6.75325453 3.32892169 -5.625 2.5 C-4.99851562 2.0359375 -4.37203125 1.571875 -3.7265625 1.09375 C-2 0 -2 0 0 0 Z " fill="#214537" transform="translate(476,245)"/>
<path d="M0 0 C0.66 0.99 1.32 1.98 2 3 C1.125 6.1875 1.125 6.1875 0 9 C-0.66 9 -1.32 9 -2 9 C-1.34 6.03 -0.68 3.06 0 0 Z " fill="#26493B" transform="translate(1930,184)"/>
<path d="M0 0 C0.99 0 1.98 0 3 0 C3.625 1.8125 3.625 1.8125 4 4 C3.01 5.485 3.01 5.485 2 7 C0.5393715 4.35261084 0 3.10551666 0 0 Z " fill="#0D3626" transform="translate(360,154)"/>
<path d="M0 0 C3 2 3 2 3.6875 4.625 C3.790625 5.40875 3.89375 6.1925 4 7 C2.02 5.68 0.04 4.36 -2 3 C-1.34 2.67 -0.68 2.34 0 2 C0 1.34 0 0.68 0 0 Z " fill="#113D2A" transform="translate(2921,148)"/>
<path d="M0 0 C4.95 0.99 4.95 0.99 10 2 C10 2.33 10 2.66 10 3 C2.25 3.125 2.25 3.125 0 2 C0 1.34 0 0.68 0 0 Z " fill="#1B3F31" transform="translate(1079,97)"/>
<path d="M0 0 C0.66 0.66 1.32 1.32 2 2 C-0.31 3.65 -2.62 5.3 -5 7 C-3.92643531 2.70574125 -3.4915227 2.25259529 0 0 Z " fill="#E2F1EB" transform="translate(360,11)"/>
<path d="M0 0 C3.3 0 6.6 0 10 0 C10 0.33 10 0.66 10 1 C6.7 1.66 3.4 2.32 0 3 C0 2.01 0 1.02 0 0 Z " fill="#EDF8F2" transform="translate(382,0)"/>
</svg>
