<?xml version="1.0" encoding="UTF-8"?>
<svg version="1.1" xmlns="http://www.w3.org/2000/svg" width="101" height="26">
<path d="M0 0 C33.33 0 66.66 0 101 0 C101 8.58 101 17.16 101 26 C67.67 26 34.34 26 0 26 C0 17.42 0 8.84 0 0 Z " fill="#EFF7FA" transform="translate(0,0)"/>
<path d="M0 0 C13.2 0 26.4 0 40 0 C40.495 0.99 40.495 0.99 41 2 C41.95712891 1.98259766 41.95712891 1.98259766 42.93359375 1.96484375 C43.75988281 1.95582031 44.58617187 1.94679687 45.4375 1.9375 C46.26121094 1.92589844 47.08492187 1.91429688 47.93359375 1.90234375 C50 2 50 2 51 3 C51.04063832 4.66617115 51.042721 6.33388095 51 8 C49.35 8 47.7 8 46 8 C46.66868314 11.11332248 46.66868314 11.11332248 49.0625 12.1875 C49.701875 12.455625 50.34125 12.72375 51 13 C51.35555556 18.33333333 51.35555556 18.33333333 50 20.875 C46.69895544 22.73183756 43.74777626 22.23795405 40 22 C39.34 21.67 38.68 21.34 38 21 C38 20.01 38 19.02 38 18 C40.97 18 43.94 18 47 18 C47.495 16.515 47.495 16.515 48 15 C46.63875 14.7834375 46.63875 14.7834375 45.25 14.5625 C42 14 42 14 39.9375 13.25 C37.82644036 12.77003291 37.82644036 12.77003291 35.6875 14.4375 C32.29283808 16.41114065 29.86129562 16.22713504 26 16 C26 17.98 26 19.96 26 22 C24.68 22 23.36 22 22 22 C22 16.06 22 10.12 22 4 C21.34 4 20.68 4 20 4 C20 9.94 20 15.88 20 22 C18.68 22 17.36 22 16 22 C16 18.04 16 14.08 16 10 C15.34 10 14.68 10 14 10 C13.34 11.65 12.68 13.3 12 15 C7.25 14.25 7.25 14.25 5 12 C4.67 15.3 4.34 18.6 4 22 C2.68 22 1.36 22 0 22 C0 14.74 0 7.48 0 0 Z M38 2 C39 4 39 4 39 4 Z " fill="#E5EBF6" transform="translate(0,0)"/>
<path d="M0 0 C3.23961047 1.99890859 5.07734138 3.4797158 6.9375 6.8125 C7 9.875 7 9.875 5.9375 12.8125 C1.08345133 17.66654867 -3.74953111 19.10114675 -10.5 19.125 C-16.84048338 19.01765547 -20.4084504 17.83795891 -25.4375 14 C-27.0625 11.8125 -27.0625 11.8125 -27.75 8.9375 C-26.74453326 4.36719663 -23.88302789 2.32406759 -20.0625 -0.1875 C-14.0123289 -2.2042237 -6.0118042 -2.31827744 0 0 Z " fill="#25AADA" transform="translate(94.0625,4.1875)"/>
<path d="M0 0 C-0.33 0.99 -0.66 1.98 -1 3 C-1.14328384 4.82962436 -1.22040343 6.66501237 -1.25 8.5 C-1.27578125 9.4590625 -1.3015625 10.418125 -1.328125 11.40625 C-1.20715113 14.02216272 -1.20715113 14.02216272 0.328125 15.84375 C2.07244243 17.2844051 2.07244243 17.2844051 5 17 C5 16.01 5 15.02 5 14 C5.66 14 6.32 14 7 14 C7 15.32 7 16.64 7 18 C10.62351445 16.86585678 10.62351445 16.86585678 13.3125 14.3125 C14.83506037 9.19116056 14.3082222 4.76070828 12 0 C16.21572985 0.19608046 17.76881765 0.78849275 20.9375 3.6875 C23 7 23 7 23.125 10.125 C21.44196071 14.4261004 18.8114947 16.1301084 14.73046875 18.08984375 C8.60821029 20.13059657 1.48099265 19.87052374 -4.5625 17.75 C-10.67429341 13.36204576 -10.67429341 13.36204576 -11.6875 9.125 C-10.79612377 5.07328986 -9.03233659 3.69361383 -5.921875 1.1015625 C-4 0 -4 0 0 0 Z " fill="#1E63A4" transform="translate(78,4)"/>
<path d="M0 0 C5.55167115 1.11033423 5.89174313 1.71274914 9 6 C9.66 6.33 10.32 6.66 11 7 C11.28875 6.401875 11.5775 5.80375 11.875 5.1875 C13 3 13 3 15 0 C16.32 0 17.64 0 19 0 C19 5.94 19 11.88 19 18 C18.01 18 17.02 18 16 18 C16 14.04 16 10.08 16 6 C15.34 6 14.68 6 14 6 C13.34 7.65 12.68 9.3 12 11 C7.25 10.25 7.25 10.25 5 8 C4.67 11.3 4.34 14.6 4 18 C2.68 18 1.36 18 0 18 C0 12.06 0 6.12 0 0 Z " fill="#274989" transform="translate(0,4)"/>
<path d="M0 0 C9.1796875 -0.1953125 9.1796875 -0.1953125 12 0 C14.32528287 2.32528287 14.29511025 2.84665898 14.3125 6 C14.32925781 6.70125 14.34601562 7.4025 14.36328125 8.125 C14.18345703 9.053125 14.18345703 9.053125 14 10 C10.3558226 12.4294516 8.28758728 12.16179575 4 12 C4 13.98 4 15.96 4 18 C2.68 18 1.36 18 0 18 C0 12.06 0 6.12 0 0 Z " fill="#365696" transform="translate(22,4)"/>
<path d="M0 0 C0.90492187 0.02320313 1.80984375 0.04640625 2.7421875 0.0703125 C4.10730469 0.09738281 4.10730469 0.09738281 5.5 0.125 C6.19867188 0.14820313 6.89734375 0.17140625 7.6171875 0.1953125 C7.6171875 1.1853125 7.6171875 2.1753125 7.6171875 3.1953125 C4.6471875 3.1953125 1.6771875 3.1953125 -1.3828125 3.1953125 C1.17885551 5.75698051 2.17022726 6.64085656 5.3046875 7.8828125 C6.944375 8.5325 6.944375 8.5325 8.6171875 9.1953125 C8.97274306 14.52864583 8.97274306 14.52864583 7.6171875 17.0703125 C4.31614294 18.92715006 1.36496376 18.43326655 -2.3828125 18.1953125 C-3.0428125 17.8653125 -3.7028125 17.5353125 -4.3828125 17.1953125 C-4.3828125 16.2053125 -4.3828125 15.2153125 -4.3828125 14.1953125 C-1.4128125 14.1953125 1.5571875 14.1953125 4.6171875 14.1953125 C4.9471875 13.2053125 5.2771875 12.2153125 5.6171875 11.1953125 C4.2559375 11.040625 4.2559375 11.040625 2.8671875 10.8828125 C-0.46248701 10.17845828 -2.07858446 9.67678886 -4.3828125 7.1953125 C-4.7578125 4.6328125 -4.7578125 4.6328125 -4.3828125 2.1953125 C-2.3828125 0.1953125 -2.3828125 0.1953125 0 0 Z " fill="#304F8B" transform="translate(42.3828125,3.8046875)"/>
<path d="M0 0 C6.6 0 13.2 0 20 0 C19.67 1.32 19.34 2.64 19 4 C18.4225 4.04125 17.845 4.0825 17.25 4.125 C13.86687535 5.44065958 12.80777315 7.96552364 11 11 C8.44911277 9.94446046 7.14610418 9.20089325 5.5 6.9375 C3.75490519 4.6834192 2.76576527 4.38148486 0 4 C0 2.68 0 1.36 0 0 Z " fill="#F2F6FA" transform="translate(0,0)"/>
<path d="M0 0 C4.21572985 0.19608046 5.76881765 0.78849275 8.9375 3.6875 C11 7 11 7 11.125 10.125 C9.70510696 13.75361556 8.32962301 15.0022262 5 17 C1.6875 17.75 1.6875 17.75 -1 18 C-0.505 17.154375 -0.01 16.30875 0.5 15.4375 C2.58739345 10.65389 2.68070722 6.99957745 1 2.0625 C0.67 1.381875 0.34 0.70125 0 0 Z " fill="#2362A5" transform="translate(90,4)"/>
<path d="M0 0 C0.5625 1.9375 0.5625 1.9375 1 4 C0 5 0 5 -2.06640625 5.09765625 C-2.89011719 5.08605469 -3.71382812 5.07445312 -4.5625 5.0625 C-5.38878906 5.05347656 -6.21507813 5.04445313 -7.06640625 5.03515625 C-7.70449219 5.02355469 -8.34257813 5.01195312 -9 5 C-9 5.66 -9 6.32 -9 7 C-6.69 7 -4.38 7 -2 7 C-2 8.32 -2 9.64 -2 11 C-3.65 11 -5.3 11 -7 11 C-7 11.66 -7 12.32 -7 13 C-7.66 13 -8.32 13 -9 13 C-9.33333333 11.66666667 -9.66666667 10.33333333 -10 9 C-10.20625 8.278125 -10.4125 7.55625 -10.625 6.8125 C-10.74875 6.214375 -10.8725 5.61625 -11 5 C-10.67 4.67 -10.34 4.34 -10 4 C-10.99 3.67 -11.98 3.34 -13 3 C-12.67 2.01 -12.34 1.02 -12 0 C-7.6835078 -0.76173392 -4.25566547 -1.16063604 0 0 Z " fill="#A6EFFB" transform="translate(90,7)"/>
<path d="M0 0 C0.33 0 0.66 0 1 0 C1 3.63 1 7.26 1 11 C-1.75059381 11.08107646 -4.49879021 11.14052813 -7.25 11.1875 C-8.02730469 11.21263672 -8.80460937 11.23777344 -9.60546875 11.26367188 C-15.42997175 11.33834499 -15.42997175 11.33834499 -18.546875 9.48828125 C-19.26617187 8.75158203 -19.26617187 8.75158203 -20 8 C-18.69675781 7.85304688 -18.69675781 7.85304688 -17.3671875 7.703125 C-8.43303715 6.62150156 -8.43303715 6.62150156 -1 2 C-0.67 1.34 -0.34 0.68 0 0 Z " fill="#F0F6F9" transform="translate(100,15)"/>
<path d="M0 0 C5.75 1.75 5.75 1.75 8 4 C6.865625 4.12375 5.73125 4.2475 4.5625 4.375 C2.7990625 4.684375 2.7990625 4.684375 1 5 C0.67 5.66 0.34 6.32 0 7 C1.98 7.495 1.98 7.495 4 8 C3.67 9.65 3.34 11.3 3 13 C3.66 13.33 4.32 13.66 5 14 C4.67 14.99 4.34 15.98 4 17 C4.99 16.67 5.98 16.34 7 16 C6.67 16.99 6.34 17.98 6 19 C3.625 18.6875 3.625 18.6875 1 18 C-1.23920243 14.64119635 -1.24603334 13.48423396 -1.1875 9.5625 C-1.18105469 8.61503906 -1.17460938 7.66757813 -1.16796875 6.69140625 C-1.01959281 4.3139406 -0.67263878 2.27620963 0 0 Z " fill="#21A8DC" transform="translate(77,3)"/>
<path d="M0 0 C2.97 0 5.94 0 9 0 C9 3.63 9 7.26 9 11 C8.29875 10.21625 7.5975 9.4325 6.875 8.625 C1.8767851 4.06141248 -3.51289052 3.67108029 -10 3 C-10 2.67 -10 2.34 -10 2 C-3.84765625 1.12109375 -3.84765625 1.12109375 -2 1 C-1.67 1.33 -1.34 1.66 -1 2 C-0.67 1.34 -0.34 0.68 0 0 Z " fill="#EEF3FA" transform="translate(92,0)"/>
<path d="M0 0 C1.81242052 -0.02687279 3.62495233 -0.04633715 5.4375 -0.0625 C6.44683594 -0.07410156 7.45617187 -0.08570312 8.49609375 -0.09765625 C11 0 11 0 12 1 C12.04063832 2.66617115 12.042721 4.33388095 12 6 C10.35 6 8.7 6 7 6 C7 6.99 7 7.98 7 9 C4.525 8.01 4.525 8.01 2 7 C2 6.34 2 5.68 2 5 C4.97 5 7.94 5 11 5 C11 4.01 11 3.02 11 2 C9.35369672 2.14042877 7.70795821 2.28749329 6.0625 2.4375 C4.68771484 2.55931641 4.68771484 2.55931641 3.28515625 2.68359375 C1.03840268 2.76044976 1.03840268 2.76044976 0 4 C-0.04080783 5.99958364 -0.04254356 8.00045254 0 10 C-0.99 10.33 -1.98 10.66 -3 11 C-3.144375 9.88625 -3.28875 8.7725 -3.4375 7.625 C-3.78372035 4.17857953 -3.78372035 4.17857953 -5 2 C-3.35 2 -1.7 2 0 2 C0 1.34 0 0.68 0 0 Z " fill="#CADCEB" transform="translate(39,2)"/>
<path d="M0 0 C3.69230769 0.69230769 3.69230769 0.69230769 5 2 C5.37086093 7.8410596 5.37086093 7.8410596 5 10 C1.3558226 12.4294516 -0.71241272 12.16179575 -5 12 C-5 11.01 -5 10.02 -5 9 C-3.02 8.67 -1.04 8.34 1 8 C1 6.68 1 5.36 1 4 C-1.97 3.505 -1.97 3.505 -5 3 C-4.360625 2.690625 -3.72125 2.38125 -3.0625 2.0625 C-1.06389179 1.1654837 -1.06389179 1.1654837 0 0 Z " fill="#2C4E8B" transform="translate(31,4)"/>
<path d="M0 0 C0.99 0 1.98 0 3 0 C4.30062431 3.81516464 3.89369853 7.27561763 3.5625 11.25 C3.46066406 12.51328125 3.35882813 13.7765625 3.25390625 15.078125 C3.17011719 16.04234375 3.08632813 17.0065625 3 18 C2.01 18 1.02 18 0 18 C0 12.06 0 6.12 0 0 Z " fill="#22468B" transform="translate(0,4)"/>
<path d="M0 0 C3.63 0 7.26 0 11 0 C13.66590937 4.55426184 14.31563182 7.73946963 14 13 C13.67 13 13.34 13 13 13 C12.87625 12.37351562 12.7525 11.74703125 12.625 11.1015625 C11.97025521 8.50713627 11.30918544 6.33936415 10 4 C7.3025908 2.62647262 5.05461437 2.43637348 2 2 C1.34 1.34 0.68 0.68 0 0 Z " fill="#2B91CA" transform="translate(79,3)"/>
<path d="M0 0 C1.98 0 3.96 0 6 0 C6.38218767 1.65614657 6.71395102 3.32457024 7 5 C6 6 6 6 2.9375 6.0625 C1.4834375 6.0315625 1.4834375 6.0315625 0 6 C0 4.02 0 2.04 0 0 Z " fill="#E4EFFC" transform="translate(26,7)"/>
<path d="M0 0 C5 5 5 5 6 7 C5.34 7 4.68 7 4 7 C3.67 7.66 3.34 8.32 3 9 C2.67 8.67 2.34 8.34 2 8 C1.67 11.3 1.34 14.6 1 18 C0.67 18 0.34 18 0 18 C0 12.06 0 6.12 0 0 Z " fill="#4F6CA6" transform="translate(3,4)"/>
<path d="M0 0 C1.9375 0.625 1.9375 0.625 4 2 C5.0625 4.8125 5.0625 4.8125 5 8 C2.5625 10.875 2.5625 10.875 0 13 C0.185625 11.783125 0.37125 10.56625 0.5625 9.3125 C0.98993182 5.97022061 0.92258883 3.28031583 0 0 Z " fill="#1F4B8F" transform="translate(96,7)"/>
<path d="M0 0 C0.99 0 1.98 0 3 0 C3.1875 2.875 3.1875 2.875 3 6 C0 8 0 8 -2.1875 7.625 C-2.785625 7.41875 -3.38375 7.2125 -4 7 C-2.68 4.69 -1.36 2.38 0 0 Z " fill="#12529A" transform="translate(93,14)"/>
<path d="M0 0 C0.33 0 0.66 0 1 0 C1 2.31 1 4.62 1 7 C1.99 7.33 2.98 7.66 4 8 C4.33 8.66 4.66 9.32 5 10 C5.99 10.33 6.98 10.66 8 11 C8 11.66 8 12.32 8 13 C4.08979564 11.69659855 1.49891449 10.33188599 -1 7 C-1.3125 3.8125 -1.3125 3.8125 -1 1 C-0.67 0.67 -0.34 0.34 0 0 Z " fill="#34598F" transform="translate(68,9)"/>
<path d="M0 0 C0.66 0 1.32 0 2 0 C1.67 0.53625 1.34 1.0725 1 1.625 C-0.22699204 4.5391061 -0.14233286 6.86867708 0 10 C-0.99 10.33 -1.98 10.66 -3 11 C-3.144375 9.88625 -3.28875 8.7725 -3.4375 7.625 C-3.78372035 4.17857953 -3.78372035 4.17857953 -5 2 C-3.35 2 -1.7 2 0 2 C0 1.34 0 0.68 0 0 Z " fill="#D3E4F4" transform="translate(39,2)"/>
<path d="M0 0 C0 0.66 0 1.32 0 2 C-4.26616316 3.13764351 -7.56486311 4 -12 4 C-11.67 3.01 -11.34 2.02 -11 1 C-7.26513121 0.4254048 -3.78706732 0 0 0 Z " fill="#B7F1FB" transform="translate(89,6)"/>
<path d="M0 0 C1.32 0 2.64 0 4 0 C3.67 2.31 3.34 4.62 3 7 C1.68 6.67 0.36 6.34 -1 6 C-0.67 4.02 -0.34 2.04 0 0 Z " fill="#254787" transform="translate(47,14)"/>
<path d="M0 0 C0.99 0 1.98 0 3 0 C3.75 1.75 3.75 1.75 4 4 C2.0625 6.25 2.0625 6.25 0 8 C0 5.36 0 2.72 0 0 Z " fill="#174290" transform="translate(0,4)"/>
<path d="M0 0 C5.75 1.75 5.75 1.75 8 4 C6.88625 4.12375 5.7725 4.2475 4.625 4.375 C0.96896323 4.6465813 0.96896323 4.6465813 -1 7 C-0.67 4.69 -0.34 2.38 0 0 Z " fill="#41A1D0" transform="translate(77,3)"/>
<path d="M0 0 C2.31 0 4.62 0 7 0 C7 0.66 7 1.32 7 2 C5.68 2.33 4.36 2.66 3 3 C3 3.66 3 4.32 3 5 C2.34 5 1.68 5 1 5 C0.67 3.35 0.34 1.7 0 0 Z " fill="#73BDE0" transform="translate(80,15)"/>
<path d="M0 0 C3.3 0 6.6 0 10 0 C10.33 0.66 10.66 1.32 11 2 C6.58937864 3.0257259 4.07369424 3.03684712 0 1 C0 0.67 0 0.34 0 0 Z " fill="#455E96" transform="translate(40,12)"/>
<path d="M0 0 C0.66 0 1.32 0 2 0 C1.5359375 1.1446875 1.5359375 1.1446875 1.0625 2.3125 C0.32106407 4.18789677 -0.36228217 6.08684652 -1 8 C-1.99 8 -2.98 8 -4 8 C-3.40312566 4.65750371 -2.26396123 2.53563658 0 0 Z " fill="#084B96" transform="translate(76,4)"/>
<path d="M0 0 C3.3 0 6.6 0 10 0 C9.67 0.99 9.34 1.98 9 3 C4.45804635 3.37849614 3.9855604 2.9891703 0 0 Z " fill="#E2F1FC" transform="translate(80,23)"/>
<path d="M0 0 C0.66 0 1.32 0 2 0 C6 5.41176471 6 5.41176471 6 8 C5.01 8 4.02 8 3 8 C0 2.25 0 2.25 0 0 Z " fill="#0A4B93" transform="translate(90,4)"/>
<path d="M0 0 C2.64 0 5.28 0 8 0 C7.67 0.66 7.34 1.32 7 2 C4.6859378 2.73075648 2.35171131 3.40138258 0 4 C0 2.68 0 1.36 0 0 Z " fill="#1F4488" transform="translate(23,4)"/>
<path d="M0 0 C0.78375 0.04125 1.5675 0.0825 2.375 0.125 C2.375 1.115 2.375 2.105 2.375 3.125 C0.065 2.795 -2.245 2.465 -4.625 2.125 C-2.625 0.125 -2.625 0.125 0 0 Z " fill="#3A9DC4" transform="translate(85.625,7.875)"/>
<path d="M0 0 C0.66 0 1.32 0 2 0 C2 1.98 2 3.96 2 6 C1.01 6.33 0.02 6.66 -1 7 C-1.04254356 5.00045254 -1.04080783 2.99958364 -1 1 C-0.67 0.67 -0.34 0.34 0 0 Z " fill="#2F4F94" transform="translate(24,7)"/>
<path d="M0 0 C2.97 0 5.94 0 9 0 C9 0.66 9 1.32 9 2 C6.75 2.6875 6.75 2.6875 4 3 C1.6875 1.5625 1.6875 1.5625 0 0 Z " fill="#18679C" transform="translate(79,3)"/>
</svg>
