<?xml version="1.0" encoding="UTF-8"?>
<svg version="1.1" xmlns="http://www.w3.org/2000/svg" width="411" height="122">
<path d="M0 0 C135.63 0 271.26 0 411 0 C411 40.26 411 80.52 411 122 C275.37 122 139.74 122 0 122 C0 81.74 0 41.48 0 0 Z " fill="#020202" transform="translate(0,0)"/>
<path d="M0 0 C3 2 3 2 4 5 C5.37820252 23.95028459 -6.42797086 42.49473003 -16.1875 57.96875 C-19.06921833 62.78817547 -20.260785 66.17742255 -20.125 71.8125 C-20.08333333 73.54166667 -20.04166667 75.27083333 -20 77 C-16.27210595 75.79687721 -13.1109779 74.40477012 -10 72 C-8.17943338 68.15006938 -7.70372224 64.26530446 -7.1875 60.0625 C-5.29831226 46.6934821 -5.29831226 46.6934821 0 42 C3.25 41.5625 3.25 41.5625 6 42 C7 43 7 43 7.1875 46.0078125 C6.94051218 51.26659481 5.71272169 56.06745443 4.421875 61.15234375 C3.12139955 66.56789508 2.82275567 71.42788138 3 77 C4.91466367 76.87822312 4.91466367 76.87822312 7 76 C9.64058405 72.51944243 10.62093877 69.16736439 11.5 64.9296875 C11.7475 63.78628906 11.995 62.64289063 12.25 61.46484375 C12.75156405 59.06412832 13.25155454 56.66308361 13.75 54.26171875 C13.9975 53.12089844 14.245 51.98007813 14.5 50.8046875 C14.7165625 49.76296387 14.933125 48.72124023 15.15625 47.64794922 C16.03523574 44.88941932 16.62257563 43.63305735 19 42 C25.44444444 42.44444444 25.44444444 42.44444444 27 44 C26.94560933 51.76426749 25.41263753 59.23439486 23.69921875 66.7734375 C22.88816442 70.5160681 22.38073202 74.1926798 22 78 C27.80782636 76.73532894 27.80782636 76.73532894 33 74 C33.64272754 71.15785918 34.10125646 68.46215276 34.46484375 65.58203125 C34.58428848 64.73259445 34.70373322 63.88315765 34.82679749 63.00798035 C35.20960894 60.27771635 35.57506954 57.54553872 35.9375 54.8125 C40.10764206 23.70374636 40.10764206 23.70374636 46.375 11.375 C46.91898438 10.26898438 47.46296875 9.16296875 48.0234375 8.0234375 C50.37213282 4.43076917 52.52304529 2.50120853 56 0 C59.61849825 -0.59077522 61.4219131 -0.26276677 64.75 1.25 C67.20199887 3.15711023 67.88894341 4.14369965 69 7 C70.44662091 19.26263538 66.84780017 28.61757849 60.3671875 38.80859375 C59.10829714 40.82641515 58.02555197 42.85610802 57 45 C57.86625 44.896875 58.7325 44.79375 59.625 44.6875 C64.16356605 45.1077376 65.85332232 46.78180692 69 50 C72.31979332 56.76337554 71.84270644 64.15938067 69.5 71.1875 C68.7575 73.0746875 68.7575 73.0746875 68 75 C71.63 72.36 75.26 69.72 79 67 C81 68 81 68 82.125 70.375 C83 73 83 73 83 76 C77.03186608 81.0635152 70.13763721 83.93823218 62.71875 86.15625 C60.42018477 86.86959783 58.40185963 87.69363255 56.25 88.75 C51.41702748 90.60883558 47.45431126 90.89910413 42.6328125 89.1328125 C41.10001745 88.44431112 39.57997207 87.72628095 38.078125 86.97265625 C36.01705307 86.0079816 34.25167308 85.3335812 32 85 C31.13375 85.474375 30.2675 85.94875 29.375 86.4375 C25.02225538 88.45265954 20.73095426 89.03413286 16 88 C14.32421875 86.16015625 14.32421875 86.16015625 13 84 C12.34 83.01 11.68 82.02 11 81 C10.44570313 81.42152344 9.89140625 81.84304687 9.3203125 82.27734375 C8.59585938 82.82519531 7.87140625 83.37304688 7.125 83.9375 C6.40570313 84.48277344 5.68640625 85.02804688 4.9453125 85.58984375 C2.14734054 87.6180925 0.41504853 88.17466805 -3 88.25 C-3.70125 88.27578125 -4.4025 88.3015625 -5.125 88.328125 C-5.74375 88.21984375 -6.3625 88.1115625 -7 88 C-7.66 87.01 -8.32 86.02 -9 85 C-9.65226562 85.2165625 -10.30453125 85.433125 -10.9765625 85.65625 C-20.97660819 88.84210526 -20.97660819 88.84210526 -25 88 C-28.52640222 84.63032676 -30.56634449 81.91476244 -31 77 C-34.29492643 78.75042967 -36.86997909 80.77174958 -39.5625 83.3125 C-49.23474894 91.89594043 -62.67305802 96.81170206 -75.6328125 96.2734375 C-84.33588384 95.26813223 -90.1760345 91.51395338 -96 85 C-101.22424552 77.3702403 -102.99491948 68.10167083 -102 59 C-98.19041482 40.28155175 -89.87852599 20.52622024 -73.55859375 9.32421875 C-65.85434278 4.51336755 -59.18147431 1.8647327 -50 3 C-43.14545068 5.09808814 -39.18716438 9.14642466 -35.6875 15.3125 C-33.44256413 24.08815838 -35.77466867 31.14837165 -40 39 C-43.9717647 44.9724303 -49.10625812 49.7267569 -56 52 C-60.05214504 52.47408101 -63.95756753 52.59911246 -68 52 C-70 50 -70 50 -70.1953125 48.0546875 C-70.13020833 46.03645833 -70.06510417 44.01822917 -70 42 C-66.98768149 41.34105533 -64.14840818 40.93241335 -61.0625 40.6875 C-56.84921533 40.15588028 -54.2594697 38.81499655 -51 36 C-47.21850299 31.02434604 -46.56786406 27.42955453 -46.6640625 21.234375 C-46.88045499 18.71908833 -46.88045499 18.71908833 -49 16 C-53.75403762 14.41532079 -58.4981016 13.75135458 -63.12109375 16.05859375 C-65.23819924 17.58142402 -67.11208339 19.20124578 -69 21 C-69.59683594 21.556875 -70.19367188 22.11375 -70.80859375 22.6875 C-82.49416073 34.7634534 -87.45001457 51.88545589 -87.43359375 68.2734375 C-86.81515577 73.58866125 -85.43623228 77.52597213 -81.625 81.4375 C-74.7220062 84.41292836 -67.02848071 83.92171662 -59.875 81.8125 C-51.46381633 78.42553005 -44.0921298 72.42345281 -36.79663086 67.12988281 C-35 66 -35 66 -33 66 C-33.04640625 65.20980469 -33.0928125 64.41960937 -33.140625 63.60546875 C-33.767191 44.02528112 -28.2985604 20.90925664 -15.13671875 5.87109375 C-10.32881306 0.94373699 -7.13881332 -0.83403958 0 0 Z " fill="#F5F5F5" transform="translate(328,14)"/>
<path d="M0 0 C3.5 0.75 3.5 0.75 6.5 2.75 C9.03402724 3.12953336 11.45333323 3.39514761 14 3.5625 C14.67675781 3.62630859 15.35351562 3.69011719 16.05078125 3.75585938 C19.96000489 4.11034621 19.96000489 4.11034621 23.25390625 2.28125 C23.87072266 1.52328125 23.87072266 1.52328125 24.5 0.75 C30.48678549 0.20574677 30.48678549 0.20574677 33.33984375 1.73828125 C36.98006017 3.44319274 40.85430647 3.21231327 44.8203125 3.40625 C47.5 3.75 47.5 3.75 49.5 5.75 C49.9375 8.0625 49.9375 8.0625 49.5 10.75 C47.84375435 12.42702293 46.17476556 14.09147178 44.5 15.75 C42.5552644 18.14344121 40.74553891 20.62734847 38.9375 23.125 C38.46892578 23.75921875 38.00035156 24.3934375 37.51757812 25.046875 C34.53203358 29.13895004 31.93810439 33.30978165 29.5 37.75 C31.06160485 37.83187055 32.62448483 37.88958275 34.1875 37.9375 C35.49267578 37.98970703 35.49267578 37.98970703 36.82421875 38.04296875 C40.16169587 37.67755155 41.89336642 36.8650712 44.5 34.75 C45.53201405 32.19120124 45.53201405 32.19120124 45.9375 29.25 C48.33863468 18.26580376 53.37175473 10.37212702 62.5 3.75 C65.99238393 1.74499159 68.44213426 1.31831216 72.5 1.75 C73.52196992 2.72753644 74.51979625 3.7305881 75.5 4.75 C77.80988315 5.49386068 80.14315944 6.17190703 82.5 6.75 C82.71777076 12.54512192 82.43435396 17.68086769 81.01171875 23.30078125 C80.01887637 28.05278258 79.8110005 32.91312386 79.5 37.75 C85.89040222 35.19701053 88.75334814 32.48017343 92.5 26.75 C93.16 26.75 93.82 26.75 94.5 26.75 C96.49675851 35.8780389 96.49675851 35.8780389 94.21875 40.15625 C90.06387619 45.04004904 85.87344666 48.1992332 79.4375 49.25 C75.45580686 48.572265 73.99751568 46.83516643 71.5 43.75 C71.5 43.09 71.5 42.43 71.5 41.75 C70.79423828 42.27400391 70.79423828 42.27400391 70.07421875 42.80859375 C69.45160156 43.26363281 68.82898438 43.71867187 68.1875 44.1875 C67.57261719 44.63996094 66.95773438 45.09242187 66.32421875 45.55859375 C62.09442015 48.32109605 57.38447626 48.31462753 52.5 47.75 C51.51 46.9146875 51.51 46.9146875 50.5 46.0625 C49.84 45.629375 49.18 45.19625 48.5 44.75 C46.1924153 45.2622838 44.07465322 46.06600615 41.86328125 46.8984375 C35.83073092 49.07214985 31.3685359 48.96610946 25.5078125 46.4609375 C21.14813653 44.917239 16.92507396 45.26486844 12.5625 46.75 C6.55087462 48.71297972 1.23861428 48.26939163 -4.5 45.75 C-11.49240176 43.43596776 -15.47001275 43.76377362 -22.10546875 46.8359375 C-26.06442634 48.34718722 -28.45539737 47.95628499 -32.5 46.75 C-36.58748576 41.32204547 -36.24504503 36.27768814 -35.5 29.75 C-31.07957733 7.44889658 -31.07957733 7.44889658 -25.625 1.8125 C-23.02828873 0.51414437 -21.36780114 0.37265775 -18.5 0.75 C-17.84 1.41 -17.18 2.07 -16.5 2.75 C-16.94676936 7.95167185 -18.6110423 12.9828053 -20 18 C-21.79280532 24.60871039 -23.16226642 30.88275045 -23.5 37.75 C-11.21787173 35.00872698 -3.58977162 24.29080757 2.953125 14.20703125 C3.71882813 12.99080078 3.71882813 12.99080078 4.5 11.75 C1.42289939 11.38798816 -1.43638624 11.22569026 -4.5 11.75 C-6.69031964 13.53354599 -7.8765978 15.38868771 -9.5 17.75 C-10.16 17.75 -10.82 17.75 -11.5 17.75 C-12.1006222 11.02303135 -10.85565212 6.97678255 -6.5 1.75 C-3.5 -0.25 -3.5 -0.25 0 0 Z " fill="#F5F5F5" transform="translate(112.5,55.25)"/>
<path d="M0 0 C5.94619781 3.69745391 11.67719125 8.26013795 13.6953125 15.22265625 C15.52633454 23.76216419 13.37663769 30.92709876 8.96875 38.3125 C4.11579265 44.83096934 -3.85689093 48.65205616 -11.73046875 50 C-12.76042969 50.11085937 -13.79039063 50.22171875 -14.8515625 50.3359375 C-14.79935547 52.11097656 -14.79935547 52.11097656 -14.74609375 53.921875 C-14.46639012 67.26854133 -15.78996902 77.2284019 -23.8515625 88.3359375 C-28.63995948 92.90161834 -32.82017604 93.82304753 -39.28125 93.73828125 C-43.7011283 93.0464158 -46.11036189 90.74411473 -48.8515625 87.3359375 C-55.99080633 77.1797874 -56.33958102 63.64067028 -56.2265625 51.7109375 C-56.23816406 50.47859375 -56.24976563 49.24625 -56.26171875 47.9765625 C-56.23729188 40.30652426 -55.31173065 33.60809742 -52.8515625 26.3359375 C-48.79874538 27.56120779 -45.40795486 29.03474244 -41.8515625 31.3359375 C-41.92157471 31.99078125 -41.99158691 32.645625 -42.0637207 33.3203125 C-42.76461352 40.34039542 -43.03452986 47.28314282 -43.0390625 54.3359375 C-43.05130859 55.33882812 -43.06355469 56.34171875 -43.07617188 57.375 C-43.09195501 65.51909937 -42.86405182 74.05849689 -38.8515625 81.3359375 C-36.8715625 81.3359375 -34.8915625 81.3359375 -32.8515625 81.3359375 C-27.31215599 71.36500579 -26.52288907 61.60715736 -25.8515625 50.3359375 C-26.79386719 50.02914062 -27.73617187 49.72234375 -28.70703125 49.40625 C-33.72566708 47.69804352 -33.72566708 47.69804352 -35.8515625 45.3359375 C-36.48827361 42.63392816 -36.6686446 40.12543552 -36.8515625 37.3359375 C-33.29862757 36.18645855 -32.05179581 36.2490438 -28.5390625 37.7734375 C-27.6521875 38.2890625 -26.7653125 38.8046875 -25.8515625 39.3359375 C-25.90376953 38.37494141 -25.90376953 38.37494141 -25.95703125 37.39453125 C-26.18349858 30.15836091 -25.63356166 25.34350416 -20.5390625 19.8359375 C-17.8515625 18.3359375 -17.8515625 18.3359375 -14.6015625 18.5234375 C-11.8515625 19.3359375 -11.8515625 19.3359375 -10.8515625 20.3359375 C-10.91671223 22.04759847 -11.05474326 23.75667639 -11.2265625 25.4609375 C-11.32582031 26.44964844 -11.42507812 27.43835938 -11.52734375 28.45703125 C-11.89980087 31.76427099 -12.34003315 35.04753453 -12.8515625 38.3359375 C-6.2460121 36.69534328 -2.7163468 35.01233944 1.1484375 29.3359375 C2.76018061 26.11245128 2.59837755 22.83112397 2.1484375 19.3359375 C0.00775633 14.69779497 -2.71464549 12.07577707 -7.3125 10.03515625 C-13.45427212 8.3438067 -20.53876426 7.90270592 -26.4609375 10.46484375 C-28.5881442 11.77993199 -28.5881442 11.77993199 -30.3984375 13.2421875 C-31.8515625 14.3359375 -31.8515625 14.3359375 -33.8515625 14.3359375 C-35.32399415 9.91864254 -36.3388089 6.81923099 -34.8515625 2.3359375 C-26.41062347 -5.57744284 -9.8202502 -4.72578593 0 0 Z " fill="#F6F6F6" transform="translate(67.8515625,16.6640625)"/>
<path d="M0 0 C0 1.32 0 2.64 0 4 C-0.61746094 4.268125 -1.23492188 4.53625 -1.87109375 4.8125 C-8.61066343 7.93096146 -13.69193849 11.83297394 -19 17 C-18.38125 16.484375 -17.7625 15.96875 -17.125 15.4375 C-14.44553324 13.34751593 -11.75037819 11.30755045 -9 9.3125 C-8.175 8.71050781 -7.35 8.10851562 -6.5 7.48828125 C-3.93551258 5.96160983 -1.93782198 5.3934583 1 5 C1.99 7.31 2.98 9.62 4 12 C4.33 9.69 4.66 7.38 5 5 C7.18994248 8.28491373 7.35277339 9.83095639 7.625 13.6875 C7.69976562 14.68136719 7.77453125 15.67523438 7.8515625 16.69921875 C7.90054688 17.45847656 7.94953125 18.21773437 8 19 C8.55945312 18.566875 9.11890625 18.13375 9.6953125 17.6875 C16.99264881 12.61925356 23.24322128 11.78030582 32 13 C37.45417697 14.59080162 40.85137514 17.21409021 44 22 C45.60819739 25.21639478 45.46861231 28.51144167 45 32 C42.4730021 36.86681076 39.26316993 40.93050669 33.90234375 42.6875 C31.94885497 43.18362413 29.97506655 43.59829155 28 44 C28.144375 42.906875 28.28875 41.81375 28.4375 40.6875 C29.09310693 35.470742 29.54748223 30.23765253 30 25 C27.24293584 24.13617572 27.24293584 24.13617572 24 24 C20.78661509 25.82578688 19.33870521 27.28871905 17.75 30.625 C16.75981008 35.08085463 16.36895049 39.44961062 16 44 C12.7 43.01 9.4 42.02 6 41 C6 40.01 6 39.02 6 38 C3.17671031 34.54153741 -0.74506274 32.96312402 -4.6875 31.0625 C-6.06640625 30.38671875 -7.4453125 29.7109375 -8.82421875 29.03515625 C-10.96715195 27.98721891 -13.11236458 26.94675685 -15.26806641 25.92529297 C-16.351604 25.40346436 -16.351604 25.40346436 -17.45703125 24.87109375 C-18.44086792 24.40401001 -18.44086792 24.40401001 -19.44458008 23.92749023 C-21 23 -21 23 -22 21 C-24.02463255 20.34786708 -24.02463255 20.34786708 -26 20 C-21.47055181 11.44437564 -14.96973836 4.98486918 -6.25 0.625 C-4 0 -4 0 0 0 Z " fill="#070707" transform="translate(26,12)"/>
<path d="M0 0 C0 1.32 0 2.64 0 4 C-0.61746094 4.268125 -1.23492188 4.53625 -1.87109375 4.8125 C-8.61066343 7.93096146 -13.69193849 11.83297394 -19 17 C-18.38125 16.484375 -17.7625 15.96875 -17.125 15.4375 C-14.44553324 13.34751593 -11.75037819 11.30755045 -9 9.3125 C-8.175 8.71050781 -7.35 8.10851562 -6.5 7.48828125 C-3.91552971 5.94971378 -1.93211718 5.50914993 1 5 C3.94454784 12.06536709 6.45733914 19.19890834 8.75 26.5 C9.06582031 27.48742187 9.38164063 28.47484375 9.70703125 29.4921875 C12 36.7383658 12 36.7383658 12 39 C6.07882783 37.33220317 0.8944168 34.44779825 -4.5 31.5625 C-6.34350868 30.58418054 -8.18725251 29.60630406 -10.03125 28.62890625 C-10.89105469 28.17016113 -11.75085938 27.71141602 -12.63671875 27.23876953 C-14.60076749 26.20926712 -16.59410268 25.23587035 -18.59375 24.27734375 C-21 23 -21 23 -22 21 C-24.02463255 20.34786708 -24.02463255 20.34786708 -26 20 C-21.47055181 11.44437564 -14.96973836 4.98486918 -6.25 0.625 C-4 0 -4 0 0 0 Z " fill="#CD2727" transform="translate(26,12)"/>
<path d="M0 0 C4.60063529 1.80739243 6.89734044 5.01521279 9.25 9.25 C11.63952255 18.01158268 9.2230227 25.15266162 5 33 C1.0282353 38.9724303 -4.10625812 43.7267569 -11 46 C-15.05214504 46.47408101 -18.95756753 46.59911246 -23 46 C-25 44 -25 44 -25.1953125 42.0546875 C-25.09765625 39.02734375 -25.09765625 39.02734375 -25 36 C-21.98768149 35.34105533 -19.14840818 34.93241335 -16.0625 34.6875 C-11.84921533 34.15588028 -9.2594697 32.81499655 -6 30 C-1.81713618 24.49623181 -1.14726333 19.83357467 -2 13 C-2.391875 12.113125 -2.78375 11.22625 -3.1875 10.3125 C-4 8 -4 8 -2.6875 4.25 C-1 1 -1 1 0 0 Z " fill="#F4F4F4" transform="translate(283,20)"/>
<path d="M0 0 C3.75 0.1875 3.75 0.1875 7 1 C7 8.11768125 -0.54887666 15.75244258 -5 21 C-9.10477677 24.79828677 -12.96858333 27.71873454 -18.65234375 28.24609375 C-20.95354268 28.07523064 -22.85330526 27.84370096 -25 27 C-25.33 26.34 -25.66 25.68 -26 25 C-23.75568265 21.91249387 -21.50356246 18.83076296 -19.25 15.75 C-18.61578125 14.87730469 -17.9815625 14.00460938 -17.328125 13.10546875 C-16.709375 12.26113281 -16.090625 11.41679688 -15.453125 10.546875 C-14.88754883 9.77182617 -14.32197266 8.99677734 -13.73925781 8.19824219 C-11.96523149 5.9560562 -10.05922172 3.98032433 -8 2 C-8 3.65 -8 5.3 -8 7 C-5.03417878 5.83485595 -4.01485811 5.02203099 -2.1875 2.3125 C-1.465625 1.549375 -0.74375 0.78625 0 0 Z " fill="#080808" transform="translate(138,66)"/>
<path d="M0 0 C1.67888427 1.67888427 1.21165448 3.69926893 1.25 6 C1.17101352 12.74895603 0.18252804 18.30393595 -4.125 23.625 C-8.25055066 25.59808944 -11.61449373 24.87901215 -16 24 C-15.56219954 15.92333632 -14.85014119 8.32799218 -10.3125 1.4375 C-6.78316677 -0.75640985 -4.11080287 -0.33695105 0 0 Z " fill="#070707" transform="translate(387,70)"/>
<path d="M0 0 C-3.47877013 21.47877013 -3.47877013 21.47877013 -9 27 C-11.625 26.625 -11.625 26.625 -14 26 C-15.02330546 17.43455428 -12.60406689 11.20177436 -8 4 C-4.67774086 0 -4.67774086 0 0 0 Z " fill="#080808" transform="translate(184,67)"/>
<path d="M0 0 C0.36504603 1.58086048 0.71660506 3.16483907 1.0625 4.75 C1.35833984 6.07257812 1.35833984 6.07257812 1.66015625 7.421875 C1.99825872 9.98679028 1.81158635 11.57091639 1 14 C1 13.34 1 12.68 1 12 C-0.27875 12.103125 -1.5575 12.20625 -2.875 12.3125 C-3.59429688 12.37050781 -4.31359375 12.42851562 -5.0546875 12.48828125 C-7.39519216 12.87393036 -7.39519216 12.87393036 -9 16 C-9.99 16 -10.98 16 -12 16 C-12 14.68 -12 13.36 -12 12 C-14.51083114 13.25541557 -14.87125446 14.50063488 -16 17 C-17.32 16.67 -18.64 16.34 -20 16 C-19.14484119 11.38214245 -17.23924849 8.03542473 -13.625 5.015625 C-12.75875 4.43296875 -11.8925 3.8503125 -11 3.25 C-10.13375 2.65703125 -9.2675 2.0640625 -8.375 1.453125 C-5.05344883 -0.57913986 -3.7762073 -1.25873577 0 0 Z " fill="#ED2329" transform="translate(28,18)"/>
<path d="M0 0 C0.66 0 1.32 0 2 0 C1.93637941 13.2330831 -4.34716519 25.86475875 -11 37 C-11.33 37 -11.66 37 -12 37 C-11.20467587 25.66663108 -8.46508834 8.46508834 0 0 Z " fill="#0B0B0B" transform="translate(319,25)"/>
<path d="M0 0 C0.66 0.33 1.32 0.66 2 1 C2.52759895 14.04158662 -4.40289845 25.2285538 -11 36 C-12.14407088 32.56778736 -11.81694289 31.42575347 -10.92578125 27.9921875 C-10.66990234 27.00476563 -10.41402344 26.01734375 -10.15039062 25 C-9.87388672 23.96875 -9.59738281 22.9375 -9.3125 21.875 C-9.05533203 20.86695312 -8.79816406 19.85890625 -8.53320312 18.8203125 C-6.91827081 12.69388622 -5.19344156 6.52047717 -2 1 C-1.34 0.67 -0.68 0.34 0 0 Z " fill="#0B0B0B" transform="translate(386,23)"/>
<path d="M0 0 C0 1.32 0 2.64 0 4 C-0.61746094 4.268125 -1.23492188 4.53625 -1.87109375 4.8125 C-8.61066343 7.93096146 -13.69193849 11.83297394 -19 17 C-18.01 16.67 -17.02 16.34 -16 16 C-15.34 16.66 -14.68 17.32 -14 18 C-14.99 18.33 -15.98 18.66 -17 19 C-17 19.99 -17 20.98 -17 22 C-16.01 22.66 -15.02 23.32 -14 24 C-15.8125 24.625 -15.8125 24.625 -18 25 C-21 23 -21 23 -22 21 C-24.02463255 20.34786708 -24.02463255 20.34786708 -26 20 C-21.47055181 11.44437564 -14.96973836 4.98486918 -6.25 0.625 C-4 0 -4 0 0 0 Z " fill="#CC2929" transform="translate(26,12)"/>
<path d="M0 0 C2.3125 0.9375 2.3125 0.9375 4.3125 2.9375 C5.02560584 7.23271892 5.04332335 10.82773122 2.625 14.5 C-0.15339103 16.22710794 -1.47944408 16.59556275 -4.6875 15.9375 C-7.38392883 13.61299239 -7.67333627 12.03487567 -8.1875 8.5 C-7.6875 4.9375 -7.6875 4.9375 -5.5 1.9375 C-2.6875 -0.0625 -2.6875 -0.0625 0 0 Z " fill="#F5F5F5" transform="translate(99.6875,28.0625)"/>
<path d="M0 0 C3.375 0.375 3.375 0.375 5.375 1.375 C3.72332443 4.9536304 1.59213508 8.12320188 -0.625 11.375 C-1.615 11.045 -2.605 10.715 -3.625 10.375 C-4.8315625 10.931875 -4.8315625 10.931875 -6.0625 11.5 C-6.908125 11.78875 -7.75375 12.0775 -8.625 12.375 C-10.9375 11.125 -10.9375 11.125 -12.625 9.375 C-12.625 8.715 -12.625 8.055 -12.625 7.375 C-11.51125 7.0346875 -11.51125 7.0346875 -10.375 6.6875 C-7.43497247 5.55668231 -7.43497247 5.55668231 -5.75 2.75 C-3.625 0.375 -3.625 0.375 0 0 Z " fill="#0D0D0D" transform="translate(111.625,65.625)"/>
<path d="M0 0 C1.32 0 2.64 0 4 0 C4 1.65 4 3.3 4 5 C6.475 5.99 6.475 5.99 9 7 C9 8.98 9 10.96 9 13 C8.01 13 7.02 13 6 13 C6 12.01 6 11.02 6 10 C6.66 10 7.32 10 8 10 C8 9.34 8 8.68 8 8 C7.34 8 6.68 8 6 8 C5.34 9.98 4.68 11.96 4 14 C2.02 13.01 0.04 12.02 -2 11 C-2 10.34 -2 9.68 -2 9 C-2.66 9 -3.32 9 -4 9 C-4 8.01 -4 7.02 -4 6 C-3.34 6 -2.68 6 -2 6 C-1.34 4.02 -0.68 2.04 0 0 Z " fill="#DF292C" transform="translate(24,31)"/>
<path d="M0 0 C0.33 1.98 0.66 3.96 1 6 C-0.32 6.33 -1.64 6.66 -3 7 C-3.33 6.01 -3.66 5.02 -4 4 C-4.99 4 -5.98 4 -7 4 C-7 4.99 -7 5.98 -7 7 C-5.68 7.66 -4.36 8.32 -3 9 C-4.76602319 9.41676948 -6.53814301 9.8077738 -8.3125 10.1875 C-9.29863281 10.40792969 -10.28476562 10.62835938 -11.30078125 10.85546875 C-14 11 -14 11 -15.85546875 9.55078125 C-16.23316406 9.03902344 -16.61085938 8.52726562 -17 8 C-15.23268551 6.6827656 -13.46102239 5.37136412 -11.6875 4.0625 C-10.70136719 3.33160156 -9.71523438 2.60070312 -8.69921875 1.84765625 C-5.27311144 -0.49756626 -4.0142578 -1.33808593 0 0 Z " fill="#C7262C" transform="translate(28,18)"/>
<path d="M0 0 C-3.465 7.425 -3.465 7.425 -7 15 C-7.66 14.34 -8.32 13.68 -9 13 C-9 12.01 -9 11.02 -9 10 C-9.99 9.67 -10.98 9.34 -12 9 C-11.66156193 5.95405733 -10.76208715 4.70090955 -8.8125 2.25 C-6 0 -6 0 0 0 Z " fill="#0D0D0D" transform="translate(167,66)"/>
<path d="M0 0 C1 2 2 4 3 6 C2.28735352 7.69580078 2.28735352 7.69580078 1.12890625 9.6953125 C0.51499023 10.76845703 0.51499023 10.76845703 -0.11132812 11.86328125 C-0.54896484 12.60964844 -0.98660156 13.35601562 -1.4375 14.125 C-1.87126953 14.87910156 -2.30503906 15.63320313 -2.75195312 16.41015625 C-3.82748966 18.27757134 -4.91284139 20.13932697 -6 22 C-7.35949488 17.92151537 -6.14486103 14.82319055 -5.0625 10.8125 C-4.86720703 10.06291016 -4.67191406 9.31332031 -4.47070312 8.54101562 C-3.98785625 6.69206541 -3.49489367 4.84576224 -3 3 C-2.34 3 -1.68 3 -1 3 C-0.67 2.01 -0.34 1.02 0 0 Z " fill="#111111" transform="translate(381,37)"/>
<path d="M0 0 C0.66 0 1.32 0 2 0 C2 0.66 2 1.32 2 2 C2.99 2.33 3.98 2.66 5 3 C4.01 4.32 3.02 5.64 2 7 C2.66 6.67 3.32 6.34 4 6 C4.66 6.66 5.32 7.32 6 8 C5.01 8.33 4.02 8.66 3 9 C3 9.99 3 10.98 3 12 C3.99 12.66 4.98 13.32 6 14 C4.1875 14.625 4.1875 14.625 2 15 C-1 13 -1 13 -2 11 C-4.02463255 10.34786708 -4.02463255 10.34786708 -6 10 C-4.07119658 6.59244728 -2.1723491 3.25852365 0 0 Z " fill="#C32B31" transform="translate(6,22)"/>
<path d="M0 0 C0.66 0 1.32 0 2 0 C2.33 1.32 2.66 2.64 3 4 C4.65 4 6.3 4 8 4 C8 4.99 8 5.98 8 7 C7.34 7 6.68 7 6 7 C6 7.99 6 8.98 6 10 C6.66 10 7.32 10 8 10 C8.33 10.99 8.66 11.98 9 13 C4.76570244 11.68938409 0.92592596 10.05643741 -3 8 C-1.125 1.125 -1.125 1.125 0 0 Z " fill="#DF1E20" transform="translate(14,30)"/>
<path d="M0 0 C1.65 0 3.3 0 5 0 C5 0.99 5 1.98 5 3 C1.66666667 6 1.66666667 6 -1 6 C-1.2475 6.7425 -1.495 7.485 -1.75 8.25 C-3.09147301 11.20124062 -4.60905526 12.84814974 -7 15 C-7 12.69 -7 10.38 -7 8 C-6.34 8 -5.68 8 -5 8 C-5 6.35 -5 4.7 -5 3 C-3.35 2.67 -1.7 2.34 0 2 C0 1.34 0 0.68 0 0 Z " fill="#170305" transform="translate(7,16)"/>
<path d="M0 0 C0.721875 0.185625 1.44375 0.37125 2.1875 0.5625 C5.12826973 1.01995307 7.14103058 0.73516357 10 0 C10 1.98 10 3.96 10 6 C8.68 6.33 7.36 6.66 6 7 C6 5.68 6 4.36 6 3 C3.48916886 4.25541557 3.12874554 5.50063488 2 8 C0.68 7.67 -0.64 7.34 -2 7 C-1.42415568 4.61435923 -0.77772405 2.33317216 0 0 Z " fill="#E96467" transform="translate(10,27)"/>
<path d="M0 0 C1.98 0 3.96 0 6 0 C5.67 0.99 5.34 1.98 5 3 C5.99 3.33 6.98 3.66 8 4 C7.67 5.32 7.34 6.64 7 8 C5.35 8 3.7 8 2 8 C2 7.34 2 6.68 2 6 C1.34 6 0.68 6 0 6 C0 4.02 0 2.04 0 0 Z " fill="#060505" transform="translate(0,32)"/>
<path d="M0 0 C2.60646715 3.90970072 2.41467207 6.99950297 2.65625 11.6015625 C2.82640625 12.78878906 2.82640625 12.78878906 3 14 C3.66 14.33 4.32 14.66 5 15 C4.34 15 3.68 15 3 15 C3.33 15.66 3.66 16.32 4 17 C4.039992 18.99960012 4.04346799 21.00047242 4 23 C0.03222009 15.58423667 -1.71380175 8.25740843 0 0 Z " fill="#2A1112" transform="translate(31,17)"/>
<path d="M0 0 C4.95 2.31 9.9 4.62 15 7 C14.67 7.99 14.34 8.98 14 10 C9.69235185 8.43358249 5.93828536 6.31663844 2 4 C2 3.34 2 2.68 2 2 C1.34 2 0.68 2 0 2 C0 1.34 0 0.68 0 0 Z " fill="#2F070A" transform="translate(14,39)"/>
<path d="M0 0 C2.475 0.99 2.475 0.99 5 2 C5 3.98 5 5.96 5 8 C4.01 8 3.02 8 2 8 C2 7.01 2 6.02 2 5 C2.66 5 3.32 5 4 5 C4 4.34 4 3.68 4 3 C3.34 3 2.68 3 2 3 C1.34 4.98 0.68 6.96 0 9 C-0.99 8.67 -1.98 8.34 -3 8 C-3 6.68 -3 5.36 -3 4 C-2.01 4 -1.02 4 0 4 C0 2.68 0 1.36 0 0 Z " fill="#F65E62" transform="translate(28,36)"/>
<path d="M0 0 C1.32 0 2.64 0 4 0 C4 0.66 4 1.32 4 2 C4.99 2 5.98 2 7 2 C7 1.34 7 0.68 7 0 C7.99 0.33 8.98 0.66 10 1 C10 2.65 10 4.3 10 6 C6.7 5.01 3.4 4.02 0 3 C0 2.01 0 1.02 0 0 Z " fill="#160E0E" transform="translate(32,50)"/>
<path d="M0 0 C6.875 1.875 6.875 1.875 8 3 C9.99958364 3.04080783 12.00045254 3.04254356 14 3 C14.33 4.65 14.66 6.3 15 8 C9.52067211 6.45454854 4.88570819 3.84456788 0 1 C0 0.67 0 0.34 0 0 Z " fill="#B72E32" transform="translate(23,43)"/>
<path d="M0 0 C0.99 0.66 1.98 1.32 3 2 C2.01 2.33 1.02 2.66 0 3 C0 3.99 0 4.98 0 6 C0.99 6.66 1.98 7.32 3 8 C1.1875 8.625 1.1875 8.625 -1 9 C-4 7 -4 7 -4.6875 4.875 C-4.790625 4.25625 -4.89375 3.6375 -5 3 C-3.35 2.01 -1.7 1.02 0 0 Z " fill="#A9252B" transform="translate(9,28)"/>
<path d="M0 0 C3.465 1.485 3.465 1.485 7 3 C6.34 4.32 5.68 5.64 5 7 C3.68 6.67 2.36 6.34 1 6 C0.67 4.02 0.34 2.04 0 0 Z " fill="#0B0B0B" transform="translate(33,63)"/>
<path d="M0 0 C-0.99 0.66 -1.98 1.32 -3 2 C-4.89353366 3.89353366 -6.4198632 5.84526801 -8 8 C-8.99 7.34 -9.98 6.68 -11 6 C-7.34769214 1.25199978 -6.01084259 -0.15818007 0 0 Z " fill="#DADADA" transform="translate(114,55)"/>
<path d="M0 0 C0.33 1.98 0.66 3.96 1 6 C-0.32 6.33 -1.64 6.66 -3 7 C-3.12375 6.030625 -3.2475 5.06125 -3.375 4.0625 C-3.58125 3.051875 -3.7875 2.04125 -4 1 C-4.66 0.67 -5.32 0.34 -6 0 C-3 -1 -3 -1 0 0 Z " fill="#CC3233" transform="translate(28,18)"/>
<path d="M0 0 C0.66 0.33 1.32 0.66 2 1 C1.67 4.63 1.34 8.26 1 12 C0.34 11.67 -0.32 11.34 -1 11 C-1.484375 9.00390625 -1.484375 9.00390625 -1.75 6.5625 C-1.84796875 5.75941406 -1.9459375 4.95632812 -2.046875 4.12890625 C-2 2 -2 2 0 0 Z " fill="#100304" transform="translate(30,13)"/>
<path d="M0 0 C-1.15173355 2.46800047 -2.04783565 4.04783565 -4 6 C-4.64767793 8.57061311 -4.64767793 8.57061311 -5 11 C-5.33 11 -5.66 11 -6 11 C-6.36476427 4.67741935 -6.36476427 4.67741935 -4.6875 1.5625 C-3 0 -3 0 0 0 Z " fill="#D4D4D4" transform="translate(98,29)"/>
<path d="M0 0 C1.98 1.32 3.96 2.64 6 4 C4.02 4.99 4.02 4.99 2 6 C0.35 4.68 -1.3 3.36 -3 2 C-2.01 1.34 -1.02 0.68 0 0 Z " fill="#141414" transform="translate(394,57)"/>
<path d="M0 0 C0.33 0.99 0.66 1.98 1 3 C2.32 3 3.64 3 5 3 C5 3.99 5 4.98 5 6 C4.34 6 3.68 6 3 6 C3 7.32 3 8.64 3 10 C2.01 9.67 1.02 9.34 0 9 C0.66 9 1.32 9 2 9 C1.67 8.2575 1.34 7.515 1 6.75 C0 4 0 4 0 0 Z " fill="#200302" transform="translate(36,42)"/>
<path d="M0 0 C1.65 0 3.3 0 5 0 C5 0.66 5 1.32 5 2 C7.97 2.495 7.97 2.495 11 3 C11.33 3.99 11.66 4.98 12 6 C7.76570244 4.68938409 3.92592596 3.05643741 0 1 C0 0.67 0 0.34 0 0 Z " fill="#CD2B2C" transform="translate(11,37)"/>
<path d="M0 0 C1.32 0 2.64 0 4 0 C4 1.65 4 3.3 4 5 C2.35 4.67 0.7 4.34 -1 4 C-0.67 2.68 -0.34 1.36 0 0 Z " fill="#FAE1D9" transform="translate(24,31)"/>
<path d="M0 0 C1.9375 0.375 1.9375 0.375 4 1 C4.33 1.66 4.66 2.32 5 3 C4.67 3.66 4.34 4.32 4 5 C2.35 4.67 0.7 4.34 -1 4 C-0.67 2.68 -0.34 1.36 0 0 Z " fill="#FADAD6" transform="translate(21,21)"/>
<path d="M0 0 C1.98 0 3.96 0 6 0 C4.77065985 3.68802044 3.06140622 4.72356973 0 7 C-0.66 6.67 -1.32 6.34 -2 6 C-1.34 4.02 -0.68 2.04 0 0 Z " fill="#090909" transform="translate(379,12)"/>
<path d="M0 0 C1.98 0.495 1.98 0.495 4 1 C2.68 3.64 1.36 6.28 0 9 C-0.33 9 -0.66 9 -1 9 C-0.67 6.03 -0.34 3.06 0 0 Z " fill="#202020" transform="translate(308,53)"/>
<path d="M0 0 C1.98 0 3.96 0 6 0 C5.67 0.99 5.34 1.98 5 3 C5.99 3.33 6.98 3.66 8 4 C7.01 4.66 6.02 5.32 5 6 C4.01 5.34 3.02 4.68 2 4 C2 3.34 2 2.68 2 2 C1.34 2 0.68 2 0 2 C0 1.34 0 0.68 0 0 Z " fill="#2C0303" transform="translate(0,32)"/>
<path d="M0 0 C1.98 0.495 1.98 0.495 4 1 C3.67 2.32 3.34 3.64 3 5 C1.68 4.67 0.36 4.34 -1 4 C-0.67 2.68 -0.34 1.36 0 0 Z " fill="#FAD0D0" transform="translate(9,30)"/>
<path d="M0 0 C0.9075 0.103125 1.815 0.20625 2.75 0.3125 C1.76 0.9725 0.77 1.6325 -0.25 2.3125 C-1.24 3.7975 -1.24 3.7975 -2.25 5.3125 C-4.875 5.5 -4.875 5.5 -7.25 5.3125 C-4.05 0.38942308 -4.05 0.38942308 0 0 Z " fill="#C92426" transform="translate(24.25,29.6875)"/>
<path d="M0 0 C2.97 0 5.94 0 9 0 C8.67 1.32 8.34 2.64 8 4 C8 3.01 8 2.02 8 1 C3.05 2.485 3.05 2.485 -2 4 C-2 3.34 -2 2.68 -2 2 C-1.34 2 -0.68 2 0 2 C0 1.34 0 0.68 0 0 Z " fill="#300606" transform="translate(18,11)"/>
<path d="M0 0 C1.65 0.99 3.3 1.98 5 3 C4.6875 4.9375 4.6875 4.9375 4 7 C3.01 7.33 2.02 7.66 1 8 C0.67 5.36 0.34 2.72 0 0 Z " fill="#131313" transform="translate(236,103)"/>
<path d="M0 0 C0.99 0.33 1.98 0.66 3 1 C3.33 1.99 3.66 2.98 4 4 C2.02 4.99 0.04 5.98 -2 7 C-1.34 4.69 -0.68 2.38 0 0 Z " fill="#232323" transform="translate(397,83)"/>
<path d="M0 0 C2.31 0.66 4.62 1.32 7 2 C6.67 2.99 6.34 3.98 6 5 C3.08482708 3.92598892 1.22189824 3.22189824 -1 1 C-0.67 0.67 -0.34 0.34 0 0 Z " fill="#1D0606" transform="translate(22,44)"/>
<path d="M0 0 C1.32 0 2.64 0 4 0 C4 1.32 4 2.64 4 4 C2.35 4.33 0.7 4.66 -1 5 C-0.67 3.35 -0.34 1.7 0 0 Z " fill="#BF2935" transform="translate(22,12)"/>
<path d="M0 0 C0 0.99 0 1.98 0 3 C-2 4.6875 -2 4.6875 -4 6 C-4.33 4.35 -4.66 2.7 -5 1 C-2 0 -2 0 0 0 Z " fill="#101010" transform="translate(395,98)"/>
<path d="M0 0 C0.66 0.33 1.32 0.66 2 1 C1.54625 1.433125 1.0925 1.86625 0.625 2.3125 C-1.20024334 4.10798342 -1.20024334 4.10798342 -3 7 C-3.66 7 -4.32 7 -5 7 C-3.75023244 3.34683329 -3.32901247 2.21934164 0 0 Z " fill="#1A1A1A" transform="translate(379,70)"/>
<path d="M0 0 C0 0.99 0 1.98 0 3 C-0.66 3 -1.32 3 -2 3 C-2 3.66 -2 4.32 -2 5 C-3.32 5 -4.64 5 -6 5 C-6 4.34 -6 3.68 -6 3 C-5.34 3 -4.68 3 -4 3 C-4 2.34 -4 1.68 -4 1 C-2 0 -2 0 0 0 Z " fill="#EF2227" transform="translate(22,34)"/>
<path d="M0 0 C0.66 0 1.32 0 2 0 C2.33 1.32 2.66 2.64 3 4 C1.02 4.66 -0.96 5.32 -3 6 C-3.33 5.01 -3.66 4.02 -4 3 C-2.68 3 -1.36 3 0 3 C0 2.01 0 1.02 0 0 Z " fill="#EE1E1D" transform="translate(17,23)"/>
<path d="M0 0 C1.32 0 2.64 0 4 0 C3.67 1.65 3.34 3.3 3 5 C2.01 4.67 1.02 4.34 0 4 C0 2.68 0 1.36 0 0 Z " fill="#E95A5F" transform="translate(25,40)"/>
</svg>
