<?xml version="1.0" encoding="UTF-8"?>
<svg version="1.1" xmlns="http://www.w3.org/2000/svg" width="114" height="100">
<path d="M0 0 C37.62 0 75.24 0 114 0 C114 33 114 66 114 100 C76.38 100 38.76 100 0 100 C0 67 0 34 0 0 Z " fill="#FBFEFE" transform="translate(0,0)"/>
<path d="M0 0 C0.99 0.33 1.98 0.66 3 1 C3.495 11.395 3.495 11.395 4 22 C4.639375 20.205625 5.27875 18.41125 5.9375 16.5625 C7.875 11.125 7.875 11.125 9 10 C15.56935374 9.20714696 15.56935374 9.20714696 18.91015625 11.05859375 C27.97875397 18.41312685 30.77758812 27.6223686 32 39 C33.45645341 58.14919614 33.45645341 58.14919614 27.7265625 65.671875 C24.17158177 68.40647556 19.25268716 67.43804503 15 67 C11.1332246 65.75710791 9.58396084 64.7591491 7.125 61.5625 C5.27704405 55.71063949 5.26515198 49.36930316 6.57421875 43.3671875 C7.19373251 39.92291833 6.0890126 37.26703781 5 34 C1.71303767 33.20046862 0.28976808 32.90341064 -3 34 C-3.2165625 35.11375 -3.2165625 35.11375 -3.4375 36.25 C-4 39 -4 39 -4.625 41.125 C-5.2041405 43.21447673 -5.2041405 43.21447673 -4 46 C-3.5253564 51.82800095 -3.24325547 57.17120072 -5.5 62.625 C-9.38821526 66.31880449 -13.03252483 67.79534654 -18.37890625 68.1640625 C-20.79035286 68.06077154 -22.72562538 67.81035789 -25 67 C-31.44251238 59.91323638 -30.4402118 50.27021696 -30.13183594 41.25878906 C-29.4528734 29.62589755 -26.55179806 20.13171551 -18.0625 11.9375 C-14.305492 9.56061739 -12.36436238 9.19178474 -8 10 C-4.64065594 12.81458557 -3.75647111 15.53979198 -2.89453125 19.69140625 C-2.63893433 20.90292358 -2.63893433 20.90292358 -2.37817383 22.13891602 C-2.19097778 23.06015259 -2.19097778 23.06015259 -2 24 C-1.97494385 23.30849854 -1.9498877 22.61699707 -1.92407227 21.90454102 C-1.80847839 18.79032134 -1.68558758 15.67643211 -1.5625 12.5625 C-1.52318359 11.47388672 -1.48386719 10.38527344 -1.44335938 9.26367188 C-1.40146484 8.22919922 -1.35957031 7.19472656 -1.31640625 6.12890625 C-1.27974854 5.17056885 -1.24309082 4.21223145 -1.20532227 3.22485352 C-1 1 -1 1 0 0 Z " fill="#2C94AB" transform="translate(56,0)"/>
<path d="M0 0 C0.825 0.103125 1.65 0.20625 2.5 0.3125 C4.61759825 3.48889738 4.83692844 5.58050391 5.21484375 9.3046875 C5.57477671 11.83900999 6.41714572 14.00241088 7.5 16.3125 C9.89542583 11.73095739 12.00829734 7.2848422 13.5 2.3125 C14.82 2.3125 16.14 2.3125 17.5 2.3125 C19.10355101 5.82026784 19.72036864 8.45604879 19.5 12.3125 C20.16 12.3125 20.82 12.3125 21.5 12.3125 C21.83 10.6625 22.16 9.0125 22.5 7.3125 C28.341744 6.96199536 32.3531808 7.14522665 37.5 10.3125 C37.5 9.3225 37.5 8.3325 37.5 7.3125 C40.8 7.3125 44.1 7.3125 47.5 7.3125 C47.5 5.3325 47.5 3.3525 47.5 1.3125 C48.49 1.3125 49.48 1.3125 50.5 1.3125 C50.5 10.2225 50.5 19.1325 50.5 28.3125 C12.88 28.3125 -24.74 28.3125 -63.5 28.3125 C-63.5 19.7325 -63.5 11.1525 -63.5 2.3125 C-58.88 2.3125 -54.26 2.3125 -49.5 2.3125 C-48.14560332 5.02129335 -48.43498549 7.32183268 -48.5 10.3125 C-47.5409375 9.57 -47.5409375 9.57 -46.5625 8.8125 C-42.45976517 6.80299723 -38.98556418 7.04864328 -34.5 7.3125 C-34.5 7.9725 -34.5 8.6325 -34.5 9.3125 C-33.819375 8.9825 -33.13875 8.6525 -32.4375 8.3125 C-28.99159762 7.13942685 -26.11602578 7.17069507 -22.5 7.3125 C-22.005 8.7975 -22.005 8.7975 -21.5 10.3125 C-21.83 10.9725 -22.16 11.6325 -22.5 12.3125 C-21.84 12.3125 -21.18 12.3125 -20.5 12.3125 C-20.5 10.9925 -20.5 9.6725 -20.5 8.3125 C-16.77713048 6.45106524 -12.11010348 7.06479177 -8.0625 7.6875 C-6.5 8.3125 -6.5 8.3125 -5.5 10.3125 C-5.314375 8.394375 -5.314375 8.394375 -5.125 6.4375 C-4.75079353 2.57069986 -4.26722241 0.5334028 0 0 Z " fill="#F7FDFE" transform="translate(63.5,71.6875)"/>
<path d="M0 0 C0.66 0.33 1.32 0.66 2 1 C1.9175 1.94875 1.835 2.8975 1.75 3.875 C1.75 11.29603926 5.43530408 17.43677685 10 23 C14.32652979 29.97875182 15.02245591 36.91620795 14 45 C12.24172007 49.24917649 10.40425085 51.08355301 6.3125 52.9375 C1.80538133 54.33597047 -2.51101668 54.59942122 -7 53 C-13.44251238 45.91323638 -12.4402118 36.27021696 -12.13183594 27.25878906 C-11.57617449 17.73845622 -9.88904298 8.06844514 -3 1 C-2.01 0.67 -1.02 0.34 0 0 Z " fill="#39B4B7" transform="translate(38,14)"/>
<path d="M0 0 C4.62 0 9.24 0 14 0 C15.35439668 2.70879335 15.06501451 5.00933268 15 8 C15.639375 7.505 16.27875 7.01 16.9375 6.5 C21.04023483 4.49049723 24.51443582 4.73614328 29 5 C29 5.66 29 6.32 29 7 C29.66 7 30.32 7 31 7 C31.185625 7.7425 31.37125 8.485 31.5625 9.25 C33.60912666 13.16528579 36.0875055 14.04375275 40 16 C40 16.99 40 17.98 40 19 C37.03 19 34.06 19 31 19 C31 19.66 31 20.32 31 21 C34.96 21 38.92 21 43 21 C43 22.65 43 24.3 43 26 C28.81 26 14.62 26 0 26 C0 17.42 0 8.84 0 0 Z " fill="#F8FDFE" transform="translate(0,74)"/>
<path d="M0 0 C0.99 0.33 1.98 0.66 3 1 C3.33 7.93 3.66 14.86 4 22 C4.8971875 19.3084375 4.8971875 19.3084375 5.8125 16.5625 C6.83203125 13.50390625 6.83203125 13.50390625 8 11 C8.99 10.67 9.98 10.34 11 10 C14.13218137 17.5694383 15.23524401 24.83206867 14 33 C12.4130567 36.15088742 10.54122345 38.56466086 8 41 C5.64046906 38.64046906 5.50858587 37.22104383 5 34 C1.71303767 33.20046862 0.28976808 32.90341064 -3 34 C-3.12375 34.78375 -3.2475 35.5675 -3.375 36.375 C-4 39 -4 39 -6 41 C-12.44264559 32.67506128 -17.68026111 25.88417774 -17 15 C-17.99 14.67 -18.98 14.34 -20 14 C-17.12049295 11.20775074 -15.44883655 10.07086893 -11.4375 9.4375 C-8 10 -8 10 -5.6875 11.9375 C-4.15526266 14.71822703 -3.52826454 16.63897034 -2.89453125 19.69140625 C-2.63893433 20.90292358 -2.63893433 20.90292358 -2.37817383 22.13891602 C-2.19097778 23.06015259 -2.19097778 23.06015259 -2 24 C-1.97494385 23.30849854 -1.9498877 22.61699707 -1.92407227 21.90454102 C-1.80847839 18.79032134 -1.68558758 15.67643211 -1.5625 12.5625 C-1.52318359 11.47388672 -1.48386719 10.38527344 -1.44335938 9.26367188 C-1.40146484 8.22919922 -1.35957031 7.19472656 -1.31640625 6.12890625 C-1.27974854 5.17056885 -1.24309082 4.21223145 -1.20532227 3.22485352 C-1 1 -1 1 0 0 Z " fill="#7AB6C3" transform="translate(56,0)"/>
<path d="M0 0 C0.33 0 0.66 0 1 0 C2.92935448 9.86460273 3.88939408 21.94556652 -1 31 C-2.76522361 33.31753283 -3.57130921 33.93135563 -6.48828125 34.3984375 C-16.58041958 34.31468531 -16.58041958 34.31468531 -21 31 C-25.0630778 25.71799886 -24.4776369 19.36543028 -24 13 C-23.67 12.01 -23.34 11.02 -23 10 C-22.34 10 -21.68 10 -21 10 C-21 10.66 -21 11.32 -21 12 C-20.34 12 -19.68 12 -19 12 C-18.608125 12.515625 -18.21625 13.03125 -17.8125 13.5625 C-15.93447735 15.38491433 -15.93447735 15.38491433 -12.5625 14.75 C-11.386875 14.5025 -10.21125 14.255 -9 14 C-8.236875 13.896875 -7.47375 13.79375 -6.6875 13.6875 C-4.27427826 12.70433559 -4.03982589 11.35286094 -3 9 C-2.43188703 7.42596224 -1.89011379 5.8421699 -1.375 4.25 C-1.11460938 3.45078125 -0.85421875 2.6515625 -0.5859375 1.828125 C-0.39257812 1.22484375 -0.19921875 0.6215625 0 0 Z " fill="#39B4B6" transform="translate(86,33)"/>
<path d="M0 0 C0.66 0.33 1.32 0.66 2 1 C1.9175 1.94875 1.835 2.8975 1.75 3.875 C1.75 11.06392522 5.25270402 17.77797442 10 23 C12 26 12 26 11.9375 28.4375 C10.64951561 31.95799065 9.25407542 33.16073998 6 35 C2.61498997 34.82788085 0.03717538 34.51858769 -3 33 C-3 32.34 -3 31.68 -3 31 C-3.99 30.67 -4.98 30.34 -6 30 C-9.71350262 24.71540011 -10.9765052 19.44054553 -10 13 C-8.25987628 8.1262095 -6.36022092 4.10715656 -2.3125 0.8125 C-1.549375 0.544375 -0.78625 0.27625 0 0 Z " fill="#349CB0" transform="translate(38,14)"/>
<path d="M0 0 C0.33 0.99 0.66 1.98 1 3 C0.67 3.66 0.34 4.32 0 5 C0.66 5 1.32 5 2 5 C2 3.68 2 2.36 2 1 C5.12706959 -0.5635348 8.57982443 -0.39958487 12 0 C12.99 0.66 13.98 1.32 15 2 C15.36328125 4.75 15.36328125 4.75 15.3125 8 C15.30863281 9.0725 15.30476563 10.145 15.30078125 11.25 C15 14 15 14 13 16 C10.31160615 16.26991906 7.70858064 16.08737357 5 16 C5 17.65 5 19.3 5 21 C4.01 21 3.02 21 2 21 C1.77570312 20.35546875 1.55140625 19.7109375 1.3203125 19.046875 C0.17110544 16.75611148 0.17110544 16.75611148 -2.3828125 16.390625 C-3.74019531 16.32101563 -3.74019531 16.32101563 -5.125 16.25 C-6.03507812 16.19328125 -6.94515625 16.1365625 -7.8828125 16.078125 C-8.93082031 16.03945312 -8.93082031 16.03945312 -10 16 C-10 15.34 -10 14.68 -10 14 C-7.03 14 -4.06 14 -1 14 C-2.17744585 10.46766245 -2.95605641 10.13691925 -6.0625 8.3125 C-6.79597656 7.87550781 -7.52945313 7.43851562 -8.28515625 6.98828125 C-8.85105469 6.66214844 -9.41695312 6.33601563 -10 6 C-9.625 3.5625 -9.625 3.5625 -9 1 C-6.04335481 -0.4783226 -3.25770263 -0.06032783 0 0 Z " fill="#7EA3BB" transform="translate(41,79)"/>
<path d="M0 0 C2.96762034 -0.4342859 5.14946903 -0.50360386 7.78125 1.0546875 C13.20321551 5.45408934 17.77024194 10.9326337 18.8125 18 C18.874375 18.99 18.93625 19.98 19 21 C18.4740625 20.2575 18.4740625 20.2575 17.9375 19.5 C14.9984205 17.22458361 12.60573045 17.67805978 9 18 C8.01 18.66 7.02 19.32 6 20 C6.04125 21.093125 6.0825 22.18625 6.125 23.3125 C6 27 6 27 3.75 29.9375 C1 32 1 32 -3 32 C-2.06058441 29.39854144 -1.29335379 27.33094435 0.5546875 25.24609375 C3.89076589 20.0616476 2.46290163 11.95544888 1.54296875 6.08203125 C1.09165109 4.03973766 0.5562082 2.01625474 0 0 Z " fill="#3D9DAA" transform="translate(67,10)"/>
<path d="M0 0 C2.32421875 0.08984375 2.32421875 0.08984375 5 1 C6.58203125 3.94140625 6.58203125 3.94140625 7.8125 7.5625 C8.23144531 8.76003906 8.65039062 9.95757812 9.08203125 11.19140625 C9.38496094 12.11824219 9.68789062 13.04507813 10 14 C12.39542583 9.41845739 14.50829734 4.9723422 16 0 C17.32 0 18.64 0 20 0 C21.34495828 7.09705662 22.24091535 13.7725395 22 21 C21.01 21 20.02 21 19 21 C18.93941406 20.22914062 18.87882812 19.45828125 18.81640625 18.6640625 C18.69072266 17.15972656 18.69072266 17.15972656 18.5625 15.625 C18.48128906 14.62726563 18.40007812 13.62953125 18.31640625 12.6015625 C18.15034374 10.02072387 18.15034374 10.02072387 17 8 C15.35 11.96 13.7 15.92 12 20 C11.01 20 10.02 20 9 20 C8.15973604 18.23244474 7.32801278 16.46082737 6.5 14.6875 C6.0359375 13.70136719 5.571875 12.71523437 5.09375 11.69921875 C4 9 4 9 4 6 C3.34 6 2.68 6 2 6 C2 10.62 2 15.24 2 20 C1.01 20.33 0.02 20.66 -1 21 C-1.10808032 13.90272572 -0.93854006 7.03905044 0 0 Z " fill="#3CB0B5" transform="translate(61,74)"/>
<path d="M0 0 C0.99 0 1.98 0 3 0 C3 7.26 3 14.52 3 22 C-0.3 22 -3.6 22 -7 22 C-10.17593238 17.76542349 -10.50477373 16.78234867 -10.27734375 11.90625 C-9.86400707 9.06528805 -9.28677385 7.77040556 -7 6 C-3.3125 5.75 -3.3125 5.75 0 6 C0 4.02 0 2.04 0 0 Z " fill="#3CB6BA" transform="translate(111,73)"/>
<path d="M0 0 C4.02257751 0.8045155 5.51227033 2.55120039 8.125 5.625 C7.320625 6.181875 6.51625 6.73875 5.6875 7.3125 C2.97585935 9.3829365 2.97585935 9.3829365 2.25 12.1875 C1.96937111 14.76544558 1.96937111 14.76544558 3.125 17.625 C7.03890601 19.10194566 10.11934629 20.22726148 14.125 18.625 C13.5 20.5625 13.5 20.5625 12.125 22.625 C7.79335023 23.97262437 5.15099329 23.63799665 1.125 21.625 C1.125 20.965 1.125 20.305 1.125 19.625 C0.135 19.295 -0.855 18.965 -1.875 18.625 C-4.97552186 14.68972225 -6.02456329 10.57055938 -5.875 5.625 C-4.53988435 1.8552617 -3.94195434 0.8569466 0 0 Z " fill="#248CA6" transform="translate(33.875,25.375)"/>
<path d="M0 0 C8.3984375 -0.1953125 8.3984375 -0.1953125 11 0 C13 2 13 2 13.1953125 4.1640625 C13.17210937 4.97617188 13.14890625 5.78828125 13.125 6.625 C13.10695313 7.44226563 13.08890625 8.25953125 13.0703125 9.1015625 C13.03550781 10.04128906 13.03550781 10.04128906 13 11 C11.68 11.33 10.36 11.66 9 12 C10.65 14.97 12.3 17.94 14 21 C10.24623848 19.74874616 9.75926711 18.4347596 8 15 C8 14.34 8 13.68 8 13 C6.02 13 4.04 13 2 13 C2 15.64 2 18.28 2 21 C1.34 21 0.68 21 0 21 C0 14.07 0 7.14 0 0 Z " fill="#3D80AC" transform="translate(0,74)"/>
<path d="M0 0 C0.66 0 1.32 0 2 0 C5.31761872 8.8864787 5.64879431 14.18208041 2 23 C-1.35595828 22.40072174 -3.37801226 21.15377564 -6 19 C-5.57424494 16.76856035 -5.13389613 14.53990225 -4.6875 12.3125 C-4.44386719 11.07113281 -4.20023438 9.82976563 -3.94921875 8.55078125 C-3.04649591 5.17392913 -2.0789858 2.79514029 0 0 Z " fill="#88CDD3" transform="translate(65,10)"/>
<path d="M0 0 C3.88806803 1.47478442 5.14611482 3.33253149 7 7 C7.73046875 10.33203125 7.73046875 10.33203125 8.1875 13.8125 C8.34605469 14.97394531 8.50460938 16.13539062 8.66796875 17.33203125 C8.77753906 18.21246094 8.88710938 19.09289062 9 20 C7.02 20.66 5.04 21.32 3 22 C2.938125 21.4225 2.87625 20.845 2.8125 20.25 C2.14783112 17.73821336 2.14783112 17.73821336 -0.5625 16.1875 C-3 14 -3 14 -3.5 10.6875 C-2.93864127 6.54747935 -1.82766908 3.73149103 0 0 Z " fill="#95CDDF" transform="translate(46,10)"/>
<path d="M0 0 C0.99 0.66 1.98 1.32 3 2 C3.1875 5.625 3.1875 5.625 3 9 C0.03 9 -2.94 9 -6 9 C-6 10.32 -6 11.64 -6 13 C-3.36 13 -0.72 13 2 13 C2 13.99 2 14.98 2 16 C-5.46765028 16.36726149 -5.46765028 16.36726149 -7.73828125 14.80078125 C-9.40027056 12.42871602 -9.40069005 10.87728532 -9.375 8 C-9.38273437 7.13375 -9.39046875 6.2675 -9.3984375 5.375 C-8.47427819 -0.13371433 -5.01944642 -0.522859 0 0 Z " fill="#33ADB1" transform="translate(95,79)"/>
<path d="M0 0 C2.9375 1.3125 2.9375 1.3125 6 3 C6.33 3.99 6.66 4.98 7 6 C7.66 6.33 8.32 6.66 9 7 C9 7.99 9 8.98 9 10 C10.32 10 11.64 10 13 10 C13.33 10.66 13.66 11.32 14 12 C16.52733235 12.65555119 16.52733235 12.65555119 19 13 C16.07248407 14.95167729 14.9152711 15.36553384 11.5625 15.75 C10.41974609 15.89695312 10.41974609 15.89695312 9.25390625 16.046875 C6.61981365 15.99209318 5.21529401 15.39763184 3 14 C-0.26766949 9.88515694 -0.6600035 6.09994748 -1 1 C-0.67 0.67 -0.34 0.34 0 0 Z " fill="#66C5D3" transform="translate(27,52)"/>
<path d="M0 0 C1.23556641 0.01740234 1.23556641 0.01740234 2.49609375 0.03515625 C3.32238281 0.04417969 4.14867187 0.05320312 5 0.0625 C5.63808594 0.07410156 6.27617187 0.08570312 6.93359375 0.09765625 C8.28799043 2.8064496 7.99860826 5.10698893 7.93359375 8.09765625 C4.63359375 8.09765625 1.33359375 8.09765625 -2.06640625 8.09765625 C-1.73640625 9.74765625 -1.40640625 11.39765625 -1.06640625 13.09765625 C1.57359375 13.09765625 4.21359375 13.09765625 6.93359375 13.09765625 C6.93359375 13.75765625 6.93359375 14.41765625 6.93359375 15.09765625 C0.87890625 15.29296875 0.87890625 15.29296875 -1.06640625 15.09765625 C-3.06640625 13.09765625 -3.06640625 13.09765625 -3.296875 10.3125 C-3.28269531 9.23097656 -3.26851562 8.14945313 -3.25390625 7.03515625 C-3.24746094 5.95105469 -3.24101562 4.86695312 -3.234375 3.75 C-3.00588955 0.14205527 -3.00588955 0.14205527 0 0 Z " fill="#4A7FA1" transform="translate(20.06640625,79.90234375)"/>
<path d="M0 0 C-0.90723613 4.68738665 -1.9547267 9.34193744 -3 14 C-2.01 14.33 -1.02 14.66 0 15 C0.33 17.64 0.66 20.28 1 23 C0.01 23 -0.98 23 -2 23 C-5.10184453 17.57537887 -6.46382551 13.21962408 -7 7 C-7.83333333 4.83333333 -7.83333333 4.83333333 -10 4 C-6.58908673 0.88145073 -4.68377325 -0.53528837 0 0 Z " fill="#5BBAC0" transform="translate(46,10)"/>
<path d="M0 0 C2.64 0 5.28 0 8 0 C9.1898306 2.3796612 9.13349966 3.91485735 9.125 6.5625 C9.12757812 7.36816406 9.13015625 8.17382812 9.1328125 9.00390625 C9 11 9 11 8 12 C5.32941149 12.14115161 2.67567762 12.04247107 0 12 C0 8.04 0 4.08 0 0 Z " fill="#F4FCFD" transform="translate(46,81)"/>
<path d="M0 0 C3.18141867 -0.46557346 5.25343123 -0.50963377 7.95703125 1.3359375 C9.6935608 2.84258024 11.369718 4.37936464 13 6 C11.37660195 7.70884005 9.70680947 9.37446717 8 11 C7.34 11 6.68 11 6 11 C5.67 12.32 5.34 13.64 5 15 C4.34 15 3.68 15 3 15 C2.49564306 13.0636296 1.99666126 11.12585854 1.5 9.1875 C1.2215625 8.10855469 0.943125 7.02960937 0.65625 5.91796875 C0 3 0 3 0 0 Z " fill="#4CBABB" transform="translate(67,10)"/>
<path d="M0 0 C6.625 -0.25 6.625 -0.25 10 2 C10.25 5.5625 10.25 5.5625 10 9 C9 10 9 10 6.93359375 10.09765625 C3.46679688 10.04882812 3.46679688 10.04882812 0 10 C0 6.7 0 3.4 0 0 Z " fill="#FBFDFC" transform="translate(2,75)"/>
<path d="M0 0 C2 1.5625 2 1.5625 3 4 C2.77861795 8.20625886 2.34955038 10.47567443 0 14 C-0.99 13.67 -1.98 13.34 -3 13 C-2.34 11.68 -1.68 10.36 -1 9 C-1.99 8.67 -2.98 8.34 -4 8 C-5.02019573 7.0206121 -6.02149805 6.02104551 -7 5 C-7.66 4.67 -8.32 4.34 -9 4 C-9 3.01 -9 2.02 -9 1 C-5.9167365 -0.54163175 -3.39121901 -0.29747535 0 0 Z " fill="#1D8191" transform="translate(83,27)"/>
<path d="M0 0 C1.2375 0.1546875 1.2375 0.1546875 2.5 0.3125 C4.5 3.3125 4.5 3.3125 4.5 6.3125 C3.84 6.3125 3.18 6.3125 2.5 6.3125 C2.17 5.3225 1.84 4.3325 1.5 3.3125 C0.18 2.9825 -1.14 2.6525 -2.5 2.3125 C-2.83 9.2425 -3.16 16.1725 -3.5 23.3125 C-4.82 22.6525 -6.14 21.9925 -7.5 21.3125 C-8.109375 18.2734375 -8.109375 18.2734375 -8.25 14.6875 C-8.30671875 13.49898437 -8.3634375 12.31046875 -8.421875 11.0859375 C-8.44765625 10.17070313 -8.4734375 9.25546875 -8.5 8.3125 C-7.84 8.3125 -7.18 8.3125 -6.5 8.3125 C-6.17 8.9725 -5.84 9.6325 -5.5 10.3125 C-5.37625 9.03375 -5.2525 7.755 -5.125 6.4375 C-4.75079353 2.57069986 -4.26722241 0.5334028 0 0 Z " fill="#E0FBFB" transform="translate(63.5,71.6875)"/>
<path d="M0 0 C1.10652097 3.31956291 0.95237748 3.88796417 -0.25 7 C-0.50265625 7.680625 -0.7553125 8.36125 -1.015625 9.0625 C-2.09659719 11.19012779 -3.14722977 12.50013839 -5 14 C-7.6875 14.1875 -7.6875 14.1875 -10 14 C-10 10.80389448 -9.45328458 9.58282374 -8 6.8125 C-7.62875 6.09707031 -7.2575 5.38164063 -6.875 4.64453125 C-6.441875 3.83048828 -6.441875 3.83048828 -6 3 C-5.01 3.33 -4.02 3.66 -3 4 C-2.67 3.01 -2.34 2.02 -2 1 C-1.34 0.67 -0.68 0.34 0 0 Z " fill="#61C2D0" transform="translate(87,53)"/>
<path d="M0 0 C0.99 0.33 1.98 0.66 3 1 C2.01 2.485 2.01 2.485 1 4 C0.75849227 6.51584891 0.75849227 6.51584891 0.875 9.1875 C0.90207031 10.53908203 0.90207031 10.53908203 0.9296875 11.91796875 C0.95289062 12.60503906 0.97609375 13.29210937 1 14 C0.01 13.67 -0.98 13.34 -2 13 C-2.33 13.99 -2.66 14.98 -3 16 C-3.33 15.01 -3.66 14.02 -4 13 C-6.64 13 -9.28 13 -12 13 C-12 11.68 -12 10.36 -12 9 C-9.03 9 -6.06 9 -3 9 C-3 7.02 -3 5.04 -3 3 C-2.01 3 -1.02 3 0 3 C0 2.01 0 1.02 0 0 Z " fill="#E2FCFC" transform="translate(101,79)"/>
<path d="M0 0 C0.928125 0.103125 1.85625 0.20625 2.8125 0.3125 C3.625 2.5 3.625 2.5 3.8125 5.3125 C1.20404889 8.5171685 -1.35059363 10.74931592 -5.1875 12.3125 C-6.00402673 8.52678516 -6.45772644 6.05959664 -5.125 2.375 C-3.1875 0.3125 -3.1875 0.3125 0 0 Z " fill="#198295" transform="translate(34.1875,25.6875)"/>
<path d="M0 0 C0.99 0 1.98 0 3 0 C4.35439668 2.70879335 4.06501451 5.00933268 4 8 C4.66 8 5.32 8 6 8 C6.33 11.96 6.66 15.92 7 20 C5.33333333 20 3.66666667 20 2 20 C-2 14.58823529 -2 14.58823529 -2 12 C-1.01 11.67 -0.02 11.34 1 11 C1.0270043 9.54176788 1.04639787 8.08339325 1.0625 6.625 C1.07410156 5.81289062 1.08570313 5.00078125 1.09765625 4.1640625 C1.14466334 1.95062858 1.14466334 1.95062858 0 0 Z " fill="#E8F9FD" transform="translate(11,74)"/>
<path d="M0 0 C0.5625 1.9375 0.5625 1.9375 1 4 C0.67 4.33 0.34 4.66 0 5 C0.0587583 6.7509974 0.14712002 8.50104027 0.25 10.25 C0.29385344 14.46541231 0.26096923 15.6302936 -2.25 19.1875 C-5 21 -5 21 -9 21 C-8.05628387 18.38663226 -7.2637371 16.30593503 -5.4375 14.1875 C-3.88062752 11.81834622 -3.71349264 10.58228324 -3.4375 7.8125 C-3.2209375 5.9253125 -3.2209375 5.9253125 -3 4 C-2.34 3.67 -1.68 3.34 -1 3 C-0.67 2.01 -0.34 1.02 0 0 Z " fill="#49A0B5" transform="translate(73,21)"/>
<path d="M0 0 C1.4540625 0.0309375 1.4540625 0.0309375 2.9375 0.0625 C2.9375 3.3625 2.9375 6.6625 2.9375 10.0625 C0.93795254 10.10504356 -1.06291636 10.10330783 -3.0625 10.0625 C-4.0625 9.0625 -4.0625 9.0625 -4.1953125 7.25 C-4.19273438 6.528125 -4.19015625 5.80625 -4.1875 5.0625 C-4.19007812 4.340625 -4.19265625 3.61875 -4.1953125 2.875 C-3.96314697 -0.29337667 -3.23031119 0.06592472 0 0 Z " fill="#ECFDFE" transform="translate(108.0625,81.9375)"/>
<path d="M0 0 C0.99 0.66 1.98 1.32 3 2 C3 2.66 3 3.32 3 4 C2.34 4 1.68 4 1 4 C1 4.99 1 5.98 1 7 C-1.64 7 -4.28 7 -7 7 C-7.66 5.68 -8.32 4.36 -9 3 C-6.39572664 -0.47236449 -4.17901405 -0.43531396 0 0 Z " fill="#4AB1B5" transform="translate(95,79)"/>
<path d="M0 0 C3.80881639 1.44472346 5.29742886 3.32603071 7 7 C6.67 7.99 6.34 8.98 6 10 C6 9.34 6 8.68 6 8 C4.576875 8.2784375 4.576875 8.2784375 3.125 8.5625 C0 9 0 9 -2 8 C-2.33 8.66 -2.66 9.32 -3 10 C-3.66 8.02 -4.32 6.04 -5 4 C-4.0409375 3.8453125 -4.0409375 3.8453125 -3.0625 3.6875 C-2.381875 3.460625 -1.70125 3.23375 -1 3 C-0.67 2.01 -0.34 1.02 0 0 Z " fill="#459DB6" transform="translate(43,33)"/>
<path d="M0 0 C3.01343955 3.32851768 3.44667544 5.81882813 3.6875 10.25 C3.78611328 11.86648437 3.78611328 11.86648437 3.88671875 13.515625 C3.92410156 14.33546875 3.96148437 15.1553125 4 16 C0.15625 15.2109375 0.15625 15.2109375 -1.25 13.3125 C-2.1758912 10.45766881 -2.135557 7.98225393 -2 5 C-1.34 5 -0.68 5 0 5 C0 3.35 0 1.7 0 0 Z " fill="#B4DDE7" transform="translate(50,13)"/>
<path d="M0 0 C0.33 0.99 0.66 1.98 1 3 C1.99 3 2.98 3 4 3 C4.875 5.6875 4.875 5.6875 5 9 C3.21396376 11.18732919 1.37550649 12.38465559 -1 14 C-1.33 14 -1.66 14 -2 14 C-2.21192221 8.80790596 -1.5912689 4.873261 0 0 Z " fill="#ACDAE5" transform="translate(62,15)"/>
<path d="M0 0 C1.98 0 3.96 0 6 0 C6 3.63 6 7.26 6 11 C6.66 11 7.32 11 8 11 C8 11.99 8 12.98 8 14 C6.37581255 14.08090971 4.75048255 14.13914995 3.125 14.1875 C1.76761719 14.23970703 1.76761719 14.23970703 0.3828125 14.29296875 C-0.79667969 14.14794922 -0.79667969 14.14794922 -2 14 C-2.66 13.01 -3.32 12.02 -4 11 C-0.52176885 9.84058962 1.45895578 10.29179116 5 11 C5 7.7 5 4.4 5 1 C3.35 1 1.7 1 0 1 C0 0.67 0 0.34 0 0 Z " fill="#5ABFC1" transform="translate(106,81)"/>
<path d="M0 0 C0.33 0 0.66 0 1 0 C1 1.65 1 3.3 1 5 C1.66 5 2.32 5 3 5 C3.33 3.35 3.66 1.7 4 0 C4.99 0.33 5.98 0.66 7 1 C6.34 1 5.68 1 5 1 C4.97305149 2.95825873 4.95362782 4.91662226 4.9375 6.875 C4.92589844 7.96554688 4.91429688 9.05609375 4.90234375 10.1796875 C4.80255697 12.95177546 4.80255697 12.95177546 6 15 C4.35 15.33 2.7 15.66 1 16 C0.67 10.72 0.34 5.44 0 0 Z " fill="#DDFBFB" transform="translate(82,79)"/>
<path d="M0 0 C2.5625 0.1875 2.5625 0.1875 4.5625 2.1875 C4.5625 3.5075 4.5625 4.8275 4.5625 6.1875 C1.5925 6.1875 -1.3775 6.1875 -4.4375 6.1875 C-3.3735 0.2595 -3.3735 0.2595 0 0 Z " fill="#CBEAF6" transform="translate(22.4375,80.8125)"/>
<path d="M0 0 C1.32 0.66 2.64 1.32 4 2 C4 3.32 4 4.64 4 6 C3.01 6 2.02 6 1 6 C0.34 8.64 -0.32 11.28 -1 14 C-1.66 14 -2.32 14 -3 14 C-3.34615998 8.34605369 -2.43425238 4.96993194 0 0 Z " fill="#82CCCE" transform="translate(46,10)"/>
<path d="M0 0 C6.625 -0.25 6.625 -0.25 10 2 C10.25 5.5625 10.25 5.5625 10 9 C9 10 9 10 6.93359375 10.09765625 C3.46679688 10.04882812 3.46679688 10.04882812 0 10 C0 6.7 0 3.4 0 0 Z M1 2 C1 3.98 1 5.96 1 8 C3.64 8.33 6.28 8.66 9 9 C9.16687448 6.58354218 9.16687448 6.58354218 9 4 C7.10244856 1.65026182 7.10244856 1.65026182 3.875 1.875 C2.92625 1.91625 1.9775 1.9575 1 2 Z " fill="#D5F3FC" transform="translate(2,75)"/>
<path d="M0 0 C1.32 0.66 2.64 1.32 4 2 C3.67 2.33 3.34 2.66 3 3 C2.76572222 5.01594582 2.58663876 7.038474 2.4375 9.0625 C2.35371094 10.16722656 2.26992188 11.27195312 2.18359375 12.41015625 C2.12300781 13.26480469 2.06242187 14.11945312 2 15 C1.34 14.67 0.68 14.34 0 14 C-0.28926947 11.97511372 -0.57272154 9.94755984 -0.75390625 7.91015625 C-0.90406878 5.91747967 -0.90406878 5.91747967 -2 4 C-2.66 3.67 -3.32 3.34 -4 3 C-2.68 2.01 -1.36 1.02 0 0 Z " fill="#4BB4B9" transform="translate(40,11)"/>
<path d="M0 0 C1.125 1.6875 1.125 1.6875 2 4 C1.375 6.6875 1.375 6.6875 0 9 C-0.66 9.144375 -1.32 9.28875 -2 9.4375 C-2.66 9.623125 -3.32 9.80875 -4 10 C-5.3045656 12.99615946 -5.3045656 12.99615946 -6 16 C-7.0255368 13.32738894 -7.08282493 12.2243612 -6.07421875 9.4921875 C-5.61660156 8.62851562 -5.15898437 7.76484375 -4.6875 6.875 C-4.23761719 6.00617187 -3.78773437 5.13734375 -3.32421875 4.2421875 C-2 2 -2 2 0 0 Z " fill="#449FA6" transform="translate(35,15)"/>
<path d="M0 0 C1 3 1 3 0.1875 4.8125 C-0.204375 5.534375 -0.59625 6.25625 -1 7 C-1.68960962 8.99220557 -2.36079057 10.99105606 -3 13 C-5.97 12.67 -8.94 12.34 -12 12 C-12 11.67 -12 11.34 -12 11 C-11.13375 10.855625 -10.2675 10.71125 -9.375 10.5625 C-4.49896095 8.30507452 -2.63631654 4.54343914 0 0 Z " fill="#4CBFC2" transform="translate(80,54)"/>
<path d="M0 0 C0.33 0 0.66 0 1 0 C1 6.6 1 13.2 1 20 C0.34 20 -0.32 20 -1 20 C-1.28875 19.38125 -1.5775 18.7625 -1.875 18.125 C-2.93720042 15.86674235 -2.93720042 15.86674235 -5 14 C-4.34 14 -3.68 14 -3 14 C-3 12.68 -3 11.36 -3 10 C-2.34 10 -1.68 10 -1 10 C-0.67 6.7 -0.34 3.4 0 0 Z " fill="#C6EBFC" transform="translate(44,80)"/>
<path d="M0 0 C0.99 0.33 1.98 0.66 3 1 C3.79953138 4.28696233 4.09658936 5.71023192 3 9 C4.32 8.67 5.64 8.34 7 8 C6.34 9.98 5.68 11.96 5 14 C1.97413991 11.55979025 1.0661144 10.31404342 0.25 6.4375 C0 3 0 3 0 0 Z " fill="#84C0D5" transform="translate(46,27)"/>
<path d="M0 0 C0.33 0 0.66 0 1 0 C1.8320582 5.72040011 2.12036664 11.22240116 2 17 C1.01 17 0.02 17 -1 17 C-1.33 12.71 -1.66 8.42 -2 4 C-1.34 4 -0.68 4 0 4 C0 2.68 0 1.36 0 0 Z " fill="#4BB5BB" transform="translate(81,78)"/>
<path d="M0 0 C4.3835398 0.48705998 6.06752248 1.78373433 9 5 C10.31558703 6.02323436 11.64377755 7.03126968 13 8 C9.86869093 8.04683582 7.00826443 7.91128148 4 7 C1.96119166 4.77389955 1.1862622 2.83671396 0 0 Z " fill="#94DAE3" transform="translate(27,60)"/>
<path d="M0 0 C0.33 0 0.66 0 1 0 C1.57934159 5.40718817 1.34220083 8.10649656 -2 12.5 C-2.98191175 13.68193081 -3.97612198 14.85423174 -5 16 C-5.66 15.34 -6.32 14.68 -7 14 C-7 13.01 -7 12.02 -7 11 C-6.01 11 -5.02 11 -4 11 C-4 10.01 -4 9.02 -4 8 C-3.34 7.67 -2.68 7.34 -2 7 C-1.26924352 4.6859378 -0.59861742 2.35171131 0 0 Z " fill="#77BAD1" transform="translate(69,25)"/>
<path d="M0 0 C2 1 2 1 3.125 4.0625 C3.41375 5.031875 3.7025 6.00125 4 7 C3.34 7 2.68 7 2 7 C1.34 10.96 0.68 14.92 0 19 C-0.33 19 -0.66 19 -1 19 C-1.02714735 16.77090129 -1.04646254 14.54170633 -1.0625 12.3125 C-1.07990234 10.45044922 -1.07990234 10.45044922 -1.09765625 8.55078125 C-1.01478673 5.53764546 -0.70839449 2.91724661 0 0 Z " fill="#4AA1B4" transform="translate(27,34)"/>
<path d="M0 0 C0.33 0 0.66 0 1 0 C1.98248524 4.0527516 2.08159574 7.83861737 2 12 C1.01 11.67 0.02 11.34 -1 11 C-1.99 11.33 -2.98 11.66 -4 12 C-2.66666667 8 -1.33333333 4 0 0 Z " fill="#CAF5F6" transform="translate(78,79)"/>
<path d="M0 0 C0.33 0 0.66 0 1 0 C1 3.63 1 7.26 1 11 C2.98 10.67 4.96 10.34 7 10 C7.33 7.36 7.66 4.72 8 2 C8.33 2 8.66 2 9 2 C9.02689216 3.47906892 9.04634621 4.95827483 9.0625 6.4375 C9.07410156 7.26121094 9.08570313 8.08492187 9.09765625 8.93359375 C9 11 9 11 8 12 C5.32941149 12.14115161 2.67567762 12.04247107 0 12 C0 8.04 0 4.08 0 0 Z " fill="#CAEAF8" transform="translate(46,81)"/>
<path d="M0 0 C3.3 0 6.6 0 10 0 C8.02 0.99 8.02 0.99 6 2 C6.99 3.485 6.99 3.485 8 5 C5.69 5 3.38 5 1 5 C0.67 3.35 0.34 1.7 0 0 Z " fill="#E5F9FC" transform="translate(18,88)"/>
<path d="M0 0 C2.97 0 5.94 0 9 0 C9 0.66 9 1.32 9 2 C9.66 2 10.32 2 11 2 C11.66 3.98 12.32 5.96 13 8 C11.35 8.33 9.7 8.66 8 9 C7.67 6.36 7.34 3.72 7 1 C4.69 1 2.38 1 0 1 C0 0.67 0 0.34 0 0 Z " fill="#D6EDF4" transform="translate(20,79)"/>
<path d="M0 0 C0.99 0 1.98 0 3 0 C4.35439668 2.70879335 4.06501451 5.00933268 4 8 C4.66 8 5.32 8 6 8 C6 10.97 6 13.94 6 17 C5.67 17 5.34 17 5 17 C4.87625 16.030625 4.7525 15.06125 4.625 14.0625 C4.315625 12.5465625 4.315625 12.5465625 4 11 C3.34 10.67 2.68 10.34 2 10 C1.71073053 7.97511372 1.42727846 5.94755984 1.24609375 3.91015625 C1.09593122 1.91747967 1.09593122 1.91747967 0 0 Z " fill="#C1E6F7" transform="translate(11,74)"/>
<path d="M0 0 C0.33 0 0.66 0 1 0 C2.32594359 5.96674616 2.0884587 11.92583615 2 18 C1.67 18 1.34 18 1 18 C0.8046875 15.94921875 0.609375 13.8984375 0.4140625 11.84765625 C0.20910156 10.93306641 0.20910156 10.93306641 0 10 C-0.66 9.67 -1.32 9.34 -2 9 C-1.125 2.25 -1.125 2.25 0 0 Z " fill="#52A5B6" transform="translate(86,33)"/>
<path d="M0 0 C1.9375 0.625 1.9375 0.625 4 2 C4.875 5 4.875 5 5 8 C4.34 8.66 3.68 9.32 3 10 C3 9.34 3 8.68 3 8 C2.34 8 1.68 8 1 8 C-0.42944945 5.64561267 -1.08661261 4.51967567 -0.625 1.75 C-0.41875 1.1725 -0.2125 0.595 0 0 Z " fill="#127D8A" transform="translate(81,27)"/>
<path d="M0 0 C1.32 0 2.64 0 4 0 C4 2.64 4 5.28 4 8 C1.525 7.01 1.525 7.01 -1 6 C-0.67 4.02 -0.34 2.04 0 0 Z " fill="#30B1B3" transform="translate(77,74)"/>
<path d="M0 0 C1.98 0 3.96 0 6 0 C5.01 0.66 4.02 1.32 3 2 C2.74969023 4.58380177 2.74969023 4.58380177 3 7 C3.66 7 4.32 7 5 7 C4.67 9.64 4.34 12.28 4 15 C3.67 15 3.34 15 3 15 C2.49564306 13.0636296 1.99666126 11.12585854 1.5 9.1875 C1.2215625 8.10855469 0.943125 7.02960937 0.65625 5.91796875 C0 3 0 3 0 0 Z " fill="#6DC4C6" transform="translate(67,10)"/>
<path d="M0 0 C0.66 0 1.32 0 2 0 C2 3.3 2 6.6 2 10 C1.01 9.67 0.02 9.34 -1 9 C-1.09765625 2.84765625 -1.09765625 2.84765625 -1 1 C-0.67 0.67 -0.34 0.34 0 0 Z " fill="#40B2B5" transform="translate(102,82)"/>
<path d="M0 0 C0.66 0.66 1.32 1.32 2 2 C0.6875 4.9375 0.6875 4.9375 -1 8 C-1.99 8.33 -2.98 8.66 -4 9 C-4.33 7.68 -4.66 6.36 -5 5 C-4.34 5 -3.68 5 -3 5 C-2.67 4.01 -2.34 3.02 -2 2 C-1.34 2 -0.68 2 0 2 C0 1.34 0 0.68 0 0 Z " fill="#88D5E2" transform="translate(85,58)"/>
<path d="M0 0 C0.33 0.99 0.66 1.98 1 3 C1.350625 3.94875 1.70125 4.8975 2.0625 5.875 C2.94021855 8.8007285 3.17784394 10.97665302 3 14 C1 10.25 1 10.25 1 8 C0.01 8 -0.98 8 -2 8 C-1.125 1.125 -1.125 1.125 0 0 Z " fill="#9FD8D8" transform="translate(65,10)"/>
<path d="M0 0 C1.98 0 3.96 0 6 0 C6.33 1.32 6.66 2.64 7 4 C4.69 4 2.38 4 0 4 C0 2.68 0 1.36 0 0 Z " fill="#D9FBFB" transform="translate(89,82)"/>
<path d="M0 0 C2.97 0 5.94 0 9 0 C9 0.99 9 1.98 9 3 C6.36 3 3.72 3 1 3 C0.67 2.01 0.34 1.02 0 0 Z " fill="#58BABF" transform="translate(88,92)"/>
<path d="M0 0 C2.64 0 5.28 0 8 0 C6.68 0.99 5.36 1.98 4 3 C3.34 2.67 2.68 2.34 2 2 C2 2.66 2 3.32 2 4 C3.32 4.33 4.64 4.66 6 5 C5.01 5.495 5.01 5.495 4 6 C1.875 5.0625 1.875 5.0625 0 4 C0 2.68 0 1.36 0 0 Z " fill="#DEF8FD" transform="translate(33,81)"/>
<path d="M0 0 C1.32 0.33 2.64 0.66 4 1 C3.67 1.66 3.34 2.32 3 3 C2.34 3 1.68 3 1 3 C1.33 4.32 1.66 5.64 2 7 C0.35 6.67 -1.3 6.34 -3 6 C-2.01 4.02 -1.02 2.04 0 0 Z " fill="#69CBD7" transform="translate(79,60)"/>
<path d="M0 0 C-0.625 1.9375 -0.625 1.9375 -2 4 C-5 4.875 -5 4.875 -8 5 C-8.66 4.34 -9.32 3.68 -10 3 C-8.70990357 2.49596232 -7.41786211 1.99690074 -6.125 1.5 C-5.04605469 1.08234375 -5.04605469 1.08234375 -3.9453125 0.65625 C-2 0 -2 0 0 0 Z " fill="#219BA6" transform="translate(48,44)"/>
<path d="M0 0 C0.66 0.33 1.32 0.66 2 1 C2 1.66 2 2.32 2 3 C2.66 3 3.32 3 4 3 C4.33 3.99 4.66 4.98 5 6 C4.01 7.485 4.01 7.485 3 9 C2.01 8.67 1.02 8.34 0 8 C0.66 6.68 1.32 5.36 2 4 C1.01 3.67 0.02 3.34 -1 3 C-0.67 2.01 -0.34 1.02 0 0 Z " fill="#1B87A0" transform="translate(80,32)"/>
<path d="M0 0 C0.66 0.33 1.32 0.66 2 1 C1.34 3.31 0.68 5.62 0 8 C-1.32 7.67 -2.64 7.34 -4 7 C-1.125 1.125 -1.125 1.125 0 0 Z " fill="#86BFD7" transform="translate(67,25)"/>
<path d="M0 0 C0.66 0 1.32 0 2 0 C2.66 2.31 3.32 4.62 4 7 C2.68 7.99 1.36 8.98 0 10 C0 6.7 0 3.4 0 0 Z " fill="#BBF6F7" transform="translate(63,80)"/>
<path d="M0 0 C0.33 0 0.66 0 1 0 C1 2.31 1 4.62 1 7 C1.66 7 2.32 7 3 7 C3.33 6.34 3.66 5.68 4 5 C4 7.31 4 9.62 4 12 C2.68 11.34 1.36 10.68 0 10 C0 6.7 0 3.4 0 0 Z " fill="#C9E4EE" transform="translate(56,83)"/>
<path d="M0 0 C0.99 0.33 1.98 0.66 3 1 C1.68 3.64 0.36 6.28 -1 9 C-1.66 9 -2.32 9 -3 9 C-3 7.02 -3 5.04 -3 3 C-2.01 3 -1.02 3 0 3 C0 2.01 0 1.02 0 0 Z " fill="#D0F5F8" transform="translate(101,79)"/>
<path d="M0 0 C0.99 0 1.98 0 3 0 C3.33 0.66 3.66 1.32 4 2 C6.52733235 2.65555119 6.52733235 2.65555119 9 3 C5.5647952 5.29013653 4.014669 5.17842973 0 5 C0 3.35 0 1.7 0 0 Z " fill="#56C1C3" transform="translate(37,62)"/>
<path d="M0 0 C1.9375 0.75 1.9375 0.75 4 2 C4.75 4.125 4.75 4.125 5 6 C3.68 6 2.36 6 1 6 C0.34 4.35 -0.32 2.7 -1 1 C-0.67 0.67 -0.34 0.34 0 0 Z " fill="#5AA6B8" transform="translate(60,30)"/>
<path d="M0 0 C1.9375 0.8125 1.9375 0.8125 4 2 C4.33 2.99 4.66 3.98 5 5 C5.66 5.33 6.32 5.66 7 6 C7 6.66 7 7.32 7 8 C5.68 7.67 4.36 7.34 3 7 C3 6.01 3 5.02 3 4 C1.68 4 0.36 4 -1 4 C-0.67 2.68 -0.34 1.36 0 0 Z " fill="#4FBFCD" transform="translate(29,53)"/>
<path d="M0 0 C3.875 1.75 3.875 1.75 5 4 C4.38125 4.28875 3.7625 4.5775 3.125 4.875 C0.86674235 5.93720042 0.86674235 5.93720042 -1 8 C-0.67 5.36 -0.34 2.72 0 0 Z " fill="#4AADB1" transform="translate(75,13)"/>
<path d="M0 0 C0.33 0 0.66 0 1 0 C1 2.31 1 4.62 1 7 C1.66 7 2.32 7 3 7 C2.67 8.65 2.34 10.3 2 12 C1.34 12 0.68 12 0 12 C0 8.04 0 4.08 0 0 Z " fill="#58BCBE" transform="translate(60,83)"/>
<path d="M0 0 C1.2065625 0.0309375 1.2065625 0.0309375 2.4375 0.0625 C1.7775 0.68125 1.1175 1.3 0.4375 1.9375 C-1.7909549 3.81887427 -1.7909549 3.81887427 -1.5625 6.0625 C-2.5525 6.3925 -3.5425 6.7225 -4.5625 7.0625 C-3.5234375 0.0859375 -3.5234375 0.0859375 0 0 Z " fill="#137988" transform="translate(32.5625,26.9375)"/>
<path d="M0 0 C0.99 0.495 0.99 0.495 2 1 C2.59355614 3.64860427 2.74209269 6.29197322 3 9 C2.01 9 1.02 9 0 9 C0 6.03 0 3.06 0 0 Z " fill="#6FB4CC" transform="translate(44,24)"/>
<path d="M0 0 C1.485 0.99 1.485 0.99 3 2 C2.67 3.65 2.34 5.3 2 7 C1.34 7 0.68 7 0 7 C-0.33 8.32 -0.66 9.64 -1 11 C-1.14285714 3.57142857 -1.14285714 3.57142857 0 0 Z " fill="#C2E4ED" transform="translate(61,18)"/>
<path d="M0 0 C0 3.10551666 -0.5393715 4.35261084 -2 7 C-3.65 6.67 -5.3 6.34 -7 6 C-6.21625 5.38125 -5.4325 4.7625 -4.625 4.125 C-2.03162353 2.10141339 -2.03162353 2.10141339 0 0 Z " fill="#9ACDE2" transform="translate(66,24)"/>
<path d="M0 0 C0.99 0 1.98 0 3 0 C3 0.66 3 1.32 3 2 C2.34 2 1.68 2 1 2 C1 3.98 1 5.96 1 8 C0.34 8 -0.32 8 -1 8 C-1.93065133 5.39417629 -2.14917407 4.35801776 -1.0625 1.75 C-0.711875 1.1725 -0.36125 0.595 0 0 Z " fill="#9BDAE0" transform="translate(47,16)"/>
<path d="M0 0 C0.66 0.99 1.32 1.98 2 3 C0.35 4.65 -1.3 6.3 -3 8 C-2.25 2.25 -2.25 2.25 0 0 Z " fill="#38A7B3" transform="translate(77,17)"/>
<path d="M0 0 C0.66 1.32 1.32 2.64 2 4 C1.34 4.66 0.68 5.32 0 6 C-2.125 5.625 -2.125 5.625 -4 5 C-2.68 3.35 -1.36 1.7 0 0 Z " fill="#51A7AC" transform="translate(35,15)"/>
<path d="M0 0 C2.31 0.33 4.62 0.66 7 1 C7 1.33 7 1.66 7 2 C5.35 2 3.7 2 2 2 C1.67 3.32 1.34 4.64 1 6 C-0.0625 4.125 -0.0625 4.125 -1 2 C-0.67 1.34 -0.34 0.68 0 0 Z " fill="#4CBCC0" transform="translate(87,80)"/>
<path d="M0 0 C3.37462715 0.54723683 5.08235 1.0549 8 3 C7.67 3.66 7.34 4.32 7 5 C4.0625 4.1875 4.0625 4.1875 1 3 C0.67 2.01 0.34 1.02 0 0 Z " fill="#82D3E6" transform="translate(27,60)"/>
</svg>
