<?xml version="1.0" encoding="UTF-8"?>
<svg version="1.1" xmlns="http://www.w3.org/2000/svg" width="224" height="224">
<path d="M0 0 C73.92 0 147.84 0 224 0 C224 73.92 224 147.84 224 224 C150.08 224 76.16 224 0 224 C0 150.08 0 76.16 0 0 Z " fill="#EB2D3D" transform="translate(0,0)"/>
<path d="M0 0 C6.78376359 5.55035203 12.85522968 11.76442027 19 18 C22.2586636 16.5735422 24.4024854 14.83295838 26.890625 12.3046875 C27.59960938 11.58925781 28.30859375 10.87382813 29.0390625 10.13671875 C29.76867187 9.39035156 30.49828125 8.64398438 31.25 7.875 C31.99507812 7.12089844 32.74015625 6.36679688 33.5078125 5.58984375 C35.3431342 3.73099228 37.1736191 1.86762995 39 0 C43.8911484 4.06838173 48.47350753 8.34438078 52.9375 12.875 C53.82018555 13.76445313 53.82018555 13.76445313 54.72070312 14.671875 C56.14947674 16.11226466 57.57508132 17.5557967 59 19 C54.69372744 24.14829744 50.17688069 28.95752072 45.4140625 33.68359375 C44.71227875 34.38396255 44.010495 35.08433136 43.28744507 35.80592346 C41.06898864 38.01883027 38.84706185 40.22821416 36.625 42.4375 C35.11044534 43.94703314 33.59612015 45.45679657 32.08203125 46.96679688 C28.39066901 50.64719702 24.69645931 54.32471957 21 58 C17.81740149 56.59490901 15.68651534 54.93078658 13.24121094 52.46826172 C12.52076599 51.74766571 11.80032104 51.0270697 11.05804443 50.28463745 C10.29123352 49.50750397 9.52442261 48.73037048 8.734375 47.9296875 C7.94097717 47.13345978 7.14757935 46.33723206 6.33013916 45.51687622 C3.79869297 42.97424052 1.27429197 40.42473652 -1.25 37.875 C-2.96568617 36.14928247 -4.68182662 34.42401645 -6.3984375 32.69921875 C-10.60424248 28.47136968 -14.80428507 24.23786131 -19 20 C-12.74442981 12.61438461 -12.74442981 12.61438461 -9.5703125 9.47265625 C-9.003125 8.90869141 -8.4359375 8.34472656 -7.8515625 7.76367188 C-7.28179687 7.20228516 -6.71203125 6.64089844 -6.125 6.0625 C-5.23554687 5.17981445 -5.23554687 5.17981445 -4.328125 4.27929688 C-2.88773534 2.85052326 -1.4442033 1.42491868 0 0 Z " fill="#FDFBFB" transform="translate(92,102)"/>
<path d="M0 0 C24.09 0 48.18 0 73 0 C73 7.92 73 15.84 73 24 C48.91 24 24.82 24 0 24 C0 16.08 0 8.16 0 0 Z " fill="#FEFEFE" transform="translate(76,64)"/>
<path d="M0 0 C24.09 0 48.18 0 73 0 C73 7.92 73 15.84 73 24 C48.91 24 24.82 24 0 24 C0 16.08 0 8.16 0 0 Z M1 1 C1 8.26 1 15.52 1 23 C9.83154795 23.06769997 18.66292437 23.12277196 27.49467278 23.15543652 C31.59534193 23.17111161 35.6958248 23.1923831 39.79638672 23.22631836 C43.75156619 23.25884669 47.70656617 23.27683912 51.66186905 23.28463173 C53.17301384 23.29018704 54.68414849 23.30103491 56.19521713 23.31719017 C58.30728352 23.33887859 60.41860242 23.34197066 62.53076172 23.34057617 C64.33611893 23.35056892 64.33611893 23.35056892 66.177948 23.36076355 C67.57486374 23.18218559 67.57486374 23.18218559 69 23 C72.75655062 17.96609928 72.75655062 17.96609928 71 1 C47.9 1 24.8 1 1 1 Z " fill="#FBCAD0" transform="translate(76,64)"/>
<path d="M0 0 C0.99 0.99 1.98 1.98 3 3 C2.319375 3.37125 1.63875 3.7425 0.9375 4.125 C-5.16790291 8.02206569 -9.89930831 12.81267017 -14.51953125 18.36328125 C-16 20 -16 20 -18 21 C-18.66 20.34 -19.32 19.68 -20 19 C-19.56171875 18.63390625 -19.1234375 18.2678125 -18.671875 17.890625 C-12.09553103 12.27667283 -6.06349064 6.154443 0 0 Z " fill="#FEF0EF" transform="translate(131,102)"/>
<path d="M0 0 C4.95 0.99 4.95 0.99 10 2 C9.01 3.32 8.02 4.64 7 6 C3.28139821 4.46126823 2.64366459 3.52488612 0 0 Z " fill="#D2434F" transform="translate(106,115)"/>
<path d="M0 0 C0.33 0.66 0.66 1.32 1 2 C-0.19931656 5.37989213 -1.90104287 7.21575195 -5 9 C-5.99 8.67 -6.98 8.34 -8 8 C-5.36 5.36 -2.72 2.72 0 0 Z " fill="#FEE7E8" transform="translate(87,107)"/>
<path d="M0 0 C1 3 1 3 0.125 5.0625 C-0.24625 5.701875 -0.6175 6.34125 -1 7 C-1.33 7.66 -1.66 8.32 -2 9 C-2.99 7.68 -3.98 6.36 -5 5 C-3.35 3.35 -1.7 1.7 0 0 Z " fill="#FFDEDF" transform="translate(78,116)"/>
<path d="M0 0 C1.32 1.32 2.64 2.64 4 4 C2.35 5.32 0.7 6.64 -1 8 C-0.67 5.36 -0.34 2.72 0 0 Z " fill="#FEE6E2" transform="translate(147,118)"/>
<path d="M0 0 C0 1.65 0 3.3 0 5 C-4.875 2.25 -4.875 2.25 -6 0 C-3 -1 -3 -1 0 0 Z " fill="#DB3145" transform="translate(136,101)"/>
<path d="M0 0 C0.99 0.33 1.98 0.66 3 1 C-0.465 3.97 -0.465 3.97 -4 7 C-4 5.68 -4 4.36 -4 3 C-3.01 3 -2.02 3 -1 3 C-0.67 2.01 -0.34 1.02 0 0 Z " fill="#D32E43" transform="translate(85,106)"/>
</svg>
